<svg width="345" height="291" viewBox="0 0 345 291" fill="none" xmlns="http://www.w3.org/2000/svg">
<rect width="345" height="291" rx="20" fill="white"/>
<path d="M130.868 276.273V285H129.658L125.222 278.599H125.141V285H123.824V276.273H125.043L129.483 282.682H129.564V276.273H130.868ZM136.833 282.286V278.455H138.111V285H136.858V283.866H136.79C136.64 284.216 136.398 284.507 136.066 284.74C135.736 284.97 135.326 285.085 134.834 285.085C134.414 285.085 134.042 284.993 133.718 284.808C133.397 284.621 133.144 284.344 132.959 283.977C132.778 283.611 132.687 283.158 132.687 282.618V278.455H133.961V282.464C133.961 282.911 134.084 283.266 134.331 283.53C134.579 283.794 134.9 283.926 135.295 283.926C135.533 283.926 135.77 283.866 136.006 283.747C136.245 283.628 136.442 283.447 136.599 283.206C136.758 282.964 136.836 282.658 136.833 282.286ZM139.823 285V278.455H141.046V279.52H141.127C141.264 279.159 141.487 278.878 141.796 278.676C142.106 278.472 142.477 278.369 142.909 278.369C143.346 278.369 143.713 278.472 144.008 278.676C144.306 278.881 144.526 279.162 144.669 279.52H144.737C144.893 279.17 145.142 278.892 145.482 278.685C145.823 278.474 146.23 278.369 146.701 278.369C147.295 278.369 147.779 278.555 148.154 278.928C148.532 279.3 148.721 279.861 148.721 280.611V285H147.447V280.73C147.447 280.287 147.326 279.966 147.085 279.767C146.843 279.568 146.555 279.469 146.22 279.469C145.805 279.469 145.482 279.597 145.252 279.852C145.022 280.105 144.907 280.43 144.907 280.828V285H143.637V280.649C143.637 280.294 143.526 280.009 143.305 279.793C143.083 279.577 142.795 279.469 142.44 279.469C142.198 279.469 141.975 279.533 141.771 279.661C141.569 279.786 141.406 279.96 141.281 280.185C141.159 280.409 141.097 280.669 141.097 280.964V285H139.823ZM150.531 285V276.273H151.805V279.516H151.882C151.956 279.379 152.062 279.222 152.202 279.043C152.341 278.864 152.534 278.707 152.781 278.574C153.028 278.438 153.355 278.369 153.761 278.369C154.29 278.369 154.761 278.503 155.176 278.77C155.591 279.037 155.916 279.422 156.152 279.925C156.39 280.428 156.51 281.033 156.51 281.74C156.51 282.447 156.392 283.054 156.156 283.56C155.92 284.062 155.596 284.45 155.184 284.723C154.773 284.993 154.302 285.128 153.774 285.128C153.376 285.128 153.051 285.061 152.798 284.928C152.548 284.794 152.352 284.638 152.21 284.459C152.068 284.28 151.959 284.121 151.882 283.982H151.775V285H150.531ZM151.78 281.727C151.78 282.187 151.846 282.591 151.98 282.938C152.113 283.284 152.307 283.555 152.559 283.751C152.812 283.945 153.122 284.041 153.488 284.041C153.869 284.041 154.187 283.94 154.443 283.739C154.699 283.534 154.892 283.257 155.023 282.908C155.156 282.558 155.223 282.165 155.223 281.727C155.223 281.295 155.157 280.908 155.027 280.564C154.899 280.22 154.706 279.949 154.447 279.75C154.192 279.551 153.872 279.452 153.488 279.452C153.119 279.452 152.807 279.547 152.551 279.737C152.298 279.928 152.106 280.193 151.976 280.534C151.845 280.875 151.78 281.273 151.78 281.727ZM160.762 285.132C160.117 285.132 159.561 284.994 159.095 284.719C158.632 284.44 158.274 284.05 158.021 283.547C157.771 283.041 157.646 282.449 157.646 281.77C157.646 281.099 157.771 280.509 158.021 279.997C158.274 279.486 158.627 279.087 159.078 278.8C159.533 278.513 160.064 278.369 160.672 278.369C161.041 278.369 161.399 278.43 161.746 278.553C162.093 278.675 162.404 278.866 162.679 279.128C162.955 279.389 163.172 279.729 163.331 280.146C163.49 280.561 163.57 281.065 163.57 281.659V282.111H158.367V281.156H162.321C162.321 280.821 162.253 280.524 162.117 280.266C161.98 280.004 161.789 279.798 161.541 279.648C161.297 279.497 161.01 279.422 160.681 279.422C160.323 279.422 160.01 279.51 159.743 279.686C159.479 279.859 159.274 280.087 159.129 280.368C158.987 280.646 158.916 280.949 158.916 281.276V282.021C158.916 282.459 158.993 282.831 159.146 283.138C159.303 283.445 159.52 283.679 159.798 283.841C160.077 284 160.402 284.08 160.774 284.08C161.016 284.08 161.236 284.045 161.435 283.977C161.634 283.906 161.806 283.801 161.95 283.662C162.095 283.523 162.206 283.351 162.283 283.146L163.489 283.364C163.392 283.719 163.219 284.03 162.969 284.297C162.722 284.561 162.411 284.767 162.036 284.915C161.664 285.06 161.239 285.132 160.762 285.132ZM164.983 285V278.455H166.215V279.494H166.283C166.403 279.142 166.613 278.865 166.914 278.663C167.218 278.459 167.562 278.357 167.945 278.357C168.025 278.357 168.118 278.359 168.226 278.365C168.337 278.371 168.424 278.378 168.486 278.386V279.605C168.435 279.591 168.344 279.575 168.214 279.558C168.083 279.538 167.952 279.528 167.822 279.528C167.52 279.528 167.252 279.592 167.016 279.72C166.783 279.845 166.599 280.02 166.462 280.244C166.326 280.466 166.258 280.719 166.258 281.003V285H164.983ZM175.522 285.132C174.908 285.132 174.373 284.991 173.915 284.71C173.458 284.429 173.103 284.036 172.85 283.53C172.597 283.024 172.471 282.433 172.471 281.757C172.471 281.078 172.597 280.484 172.85 279.976C173.103 279.467 173.458 279.072 173.915 278.791C174.373 278.51 174.908 278.369 175.522 278.369C176.135 278.369 176.671 278.51 177.128 278.791C177.586 279.072 177.941 279.467 178.194 279.976C178.447 280.484 178.573 281.078 178.573 281.757C178.573 282.433 178.447 283.024 178.194 283.53C177.941 284.036 177.586 284.429 177.128 284.71C176.671 284.991 176.135 285.132 175.522 285.132ZM175.526 284.062C175.924 284.062 176.253 283.957 176.515 283.747C176.776 283.537 176.969 283.257 177.094 282.908C177.222 282.558 177.286 282.173 177.286 281.753C177.286 281.335 177.222 280.952 177.094 280.602C176.969 280.25 176.776 279.967 176.515 279.754C176.253 279.541 175.924 279.435 175.526 279.435C175.126 279.435 174.793 279.541 174.529 279.754C174.268 279.967 174.073 280.25 173.945 280.602C173.82 280.952 173.758 281.335 173.758 281.753C173.758 282.173 173.82 282.558 173.945 282.908C174.073 283.257 174.268 283.537 174.529 283.747C174.793 283.957 175.126 284.062 175.526 284.062ZM183.11 278.455V279.477H179.411V278.455H183.11ZM180.426 285V277.696C180.426 277.287 180.515 276.947 180.694 276.678C180.873 276.405 181.11 276.202 181.406 276.068C181.701 275.932 182.022 275.864 182.369 275.864C182.624 275.864 182.843 275.885 183.025 275.928C183.207 275.967 183.342 276.004 183.43 276.038L183.132 277.07C183.072 277.053 182.995 277.033 182.901 277.01C182.808 276.984 182.694 276.972 182.561 276.972C182.251 276.972 182.029 277.048 181.896 277.202C181.765 277.355 181.7 277.577 181.7 277.866V285H180.426ZM190.051 285.128C189.523 285.128 189.051 284.993 188.636 284.723C188.224 284.45 187.9 284.062 187.665 283.56C187.432 283.054 187.315 282.447 187.315 281.74C187.315 281.033 187.433 280.428 187.669 279.925C187.907 279.422 188.234 279.037 188.649 278.77C189.064 278.503 189.534 278.369 190.059 278.369C190.466 278.369 190.792 278.438 191.04 278.574C191.29 278.707 191.483 278.864 191.619 279.043C191.758 279.222 191.866 279.379 191.943 279.516H192.02V276.273H193.294V285H192.05V283.982H191.943C191.866 284.121 191.756 284.28 191.611 284.459C191.469 284.638 191.273 284.794 191.023 284.928C190.773 285.061 190.449 285.128 190.051 285.128ZM190.332 284.041C190.699 284.041 191.008 283.945 191.261 283.751C191.517 283.555 191.71 283.284 191.841 282.938C191.974 282.591 192.041 282.187 192.041 281.727C192.041 281.273 191.976 280.875 191.845 280.534C191.714 280.193 191.523 279.928 191.27 279.737C191.017 279.547 190.704 279.452 190.332 279.452C189.949 279.452 189.629 279.551 189.373 279.75C189.118 279.949 188.925 280.22 188.794 280.564C188.666 280.908 188.602 281.295 188.602 281.727C188.602 282.165 188.667 282.558 188.798 282.908C188.929 283.257 189.122 283.534 189.378 283.739C189.636 283.94 189.954 284.041 190.332 284.041ZM195.112 285V278.455H196.344V279.494H196.412C196.531 279.142 196.742 278.865 197.043 278.663C197.347 278.459 197.691 278.357 198.074 278.357C198.154 278.357 198.247 278.359 198.355 278.365C198.466 278.371 198.553 278.378 198.615 278.386V279.605C198.564 279.591 198.473 279.575 198.343 279.558C198.212 279.538 198.081 279.528 197.95 279.528C197.649 279.528 197.381 279.592 197.145 279.72C196.912 279.845 196.727 280.02 196.591 280.244C196.455 280.466 196.387 280.719 196.387 281.003V285H195.112ZM199.718 285V278.455H200.992V285H199.718ZM200.361 277.445C200.14 277.445 199.949 277.371 199.79 277.223C199.634 277.072 199.556 276.893 199.556 276.686C199.556 276.476 199.634 276.297 199.79 276.149C199.949 275.999 200.14 275.923 200.361 275.923C200.583 275.923 200.772 275.999 200.928 276.149C201.087 276.297 201.167 276.476 201.167 276.686C201.167 276.893 201.087 277.072 200.928 277.223C200.772 277.371 200.583 277.445 200.361 277.445ZM203.98 281.114V285H202.706V278.455H203.929V279.52H204.01C204.161 279.173 204.396 278.895 204.718 278.685C205.041 278.474 205.449 278.369 205.941 278.369C206.387 278.369 206.777 278.463 207.112 278.651C207.448 278.835 207.708 279.111 207.892 279.477C208.077 279.844 208.169 280.297 208.169 280.837V285H206.895V280.99C206.895 280.516 206.771 280.145 206.524 279.878C206.277 279.608 205.938 279.473 205.506 279.473C205.21 279.473 204.948 279.537 204.718 279.665C204.49 279.793 204.31 279.98 204.176 280.227C204.046 280.472 203.98 280.767 203.98 281.114ZM211.05 282.78L211.041 281.224H211.263L213.871 278.455H215.396L212.422 281.608H212.222L211.05 282.78ZM209.878 285V276.273H211.152V285H209.878ZM214.012 285L211.668 281.889L212.546 280.999L215.575 285H214.012ZM221.463 280.053L220.308 280.257C220.259 280.109 220.183 279.969 220.078 279.835C219.975 279.702 219.836 279.592 219.66 279.507C219.484 279.422 219.264 279.379 218.999 279.379C218.639 279.379 218.338 279.46 218.096 279.622C217.855 279.781 217.734 279.987 217.734 280.24C217.734 280.459 217.815 280.635 217.977 280.768C218.139 280.902 218.4 281.011 218.761 281.097L219.801 281.335C220.403 281.474 220.852 281.689 221.147 281.979C221.443 282.268 221.59 282.645 221.59 283.108C221.59 283.5 221.477 283.849 221.249 284.156C221.025 284.46 220.711 284.699 220.308 284.872C219.907 285.045 219.443 285.132 218.914 285.132C218.181 285.132 217.583 284.976 217.12 284.663C216.657 284.348 216.373 283.901 216.268 283.321L217.499 283.134C217.576 283.455 217.734 283.697 217.972 283.862C218.211 284.024 218.522 284.105 218.906 284.105C219.323 284.105 219.657 284.018 219.907 283.845C220.157 283.669 220.282 283.455 220.282 283.202C220.282 282.997 220.205 282.825 220.052 282.686C219.901 282.547 219.67 282.442 219.357 282.371L218.249 282.128C217.639 281.989 217.187 281.767 216.894 281.463C216.605 281.159 216.46 280.774 216.46 280.308C216.46 279.922 216.568 279.584 216.784 279.294C216.999 279.004 217.298 278.778 217.678 278.616C218.059 278.452 218.495 278.369 218.987 278.369C219.694 278.369 220.251 278.523 220.657 278.83C221.063 279.134 221.332 279.541 221.463 280.053Z" fill="#1C1903"/>
<path d="M26.7841 22H23.9588V13.2727H26.8736C27.7287 13.2727 28.4631 13.4474 29.0767 13.7969C29.6903 14.1435 30.1605 14.642 30.4872 15.2926C30.8168 15.9403 30.9815 16.7173 30.9815 17.6236C30.9815 18.5327 30.8153 19.3139 30.483 19.9673C30.1534 20.6207 29.6761 21.1236 29.0511 21.4759C28.4261 21.8253 27.6705 22 26.7841 22ZM25.2756 20.8494H26.7116C27.3764 20.8494 27.929 20.7244 28.3693 20.4744C28.8097 20.2216 29.1392 19.8565 29.358 19.3793C29.5767 18.8991 29.6861 18.3139 29.6861 17.6236C29.6861 16.9389 29.5767 16.358 29.358 15.8807C29.142 15.4034 28.8196 15.0412 28.3906 14.794C27.9616 14.5469 27.429 14.4233 26.7926 14.4233H25.2756V20.8494ZM35.2738 22.1321C34.6602 22.1321 34.1246 21.9915 33.6673 21.7102C33.2099 21.429 32.8548 21.0355 32.6019 20.5298C32.3491 20.0241 32.2227 19.4332 32.2227 18.7571C32.2227 18.0781 32.3491 17.4844 32.6019 16.9759C32.8548 16.4673 33.2099 16.0724 33.6673 15.7912C34.1246 15.5099 34.6602 15.3693 35.2738 15.3693C35.8874 15.3693 36.4229 15.5099 36.8803 15.7912C37.3377 16.0724 37.6928 16.4673 37.9457 16.9759C38.1985 17.4844 38.3249 18.0781 38.3249 18.7571C38.3249 19.4332 38.1985 20.0241 37.9457 20.5298C37.6928 21.0355 37.3377 21.429 36.8803 21.7102C36.4229 21.9915 35.8874 22.1321 35.2738 22.1321ZM35.2781 21.0625C35.6758 21.0625 36.0053 20.9574 36.2667 20.7472C36.5281 20.5369 36.7212 20.2571 36.8462 19.9077C36.9741 19.5582 37.038 19.1733 37.038 18.7528C37.038 18.3352 36.9741 17.9517 36.8462 17.6023C36.7212 17.25 36.5281 16.9673 36.2667 16.7543C36.0053 16.5412 35.6758 16.4347 35.2781 16.4347C34.8775 16.4347 34.5451 16.5412 34.2809 16.7543C34.0195 16.9673 33.8249 17.25 33.6971 17.6023C33.5721 17.9517 33.5096 18.3352 33.5096 18.7528C33.5096 19.1733 33.5721 19.5582 33.6971 19.9077C33.8249 20.2571 34.0195 20.5369 34.2809 20.7472C34.5451 20.9574 34.8775 21.0625 35.2781 21.0625ZM39.7472 24.4545V15.4545H40.9915V16.5156H41.098C41.1719 16.3793 41.2784 16.2216 41.4176 16.0426C41.5568 15.8636 41.75 15.7074 41.9972 15.5739C42.2443 15.4375 42.571 15.3693 42.9773 15.3693C43.5057 15.3693 43.9773 15.5028 44.392 15.7699C44.8068 16.0369 45.1321 16.4219 45.3679 16.9247C45.6065 17.4276 45.7259 18.0327 45.7259 18.7401C45.7259 19.4474 45.608 20.054 45.3722 20.5597C45.1364 21.0625 44.8125 21.4503 44.4006 21.723C43.9886 21.9929 43.5185 22.1278 42.9901 22.1278C42.5923 22.1278 42.267 22.0611 42.0142 21.9276C41.7642 21.794 41.5682 21.6378 41.4261 21.4588C41.2841 21.2798 41.1747 21.1207 41.098 20.9815H41.0213V24.4545H39.7472ZM40.9957 18.7273C40.9957 19.1875 41.0625 19.5909 41.196 19.9375C41.3295 20.2841 41.5227 20.5554 41.7756 20.7514C42.0284 20.9446 42.3381 21.0412 42.7045 21.0412C43.0852 21.0412 43.4034 20.9403 43.6591 20.7386C43.9148 20.5341 44.108 20.2571 44.2386 19.9077C44.3722 19.5582 44.4389 19.1648 44.4389 18.7273C44.4389 18.2955 44.3736 17.9077 44.2429 17.5639C44.1151 17.2202 43.9219 16.9489 43.6634 16.75C43.4077 16.5511 43.0881 16.4517 42.7045 16.4517C42.3352 16.4517 42.0227 16.5469 41.767 16.7372C41.5142 16.9276 41.3224 17.1932 41.1918 17.5341C41.0611 17.875 40.9957 18.2727 40.9957 18.7273ZM49.0582 22.1449C48.6435 22.1449 48.2685 22.0682 47.9332 21.9148C47.598 21.7585 47.3324 21.5327 47.1364 21.2372C46.9432 20.9418 46.8466 20.5795 46.8466 20.1506C46.8466 19.7812 46.9176 19.4773 47.0597 19.2386C47.2017 19 47.3935 18.8111 47.6349 18.6719C47.8764 18.5327 48.1463 18.4276 48.4446 18.3565C48.7429 18.2855 49.0469 18.2315 49.3565 18.1946C49.7486 18.1491 50.0668 18.1122 50.3111 18.0838C50.5554 18.0526 50.733 18.0028 50.8438 17.9347C50.9545 17.8665 51.0099 17.7557 51.0099 17.6023V17.5724C51.0099 17.2003 50.9048 16.9119 50.6946 16.7074C50.4872 16.5028 50.1776 16.4006 49.7656 16.4006C49.3366 16.4006 48.9986 16.4957 48.7514 16.6861C48.5071 16.8736 48.3381 17.0824 48.2443 17.3125L47.0469 17.0398C47.1889 16.642 47.3963 16.321 47.669 16.0767C47.9446 15.8295 48.2614 15.6506 48.6193 15.5398C48.9773 15.4261 49.3537 15.3693 49.7486 15.3693C50.0099 15.3693 50.2869 15.4006 50.5795 15.4631C50.875 15.5227 51.1506 15.6335 51.4062 15.7955C51.6648 15.9574 51.8764 16.1889 52.0412 16.4901C52.206 16.7884 52.2884 17.1761 52.2884 17.6534V22H51.044V21.1051H50.9929C50.9105 21.2699 50.7869 21.4318 50.6222 21.5909C50.4574 21.75 50.2457 21.8821 49.9872 21.9872C49.7287 22.0923 49.419 22.1449 49.0582 22.1449ZM49.3352 21.1222C49.6875 21.1222 49.9886 21.0526 50.2386 20.9134C50.4915 20.7741 50.6832 20.5923 50.8139 20.3679C50.9474 20.1406 51.0142 19.8977 51.0142 19.6392V18.7955C50.9688 18.8409 50.8807 18.8835 50.75 18.9233C50.6222 18.9602 50.4759 18.9929 50.3111 19.0213C50.1463 19.0469 49.9858 19.071 49.8295 19.0938C49.6733 19.1136 49.5426 19.1307 49.4375 19.1449C49.1903 19.1761 48.9645 19.2287 48.7599 19.3026C48.5582 19.3764 48.3963 19.483 48.2741 19.6222C48.1548 19.7585 48.0952 19.9403 48.0952 20.1676C48.0952 20.483 48.2116 20.7216 48.4446 20.8835C48.6776 21.0426 48.9744 21.1222 49.3352 21.1222ZM53.9854 22V15.4545H55.2085V16.5199H55.2894C55.4258 16.1591 55.6488 15.8778 55.9585 15.6761C56.2681 15.4716 56.6388 15.3693 57.0707 15.3693C57.5082 15.3693 57.8746 15.4716 58.1701 15.6761C58.4684 15.8807 58.6886 16.1619 58.8306 16.5199H58.8988C59.055 16.1705 59.3036 15.892 59.6445 15.6847C59.9854 15.4744 60.3917 15.3693 60.8633 15.3693C61.457 15.3693 61.9414 15.5554 62.3164 15.9276C62.6942 16.2997 62.8832 16.8608 62.8832 17.6108V22H61.609V17.7301C61.609 17.2869 61.4883 16.9659 61.2468 16.767C61.0053 16.5682 60.717 16.4687 60.3817 16.4687C59.967 16.4687 59.6445 16.5966 59.4144 16.8523C59.1843 17.1051 59.0692 17.4304 59.0692 17.8281V22H57.7994V17.6491C57.7994 17.294 57.6886 17.0085 57.467 16.7926C57.2454 16.5767 56.957 16.4687 56.6019 16.4687C56.3604 16.4687 56.1374 16.5327 55.9329 16.6605C55.7312 16.7855 55.5678 16.9602 55.4428 17.1847C55.3207 17.4091 55.2596 17.669 55.2596 17.9645V22H53.9854ZM64.5909 22V15.4545H65.8651V22H64.5909ZM65.2344 14.4446C65.0128 14.4446 64.8224 14.3707 64.6634 14.223C64.5071 14.0724 64.429 13.8935 64.429 13.6861C64.429 13.4759 64.5071 13.2969 64.6634 13.1491C64.8224 12.9986 65.0128 12.9233 65.2344 12.9233C65.456 12.9233 65.6449 12.9986 65.8011 13.1491C65.9602 13.2969 66.0398 13.4759 66.0398 13.6861C66.0398 13.8935 65.9602 14.0724 65.8011 14.223C65.6449 14.3707 65.456 14.4446 65.2344 14.4446ZM68.8533 18.1136V22H67.5792V15.4545H68.8022V16.5199H68.8832C69.0337 16.1733 69.2695 15.8949 69.5906 15.6847C69.9144 15.4744 70.3221 15.3693 70.8136 15.3693C71.2596 15.3693 71.6502 15.4631 71.9854 15.6506C72.3207 15.8352 72.5806 16.1108 72.7653 16.4773C72.9499 16.8437 73.0423 17.2969 73.0423 17.8366V22H71.7681V17.9901C71.7681 17.5156 71.6445 17.1449 71.3974 16.8778C71.1502 16.608 70.8107 16.473 70.3789 16.473C70.0835 16.473 69.8207 16.5369 69.5906 16.6648C69.3633 16.7926 69.1829 16.9801 69.0494 17.2273C68.9187 17.4716 68.8533 17.767 68.8533 18.1136ZM77.5721 22.1321C76.9272 22.1321 76.3718 21.9943 75.9059 21.7187C75.4428 21.4403 75.0849 21.0497 74.832 20.5469C74.582 20.0412 74.457 19.4489 74.457 18.7699C74.457 18.0994 74.582 17.5085 74.832 16.9972C75.0849 16.4858 75.4371 16.0866 75.8888 15.7997C76.3434 15.5128 76.8746 15.3693 77.4826 15.3693C77.8519 15.3693 78.2099 15.4304 78.5565 15.5526C78.9031 15.6747 79.2141 15.8665 79.4897 16.1278C79.7653 16.3892 79.9826 16.7287 80.1417 17.1463C80.3008 17.5611 80.3803 18.0653 80.3803 18.6591V19.1108H75.1772V18.1562H79.1317C79.1317 17.821 79.0636 17.5241 78.9272 17.2656C78.7908 17.0043 78.5991 16.7983 78.3519 16.6477C78.1076 16.4972 77.8207 16.4219 77.4911 16.4219C77.1332 16.4219 76.8207 16.5099 76.5536 16.6861C76.2894 16.8594 76.0849 17.0866 75.94 17.3679C75.7979 17.6463 75.7269 17.9489 75.7269 18.2756V19.0213C75.7269 19.4588 75.8036 19.831 75.957 20.1378C76.1133 20.4446 76.3306 20.679 76.609 20.8409C76.8874 21 77.2127 21.0795 77.5849 21.0795C77.8263 21.0795 78.0465 21.0455 78.2454 20.9773C78.4442 20.9062 78.6161 20.8011 78.761 20.6619C78.9059 20.5227 79.0167 20.3509 79.0934 20.1463L80.2994 20.3636C80.2028 20.7187 80.0295 21.0298 79.7795 21.2969C79.5323 21.5611 79.2212 21.767 78.8462 21.9148C78.4741 22.0597 78.0494 22.1321 77.5721 22.1321Z" fill="#1C1903"/>
<path d="M29.8651 34.0298C29.7827 33.7713 29.6719 33.5398 29.5327 33.3352C29.3963 33.1278 29.233 32.9517 29.0426 32.8068C28.8523 32.6591 28.6349 32.5469 28.3906 32.4702C28.1491 32.3935 27.8835 32.3551 27.5938 32.3551C27.1023 32.3551 26.6591 32.4815 26.2642 32.7344C25.8693 32.9872 25.5568 33.358 25.3267 33.8466C25.0994 34.3324 24.9858 34.9276 24.9858 35.6321C24.9858 36.3395 25.1009 36.9375 25.331 37.4261C25.5611 37.9148 25.8764 38.2855 26.277 38.5384C26.6776 38.7912 27.1335 38.9176 27.6449 38.9176C28.1193 38.9176 28.5327 38.821 28.8849 38.6278C29.2401 38.4347 29.5142 38.1619 29.7074 37.8097C29.9034 37.4545 30.0014 37.0369 30.0014 36.5568L30.3423 36.6207H27.8452V35.5341H31.2756V36.527C31.2756 37.2599 31.1193 37.8963 30.8068 38.4361C30.4972 38.973 30.0682 39.3878 29.5199 39.6804C28.9744 39.973 28.3494 40.1193 27.6449 40.1193C26.8551 40.1193 26.1619 39.9375 25.5653 39.5739C24.9716 39.2102 24.5085 38.6946 24.1761 38.027C23.8438 37.3565 23.6776 36.5611 23.6776 35.6406C23.6776 34.9446 23.7741 34.3196 23.9673 33.7656C24.1605 33.2116 24.4318 32.7415 24.7812 32.3551C25.1335 31.9659 25.5469 31.669 26.0213 31.4645C26.4986 31.2571 27.0199 31.1534 27.5852 31.1534C28.0568 31.1534 28.4957 31.223 28.902 31.3622C29.3111 31.5014 29.6747 31.6989 29.9929 31.9545C30.3139 32.2102 30.5795 32.5142 30.7898 32.8665C31 33.2159 31.142 33.6037 31.2159 34.0298H29.8651ZM33.4148 40H32.017L35.1577 31.2727H36.679L39.8196 40H38.4219L35.9545 32.858H35.8864L33.4148 40ZM33.6491 36.5824H38.1832V37.6903H33.6491V36.5824ZM41.0799 40V31.2727H44.2759C44.8952 31.2727 45.408 31.375 45.8143 31.5795C46.2205 31.7812 46.5245 32.0554 46.7262 32.402C46.9279 32.7457 47.0288 33.1335 47.0288 33.5653C47.0288 33.929 46.962 34.2358 46.8285 34.4858C46.695 34.733 46.516 34.9318 46.2915 35.0824C46.07 35.2301 45.8256 35.3381 45.5586 35.4062V35.4915C45.8484 35.5057 46.131 35.5994 46.4066 35.7727C46.685 35.9432 46.9151 36.1861 47.0969 36.5014C47.2788 36.8168 47.3697 37.2003 47.3697 37.652C47.3697 38.098 47.2646 38.4986 47.0543 38.8537C46.8469 39.206 46.5259 39.4858 46.0913 39.6932C45.6566 39.8977 45.1012 40 44.4251 40H41.0799ZM42.3967 38.8707H44.2972C44.9279 38.8707 45.3796 38.7486 45.6523 38.5043C45.9251 38.2599 46.0614 37.9545 46.0614 37.5881C46.0614 37.3125 45.9918 37.0597 45.8526 36.8295C45.7134 36.5994 45.5146 36.4162 45.256 36.2798C45.0004 36.1435 44.6964 36.0753 44.3441 36.0753H42.3967V38.8707ZM42.3967 35.0483H44.1609C44.4563 35.0483 44.7219 34.9915 44.9577 34.8778C45.1964 34.7642 45.3853 34.6051 45.5245 34.4006C45.6665 34.1932 45.7376 33.9489 45.7376 33.6676C45.7376 33.3068 45.6112 33.0043 45.3583 32.7599C45.1055 32.5156 44.7177 32.3935 44.195 32.3935H42.3967V35.0483ZM49.6687 40H48.271L51.4116 31.2727H52.9329L56.0735 40H54.6758L52.2085 32.858H52.1403L49.6687 40ZM49.9031 36.5824H54.4371V37.6903H49.9031V36.5824Z" fill="#1C1903"/>
<path d="M31.2074 49.1108H29.8778C29.8267 48.8267 29.7315 48.5767 29.5923 48.3608C29.4531 48.1449 29.2827 47.9616 29.081 47.8111C28.8793 47.6605 28.6534 47.5469 28.4034 47.4702C28.1563 47.3935 27.8935 47.3551 27.6151 47.3551C27.1122 47.3551 26.6619 47.4815 26.2642 47.7344C25.8693 47.9872 25.5568 48.358 25.3267 48.8466C25.0994 49.3352 24.9858 49.9318 24.9858 50.6364C24.9858 51.3466 25.0994 51.946 25.3267 52.4347C25.5568 52.9233 25.8707 53.2926 26.2685 53.5426C26.6662 53.7926 27.1136 53.9176 27.6108 53.9176C27.8864 53.9176 28.1477 53.8807 28.3949 53.8068C28.6449 53.7301 28.8707 53.6179 29.0724 53.4702C29.2741 53.3224 29.4446 53.142 29.5838 52.929C29.7259 52.7131 29.8239 52.4659 29.8778 52.1875L31.2074 52.1918C31.1364 52.6207 30.9986 53.0156 30.794 53.3764C30.5923 53.7344 30.3324 54.044 30.0142 54.3054C29.6989 54.5639 29.3381 54.7642 28.9318 54.9062C28.5256 55.0483 28.0824 55.1193 27.6023 55.1193C26.8466 55.1193 26.1733 54.9403 25.5824 54.5824C24.9915 54.2216 24.5256 53.706 24.1847 53.0355C23.8466 52.3651 23.6776 51.5653 23.6776 50.6364C23.6776 49.7045 23.848 48.9048 24.1889 48.2372C24.5298 47.5668 24.9957 47.0526 25.5866 46.6946C26.1776 46.3338 26.8494 46.1534 27.6023 46.1534C28.0653 46.1534 28.4972 46.2202 28.8977 46.3537C29.3011 46.4844 29.6634 46.6776 29.9844 46.9332C30.3054 47.1861 30.571 47.4957 30.7812 47.8622C30.9915 48.2259 31.1335 48.642 31.2074 49.1108ZM35.5018 55.1321C34.8569 55.1321 34.3015 54.9943 33.8356 54.7188C33.3725 54.4403 33.0146 54.0497 32.7617 53.5469C32.5117 53.0412 32.3867 52.4489 32.3867 51.7699C32.3867 51.0994 32.5117 50.5085 32.7617 49.9972C33.0146 49.4858 33.3668 49.0866 33.8185 48.7997C34.2731 48.5128 34.8043 48.3693 35.4123 48.3693C35.7816 48.3693 36.1396 48.4304 36.4862 48.5526C36.8327 48.6747 37.1438 48.8665 37.4194 49.1278C37.695 49.3892 37.9123 49.7287 38.0714 50.1463C38.2305 50.5611 38.31 51.0653 38.31 51.6591V52.1108H33.1069V51.1562H37.0614C37.0614 50.821 36.9933 50.5241 36.8569 50.2656C36.7205 50.0043 36.5288 49.7983 36.2816 49.6477C36.0373 49.4972 35.7504 49.4219 35.4208 49.4219C35.0629 49.4219 34.7504 49.5099 34.4833 49.6861C34.2191 49.8594 34.0146 50.0866 33.8697 50.3679C33.7276 50.6463 33.6566 50.9489 33.6566 51.2756V52.0213C33.6566 52.4588 33.7333 52.831 33.8867 53.1378C34.043 53.4446 34.2603 53.679 34.5387 53.8409C34.8171 54 35.1424 54.0795 35.5146 54.0795C35.756 54.0795 35.9762 54.0455 36.1751 53.9773C36.3739 53.9062 36.5458 53.8011 36.6907 53.6619C36.8356 53.5227 36.9464 53.3509 37.0231 53.1463L38.229 53.3636C38.1325 53.7187 37.9592 54.0298 37.7092 54.2969C37.462 54.5611 37.1509 54.767 36.7759 54.9148C36.4038 55.0597 35.979 55.1321 35.5018 55.1321ZM39.7237 55V48.4545H40.9553V49.4943H41.0234C41.1428 49.142 41.353 48.8651 41.6541 48.6634C41.9581 48.4588 42.3018 48.3565 42.6854 48.3565C42.7649 48.3565 42.8587 48.3594 42.9666 48.3651C43.0774 48.3707 43.1641 48.3778 43.2266 48.3864V49.6051C43.1754 49.5909 43.0845 49.5753 42.9538 49.5582C42.8232 49.5384 42.6925 49.5284 42.5618 49.5284C42.2607 49.5284 41.9922 49.5923 41.7564 49.7202C41.5234 49.8452 41.3388 50.0199 41.2024 50.2443C41.0661 50.4659 40.9979 50.7187 40.9979 51.0028V55H39.7237ZM46.9158 55.1321C46.271 55.1321 45.7156 54.9943 45.2496 54.7188C44.7866 54.4403 44.4286 54.0497 44.1758 53.5469C43.9258 53.0412 43.8008 52.4489 43.8008 51.7699C43.8008 51.0994 43.9258 50.5085 44.1758 49.9972C44.4286 49.4858 44.7809 49.0866 45.2326 48.7997C45.6871 48.5128 46.2184 48.3693 46.8263 48.3693C47.1957 48.3693 47.5536 48.4304 47.9002 48.5526C48.2468 48.6747 48.5579 48.8665 48.8335 49.1278C49.109 49.3892 49.3263 49.7287 49.4854 50.1463C49.6445 50.5611 49.7241 51.0653 49.7241 51.6591V52.1108H44.521V51.1562H48.4755C48.4755 50.821 48.4073 50.5241 48.271 50.2656C48.1346 50.0043 47.9428 49.7983 47.6957 49.6477C47.4513 49.4972 47.1644 49.4219 46.8349 49.4219C46.4769 49.4219 46.1644 49.5099 45.8974 49.6861C45.6332 49.8594 45.4286 50.0866 45.2837 50.3679C45.1417 50.6463 45.0707 50.9489 45.0707 51.2756V52.0213C45.0707 52.4588 45.1474 52.831 45.3008 53.1378C45.457 53.4446 45.6744 53.679 45.9528 53.8409C46.2312 54 46.5565 54.0795 46.9286 54.0795C47.1701 54.0795 47.3903 54.0455 47.5891 53.9773C47.788 53.9062 47.9599 53.8011 48.1048 53.6619C48.2496 53.5227 48.3604 53.3509 48.4371 53.1463L49.6431 53.3636C49.5465 53.7187 49.3732 54.0298 49.1232 54.2969C48.8761 54.5611 48.565 54.767 48.19 54.9148C47.8178 55.0597 47.3931 55.1321 46.9158 55.1321ZM51.2401 55V46.2727H52.5142V49.5156H52.5909C52.6648 49.3793 52.7713 49.2216 52.9105 49.0426C53.0497 48.8636 53.2429 48.7074 53.4901 48.5739C53.7372 48.4375 54.0639 48.3693 54.4702 48.3693C54.9986 48.3693 55.4702 48.5028 55.8849 48.7699C56.2997 49.0369 56.625 49.4219 56.8608 49.9247C57.0994 50.4276 57.2188 51.0327 57.2188 51.7401C57.2188 52.4474 57.1009 53.054 56.8651 53.5597C56.6293 54.0625 56.3054 54.4503 55.8935 54.723C55.4815 54.9929 55.0114 55.1278 54.483 55.1278C54.0852 55.1278 53.7599 55.0611 53.5071 54.9276C53.2571 54.794 53.0611 54.6378 52.919 54.4588C52.777 54.2798 52.6676 54.1207 52.5909 53.9815H52.4844V55H51.2401ZM52.4886 51.7273C52.4886 52.1875 52.5554 52.5909 52.6889 52.9375C52.8224 53.2841 53.0156 53.5554 53.2685 53.7514C53.5213 53.9446 53.831 54.0412 54.1974 54.0412C54.5781 54.0412 54.8963 53.9403 55.152 53.7386C55.4077 53.5341 55.6009 53.2571 55.7315 52.9077C55.8651 52.5582 55.9318 52.1648 55.9318 51.7273C55.9318 51.2955 55.8665 50.9077 55.7358 50.5639C55.608 50.2202 55.4148 49.9489 55.1562 49.75C54.9006 49.5511 54.581 49.4517 54.1974 49.4517C53.8281 49.4517 53.5156 49.5469 53.2599 49.7372C53.0071 49.9276 52.8153 50.1932 52.6847 50.5341C52.554 50.875 52.4886 51.2727 52.4886 51.7273ZM58.6495 55V48.4545H59.881V49.4943H59.9492C60.0685 49.142 60.2788 48.8651 60.5799 48.6634C60.8839 48.4588 61.2276 48.3565 61.6112 48.3565C61.6907 48.3565 61.7844 48.3594 61.8924 48.3651C62.0032 48.3707 62.0898 48.3778 62.1523 48.3864V49.6051C62.1012 49.5909 62.0103 49.5753 61.8796 49.5582C61.7489 49.5384 61.6183 49.5284 61.4876 49.5284C61.1864 49.5284 60.918 49.5923 60.6822 49.7202C60.4492 49.8452 60.2646 50.0199 60.1282 50.2443C59.9918 50.4659 59.9237 50.7187 59.9237 51.0028V55H58.6495ZM65.1012 55.1449C64.6864 55.1449 64.3114 55.0682 63.9762 54.9148C63.641 54.7585 63.3754 54.5327 63.1793 54.2372C62.9862 53.9418 62.8896 53.5795 62.8896 53.1506C62.8896 52.7812 62.9606 52.4773 63.1026 52.2386C63.2447 52 63.4364 51.8111 63.6779 51.6719C63.9194 51.5327 64.1893 51.4276 64.4876 51.3565C64.7859 51.2855 65.0898 51.2315 65.3995 51.1946C65.7915 51.1491 66.1097 51.1122 66.354 51.0838C66.5984 51.0526 66.7759 51.0028 66.8867 50.9347C66.9975 50.8665 67.0529 50.7557 67.0529 50.6023V50.5724C67.0529 50.2003 66.9478 49.9119 66.7376 49.7074C66.5302 49.5028 66.2205 49.4006 65.8086 49.4006C65.3796 49.4006 65.0415 49.4957 64.7944 49.6861C64.5501 49.8736 64.381 50.0824 64.2873 50.3125L63.0898 50.0398C63.2319 49.642 63.4393 49.321 63.712 49.0767C63.9876 48.8295 64.3043 48.6506 64.6623 48.5398C65.0202 48.4261 65.3967 48.3693 65.7915 48.3693C66.0529 48.3693 66.3299 48.4006 66.6225 48.4631C66.918 48.5227 67.1935 48.6335 67.4492 48.7955C67.7077 48.9574 67.9194 49.1889 68.0842 49.4901C68.2489 49.7884 68.3313 50.1761 68.3313 50.6534V55H67.087V54.1051H67.0359C66.9535 54.2699 66.8299 54.4318 66.6651 54.5909C66.5004 54.75 66.2887 54.8821 66.0302 54.9872C65.7717 55.0923 65.462 55.1449 65.1012 55.1449ZM65.3782 54.1222C65.7305 54.1222 66.0316 54.0526 66.2816 53.9134C66.5344 53.7741 66.7262 53.5923 66.8569 53.3679C66.9904 53.1406 67.0572 52.8977 67.0572 52.6392V51.7955C67.0117 51.8409 66.9237 51.8835 66.793 51.9233C66.6651 51.9602 66.5188 51.9929 66.354 52.0213C66.1893 52.0469 66.0288 52.071 65.8725 52.0938C65.7163 52.1136 65.5856 52.1307 65.4805 52.1449C65.2333 52.1761 65.0075 52.2287 64.8029 52.3026C64.6012 52.3764 64.4393 52.483 64.3171 52.6222C64.1978 52.7585 64.1381 52.9403 64.1381 53.1676C64.1381 53.483 64.2546 53.7216 64.4876 53.8835C64.7205 54.0426 65.0174 54.1222 65.3782 54.1222ZM71.3026 46.2727V55H70.0284V46.2727H71.3026ZM83.5433 49.1108H82.2138C82.1626 48.8267 82.0675 48.5767 81.9283 48.3608C81.7891 48.1449 81.6186 47.9616 81.4169 47.8111C81.2152 47.6605 80.9893 47.5469 80.7393 47.4702C80.4922 47.3935 80.2294 47.3551 79.951 47.3551C79.4482 47.3551 78.9979 47.4815 78.6001 47.7344C78.2053 47.9872 77.8928 48.358 77.6626 48.8466C77.4354 49.3352 77.3217 49.9318 77.3217 50.6364C77.3217 51.3466 77.4354 51.946 77.6626 52.4347C77.8928 52.9233 78.2067 53.2926 78.6044 53.5426C79.0021 53.7926 79.4496 53.9176 79.9467 53.9176C80.2223 53.9176 80.4837 53.8807 80.7308 53.8068C80.9808 53.7301 81.2067 53.6179 81.4084 53.4702C81.6101 53.3224 81.7805 53.142 81.9197 52.929C82.0618 52.7131 82.1598 52.4659 82.2138 52.1875L83.5433 52.1918C83.4723 52.6207 83.3345 53.0156 83.13 53.3764C82.9283 53.7344 82.6683 54.044 82.3501 54.3054C82.0348 54.5639 81.674 54.7642 81.2678 54.9062C80.8615 55.0483 80.4183 55.1193 79.9382 55.1193C79.1825 55.1193 78.5092 54.9403 77.9183 54.5824C77.3274 54.2216 76.8615 53.706 76.5206 53.0355C76.1825 52.3651 76.0135 51.5653 76.0135 50.6364C76.0135 49.7045 76.1839 48.9048 76.5249 48.2372C76.8658 47.5668 77.3317 47.0526 77.9226 46.6946C78.5135 46.3338 79.1854 46.1534 79.9382 46.1534C80.4013 46.1534 80.8331 46.2202 81.2337 46.3537C81.6371 46.4844 81.9993 46.6776 82.3203 46.9332C82.6413 47.1861 82.907 47.4957 83.1172 47.8622C83.3274 48.2259 83.4695 48.642 83.5433 49.1108ZM87.7738 55.1321C87.1602 55.1321 86.6246 54.9915 86.1673 54.7102C85.7099 54.429 85.3548 54.0355 85.1019 53.5298C84.8491 53.0241 84.7227 52.4332 84.7227 51.7571C84.7227 51.0781 84.8491 50.4844 85.1019 49.9759C85.3548 49.4673 85.7099 49.0724 86.1673 48.7912C86.6246 48.5099 87.1602 48.3693 87.7738 48.3693C88.3874 48.3693 88.9229 48.5099 89.3803 48.7912C89.8377 49.0724 90.1928 49.4673 90.4457 49.9759C90.6985 50.4844 90.8249 51.0781 90.8249 51.7571C90.8249 52.4332 90.6985 53.0241 90.4457 53.5298C90.1928 54.0355 89.8377 54.429 89.3803 54.7102C88.9229 54.9915 88.3874 55.1321 87.7738 55.1321ZM87.7781 54.0625C88.1758 54.0625 88.5053 53.9574 88.7667 53.7472C89.0281 53.5369 89.2212 53.2571 89.3462 52.9077C89.4741 52.5582 89.538 52.1733 89.538 51.7528C89.538 51.3352 89.4741 50.9517 89.3462 50.6023C89.2212 50.25 89.0281 49.9673 88.7667 49.7543C88.5053 49.5412 88.1758 49.4347 87.7781 49.4347C87.3775 49.4347 87.0451 49.5412 86.7809 49.7543C86.5195 49.9673 86.3249 50.25 86.1971 50.6023C86.0721 50.9517 86.0096 51.3352 86.0096 51.7528C86.0096 52.1733 86.0721 52.5582 86.1971 52.9077C86.3249 53.2571 86.5195 53.5369 86.7809 53.7472C87.0451 53.9574 87.3775 54.0625 87.7781 54.0625ZM92.2472 55V48.4545H93.4787V49.4943H93.5469C93.6662 49.142 93.8764 48.8651 94.1776 48.6634C94.4815 48.4588 94.8253 48.3565 95.2088 48.3565C95.2884 48.3565 95.3821 48.3594 95.4901 48.3651C95.6009 48.3707 95.6875 48.3778 95.75 48.3864V49.6051C95.6989 49.5909 95.608 49.5753 95.4773 49.5582C95.3466 49.5384 95.2159 49.5284 95.0852 49.5284C94.7841 49.5284 94.5156 49.5923 94.2798 49.7202C94.0469 49.8452 93.8622 50.0199 93.7259 50.2443C93.5895 50.4659 93.5213 50.7187 93.5213 51.0028V55H92.2472ZM100.295 48.4545V49.4773H96.7195V48.4545H100.295ZM97.6783 46.8864H98.9524V53.0781C98.9524 53.3253 98.9893 53.5114 99.0632 53.6364C99.1371 53.7585 99.2322 53.8423 99.3487 53.8878C99.468 53.9304 99.5973 53.9517 99.7365 53.9517C99.8388 53.9517 99.9283 53.9446 100.005 53.9304C100.082 53.9162 100.141 53.9048 100.184 53.8963L100.414 54.9489C100.34 54.9773 100.235 55.0057 100.099 55.0341C99.9624 55.0653 99.7919 55.0824 99.5874 55.0852C99.2521 55.0909 98.9396 55.0312 98.6499 54.9062C98.3601 54.7812 98.1257 54.5881 97.9467 54.3267C97.7678 54.0653 97.6783 53.7372 97.6783 53.3423V46.8864ZM104.455 55.1321C103.81 55.1321 103.255 54.9943 102.789 54.7187C102.326 54.4403 101.968 54.0497 101.715 53.5469C101.465 53.0412 101.34 52.4489 101.34 51.7699C101.34 51.0994 101.465 50.5085 101.715 49.9972C101.968 49.4858 102.32 49.0866 102.772 48.7997C103.226 48.5128 103.757 48.3693 104.365 48.3693C104.735 48.3693 105.093 48.4304 105.439 48.5526C105.786 48.6747 106.097 48.8665 106.373 49.1278C106.648 49.3892 106.865 49.7287 107.025 50.1463C107.184 50.5611 107.263 51.0653 107.263 51.6591V52.1108H102.06V51.1562H106.015C106.015 50.821 105.946 50.5241 105.81 50.2656C105.674 50.0043 105.482 49.7983 105.235 49.6477C104.99 49.4972 104.703 49.4219 104.374 49.4219C104.016 49.4219 103.703 49.5099 103.436 49.6861C103.172 49.8594 102.968 50.0866 102.823 50.3679C102.681 50.6463 102.61 50.9489 102.61 51.2756V52.0213C102.61 52.4588 102.686 52.831 102.84 53.1378C102.996 53.4446 103.213 53.679 103.492 53.8409C103.77 54 104.096 54.0795 104.468 54.0795C104.709 54.0795 104.929 54.0455 105.128 53.9773C105.327 53.9062 105.499 53.8011 105.644 53.6619C105.789 53.5227 105.9 53.3509 105.976 53.1463L107.182 53.3636C107.086 53.7187 106.912 54.0298 106.662 54.2969C106.415 54.5611 106.104 54.767 105.729 54.9148C105.357 55.0597 104.932 55.1321 104.455 55.1321ZM109.53 48.4545L110.975 51.0028L112.432 48.4545H113.826L111.784 51.7273L113.843 55H112.449L110.975 52.554L109.505 55H108.107L110.144 51.7273L108.132 48.4545H109.53Z" fill="#1C1903"/>
<line x1="46.5" y1="80" x2="46.5" y2="255" stroke="black"/>
<line x1="46" y1="254.5" x2="299" y2="254.5" stroke="black"/>
<path d="M90 18H117" stroke="#9747FF" stroke-width="2" stroke-linecap="round"/>
<path d="M90 33H117" stroke="#FF0000" stroke-width="2" stroke-linecap="round" stroke-dasharray="4 4"/>
<path d="M123 50H150" stroke="#1C1903" stroke-width="2" stroke-linecap="round" stroke-dasharray="4 8"/>
</svg>
