<svg width="243" height="201" viewBox="0 0 243 201" fill="none" xmlns="http://www.w3.org/2000/svg">
<path d="M17.5673 188.805C17.5673 189.611 16.914 190.264 16.1081 190.264H8.86056C8.05467 190.264 7.40137 189.611 7.40137 188.805C7.40137 187.999 8.05467 187.346 8.86056 187.346H16.1081C16.914 187.346 17.5673 187.999 17.5673 188.805Z" fill="#EA5A47"/>
<path d="M17.8348 189.778C17.8348 192.464 15.4393 194.642 12.4843 194.642C9.5292 194.642 7.13379 192.464 7.13379 189.778" fill="#EA5A47"/>
<path d="M17.7009 189.778C17.6271 189.778 17.5672 189.718 17.5672 189.644V188.306C17.5672 187.775 17.1373 187.346 16.6069 187.346C16.0375 187.346 15.5972 187.84 15.5837 188.409C15.5439 190.08 14.9889 192.565 12.3951 194.276C12.2315 194.384 12.2883 194.641 12.4842 194.641C15.39 194.641 17.7546 192.536 17.8327 189.912C17.8349 189.838 17.7748 189.778 17.7009 189.778Z" fill="#D22F27"/>
<path d="M8.20389 200.235H16.7647M12.4843 194.642V200.235M12.4843 194.642C14.5656 194.642 16.3698 193.561 17.2542 191.983C17.6256 191.321 17.8348 190.572 17.8348 189.778V185.157M12.4843 194.642C9.5292 194.642 7.13379 192.464 7.13379 189.778V185.157" stroke="#1C1903" stroke-miterlimit="10" stroke-linecap="round" stroke-linejoin="round"/>
<path d="M7 187.467H17.701" stroke="#1C1903" stroke-miterlimit="10"/>
<path d="M57.5673 188.805C57.5673 189.611 56.914 190.264 56.1081 190.264H48.8606C48.0547 190.264 47.4014 189.611 47.4014 188.805C47.4014 187.999 48.0547 187.346 48.8606 187.346H56.1081C56.914 187.346 57.5673 187.999 57.5673 188.805Z" fill="#EA5A47"/>
<path d="M57.8348 189.778C57.8348 192.464 55.4393 194.642 52.4843 194.642C49.5292 194.642 47.1338 192.464 47.1338 189.778" fill="#EA5A47"/>
<path d="M57.7009 189.778C57.6271 189.778 57.5672 189.718 57.5672 189.644V188.306C57.5672 187.775 57.1373 187.346 56.6069 187.346C56.0375 187.346 55.5972 187.84 55.5837 188.409C55.5439 190.08 54.9889 192.565 52.3951 194.276C52.2315 194.384 52.2883 194.641 52.4842 194.641C55.39 194.641 57.7546 192.536 57.8327 189.912C57.8349 189.838 57.7748 189.778 57.7009 189.778Z" fill="#D22F27"/>
<path d="M48.2039 200.235H56.7647M52.4843 194.642V200.235M52.4843 194.642C54.5656 194.642 56.3698 193.561 57.2542 191.983C57.6256 191.321 57.8348 190.572 57.8348 189.778V185.157M52.4843 194.642C49.5292 194.642 47.1338 192.464 47.1338 189.778V185.157" stroke="#1C1903" stroke-miterlimit="10" stroke-linecap="round" stroke-linejoin="round"/>
<path d="M47 187.467H57.701" stroke="#1C1903" stroke-miterlimit="10"/>
<path d="M53.5673 188.805C53.5673 189.611 52.914 190.264 52.1081 190.264H44.8606C44.0547 190.264 43.4014 189.611 43.4014 188.805C43.4014 187.999 44.0547 187.346 44.8606 187.346H52.1081C52.914 187.346 53.5673 187.999 53.5673 188.805Z" fill="#EA5A47"/>
<path d="M53.8348 189.778C53.8348 192.464 51.4393 194.642 48.4843 194.642C45.5292 194.642 43.1338 192.464 43.1338 189.778" fill="#EA5A47"/>
<path d="M53.7009 189.778C53.6271 189.778 53.5672 189.718 53.5672 189.644V188.306C53.5672 187.775 53.1373 187.346 52.6069 187.346C52.0375 187.346 51.5972 187.84 51.5837 188.409C51.5439 190.08 50.9889 192.565 48.3951 194.276C48.2315 194.384 48.2883 194.641 48.4842 194.641C51.39 194.641 53.7546 192.536 53.8327 189.912C53.8349 189.838 53.7748 189.778 53.7009 189.778Z" fill="#D22F27"/>
<path d="M44.2039 200.235H52.7647M48.4843 194.642V200.235M48.4843 194.642C50.5656 194.642 52.3698 193.561 53.2542 191.983C53.6256 191.321 53.8348 190.572 53.8348 189.778V185.157M48.4843 194.642C45.5292 194.642 43.1338 192.464 43.1338 189.778V185.157" stroke="#1C1903" stroke-miterlimit="10" stroke-linecap="round" stroke-linejoin="round"/>
<path d="M43 187.467H53.701" stroke="#1C1903" stroke-miterlimit="10"/>
<path d="M150.567 188.805C150.567 189.611 149.914 190.264 149.108 190.264H141.861C141.055 190.264 140.401 189.611 140.401 188.805C140.401 187.999 141.055 187.346 141.861 187.346H149.108C149.914 187.346 150.567 187.999 150.567 188.805Z" fill="#EA5A47"/>
<path d="M150.835 189.778C150.835 192.464 148.439 194.642 145.484 194.642C142.529 194.642 140.134 192.464 140.134 189.778" fill="#EA5A47"/>
<path d="M150.701 189.778C150.627 189.778 150.567 189.718 150.567 189.644V188.306C150.567 187.775 150.137 187.346 149.607 187.346C149.037 187.346 148.597 187.84 148.584 188.409C148.544 190.08 147.989 192.565 145.395 194.276C145.231 194.384 145.288 194.641 145.484 194.641C148.39 194.641 150.755 192.536 150.833 189.912C150.835 189.838 150.775 189.778 150.701 189.778Z" fill="#D22F27"/>
<path d="M141.204 200.235H149.765M145.484 194.642V200.235M145.484 194.642C147.566 194.642 149.37 193.561 150.254 191.983C150.626 191.321 150.835 190.572 150.835 189.778V185.157M145.484 194.642C142.529 194.642 140.134 192.464 140.134 189.778V185.157" stroke="#1C1903" stroke-miterlimit="10" stroke-linecap="round" stroke-linejoin="round"/>
<path d="M140 187.467H150.701" stroke="#1C1903" stroke-miterlimit="10"/>
<path d="M146.567 188.805C146.567 189.611 145.914 190.264 145.108 190.264H137.861C137.055 190.264 136.401 189.611 136.401 188.805C136.401 187.999 137.055 187.346 137.861 187.346H145.108C145.914 187.346 146.567 187.999 146.567 188.805Z" fill="#EA5A47"/>
<path d="M146.835 189.778C146.835 192.464 144.439 194.642 141.484 194.642C138.529 194.642 136.134 192.464 136.134 189.778" fill="#EA5A47"/>
<path d="M146.701 189.778C146.627 189.778 146.567 189.718 146.567 189.644V188.306C146.567 187.775 146.137 187.346 145.607 187.346C145.037 187.346 144.597 187.84 144.584 188.409C144.544 190.08 143.989 192.565 141.395 194.276C141.231 194.384 141.288 194.641 141.484 194.641C144.39 194.641 146.755 192.536 146.833 189.912C146.835 189.838 146.775 189.778 146.701 189.778Z" fill="#D22F27"/>
<path d="M137.204 200.235H145.765M141.484 194.642V200.235M141.484 194.642C143.566 194.642 145.37 193.561 146.254 191.983C146.626 191.321 146.835 190.572 146.835 189.778V185.157M141.484 194.642C138.529 194.642 136.134 192.464 136.134 189.778V185.157" stroke="#1C1903" stroke-miterlimit="10" stroke-linecap="round" stroke-linejoin="round"/>
<path d="M136 187.467H146.701" stroke="#1C1903" stroke-miterlimit="10"/>
<path d="M142.567 188.805C142.567 189.611 141.914 190.264 141.108 190.264H133.861C133.055 190.264 132.401 189.611 132.401 188.805C132.401 187.999 133.055 187.346 133.861 187.346H141.108C141.914 187.346 142.567 187.999 142.567 188.805Z" fill="#EA5A47"/>
<path d="M142.835 189.778C142.835 192.464 140.439 194.642 137.484 194.642C134.529 194.642 132.134 192.464 132.134 189.778" fill="#EA5A47"/>
<path d="M142.701 189.778C142.627 189.778 142.567 189.718 142.567 189.644V188.306C142.567 187.775 142.137 187.346 141.607 187.346C141.037 187.346 140.597 187.84 140.584 188.409C140.544 190.08 139.989 192.565 137.395 194.276C137.231 194.384 137.288 194.641 137.484 194.641C140.39 194.641 142.755 192.536 142.833 189.912C142.835 189.838 142.775 189.778 142.701 189.778Z" fill="#D22F27"/>
<path d="M133.204 200.235H141.765M137.484 194.642V200.235M137.484 194.642C139.566 194.642 141.37 193.561 142.254 191.983C142.626 191.321 142.835 190.572 142.835 189.778V185.157M137.484 194.642C134.529 194.642 132.134 192.464 132.134 189.778V185.157" stroke="#1C1903" stroke-miterlimit="10" stroke-linecap="round" stroke-linejoin="round"/>
<path d="M132 187.467H142.701" stroke="#1C1903" stroke-miterlimit="10"/>
<path d="M137.567 188.805C137.567 189.611 136.914 190.264 136.108 190.264H128.861C128.055 190.264 127.401 189.611 127.401 188.805C127.401 187.999 128.055 187.346 128.861 187.346H136.108C136.914 187.346 137.567 187.999 137.567 188.805Z" fill="#EA5A47"/>
<path d="M137.835 189.778C137.835 192.464 135.439 194.642 132.484 194.642C129.529 194.642 127.134 192.464 127.134 189.778" fill="#EA5A47"/>
<path d="M137.701 189.778C137.627 189.778 137.567 189.718 137.567 189.644V188.306C137.567 187.775 137.137 187.346 136.607 187.346C136.037 187.346 135.597 187.84 135.584 188.409C135.544 190.08 134.989 192.565 132.395 194.276C132.231 194.384 132.288 194.641 132.484 194.641C135.39 194.641 137.755 192.536 137.833 189.912C137.835 189.838 137.775 189.778 137.701 189.778Z" fill="#D22F27"/>
<path d="M128.204 200.235H136.765M132.484 194.642V200.235M132.484 194.642C134.566 194.642 136.37 193.561 137.254 191.983C137.626 191.321 137.835 190.572 137.835 189.778V185.157M132.484 194.642C129.529 194.642 127.134 192.464 127.134 189.778V185.157" stroke="#1C1903" stroke-miterlimit="10" stroke-linecap="round" stroke-linejoin="round"/>
<path d="M127 187.467H137.701" stroke="#1C1903" stroke-miterlimit="10"/>
<path d="M1 91.1567C0.447715 91.1567 0 91.6045 0 92.1567C0 92.709 0.447715 93.1567 1 93.1567V91.1567ZM36.2742 92.1567L36.3286 91.1582L36.3014 91.1567H36.2742V92.1567ZM72.0522 94.1067L72.2724 93.1313L72.1905 93.1128L72.1066 93.1082L72.0522 94.1067ZM117.405 104.344L117.792 103.422L117.711 103.388L117.625 103.369L117.405 104.344ZM152.175 118.969L145.196 109.77L140.719 120.414L152.175 118.969ZM1 93.1567H3.20463V91.1567H1V93.1567ZM7.6139 93.1567H12.0232V91.1567H7.6139V93.1567ZM16.4324 93.1567H20.8417V91.1567H16.4324V93.1567ZM25.251 93.1567H29.6602V91.1567H25.251V93.1567ZM34.0695 93.1567H36.2742V91.1567H34.0695V93.1567ZM36.2197 93.1553L38.4559 93.2771L38.5647 91.2801L36.3286 91.1582L36.2197 93.1553ZM42.9281 93.5209L47.4004 93.7646L47.5092 91.7676L43.037 91.5238L42.9281 93.5209ZM51.8726 94.0084L56.3449 94.2521L56.4537 92.2551L51.9815 92.0113L51.8726 94.0084ZM60.8171 94.4959L65.2894 94.7396L65.3982 92.7426L60.926 92.4988L60.8171 94.4959ZM69.7617 94.9834L71.9978 95.1053L72.1066 93.1082L69.8705 92.9863L69.7617 94.9834ZM71.832 95.0822L73.7217 95.5088L74.1621 93.5578L72.2724 93.1313L71.832 95.0822ZM77.5011 96.3619L81.2805 97.215L81.7208 95.2641L77.9415 94.411L77.5011 96.3619ZM85.0598 98.0681L88.8392 98.9213L89.2796 96.9703L85.5002 96.1172L85.0598 98.0681ZM92.6186 99.7744L96.398 100.628L96.8383 98.6766L93.059 97.8235L92.6186 99.7744ZM100.177 101.481L103.957 102.334L104.397 100.383L100.618 99.5297L100.177 101.481ZM107.736 103.187L111.515 104.04L111.956 102.089L108.176 101.236L107.736 103.187ZM115.295 104.893L117.185 105.32L117.625 103.369L115.735 102.942L115.295 104.893ZM117.017 105.266L118.755 105.997L119.531 104.154L117.792 103.422L117.017 105.266ZM122.233 107.46L125.71 108.922L126.485 107.079L123.008 105.616L122.233 107.46ZM129.187 110.385L132.664 111.847L133.439 110.004L129.962 108.541L129.187 110.385ZM136.141 113.31L139.618 114.772L140.393 112.929L136.916 111.466L136.141 113.31ZM143.095 116.235L146.572 117.697L147.347 115.854L143.87 114.391L143.095 116.235Z" fill="#FF0000"/>
<path d="M173.135 22V13.2727H178.606V14.4062H174.451V17.0653H178.321V18.1946H174.451V20.8665H178.657V22H173.135ZM184.409 19.2855V15.4545H185.688V22H184.435V20.8665H184.366C184.216 21.2159 183.974 21.5071 183.642 21.7401C183.313 21.9702 182.902 22.0852 182.411 22.0852C181.99 22.0852 181.618 21.9929 181.294 21.8082C180.973 21.6207 180.72 21.3438 180.536 20.9773C180.354 20.6108 180.263 20.1577 180.263 19.6179V15.4545H181.537V19.4645C181.537 19.9105 181.661 20.2656 181.908 20.5298C182.155 20.794 182.476 20.9261 182.871 20.9261C183.109 20.9261 183.347 20.8665 183.582 20.7472C183.821 20.6278 184.018 20.4474 184.175 20.206C184.334 19.9645 184.412 19.6577 184.409 19.2855ZM187.4 24.4545V15.4545H188.644V16.5156H188.75C188.824 16.3793 188.931 16.2216 189.07 16.0426C189.209 15.8636 189.402 15.7074 189.65 15.5739C189.897 15.4375 190.223 15.3693 190.63 15.3693C191.158 15.3693 191.63 15.5028 192.044 15.7699C192.459 16.0369 192.784 16.4219 193.02 16.9247C193.259 17.4276 193.378 18.0327 193.378 18.7401C193.378 19.4474 193.26 20.054 193.025 20.5597C192.789 21.0625 192.465 21.4503 192.053 21.723C191.641 21.9929 191.171 22.1278 190.642 22.1278C190.245 22.1278 189.919 22.0611 189.667 21.9276C189.417 21.794 189.221 21.6378 189.078 21.4588C188.936 21.2798 188.827 21.1207 188.75 20.9815H188.674V24.4545H187.4ZM188.648 18.7273C188.648 19.1875 188.715 19.5909 188.848 19.9375C188.982 20.2841 189.175 20.5554 189.428 20.7514C189.681 20.9446 189.99 21.0412 190.357 21.0412C190.738 21.0412 191.056 20.9403 191.311 20.7386C191.567 20.5341 191.76 20.2571 191.891 19.9077C192.025 19.5582 192.091 19.1648 192.091 18.7273C192.091 18.2955 192.026 17.9077 191.895 17.5639C191.767 17.2202 191.574 16.9489 191.316 16.75C191.06 16.5511 190.74 16.4517 190.357 16.4517C189.988 16.4517 189.675 16.5469 189.419 16.7372C189.167 16.9276 188.975 17.1932 188.844 17.5341C188.713 17.875 188.648 18.2727 188.648 18.7273ZM196.08 18.1136V22H194.806V13.2727H196.063V16.5199H196.144C196.297 16.1676 196.532 15.8878 196.847 15.6804C197.162 15.473 197.574 15.3693 198.083 15.3693C198.532 15.3693 198.924 15.4616 199.259 15.6463C199.597 15.831 199.858 16.1065 200.043 16.473C200.23 16.8366 200.324 17.2912 200.324 17.8366V22H199.05V17.9901C199.05 17.5099 198.926 17.1378 198.679 16.8736C198.432 16.6065 198.088 16.473 197.648 16.473C197.347 16.473 197.077 16.5369 196.838 16.6648C196.603 16.7926 196.417 16.9801 196.28 17.2273C196.147 17.4716 196.08 17.767 196.08 18.1136ZM204.782 22.1321C204.168 22.1321 203.632 21.9915 203.175 21.7102C202.718 21.429 202.363 21.0355 202.11 20.5298C201.857 20.0241 201.73 19.4332 201.73 18.7571C201.73 18.0781 201.857 17.4844 202.11 16.9759C202.363 16.4673 202.718 16.0724 203.175 15.7912C203.632 15.5099 204.168 15.3693 204.782 15.3693C205.395 15.3693 205.931 15.5099 206.388 15.7912C206.846 16.0724 207.201 16.4673 207.453 16.9759C207.706 17.4844 207.833 18.0781 207.833 18.7571C207.833 19.4332 207.706 20.0241 207.453 20.5298C207.201 21.0355 206.846 21.429 206.388 21.7102C205.931 21.9915 205.395 22.1321 204.782 22.1321ZM204.786 21.0625C205.184 21.0625 205.513 20.9574 205.775 20.7472C206.036 20.5369 206.229 20.2571 206.354 19.9077C206.482 19.5582 206.546 19.1733 206.546 18.7528C206.546 18.3352 206.482 17.9517 206.354 17.6023C206.229 17.25 206.036 16.9673 205.775 16.7543C205.513 16.5412 205.184 16.4347 204.786 16.4347C204.385 16.4347 204.053 16.5412 203.789 16.7543C203.527 16.9673 203.333 17.25 203.205 17.6023C203.08 17.9517 203.017 18.3352 203.017 18.7528C203.017 19.1733 203.08 19.5582 203.205 19.9077C203.333 20.2571 203.527 20.5369 203.789 20.7472C204.053 20.9574 204.385 21.0625 204.786 21.0625ZM209.255 22V15.4545H210.487V16.4943H210.555C210.674 16.142 210.884 15.8651 211.185 15.6634C211.489 15.4588 211.833 15.3565 212.217 15.3565C212.296 15.3565 212.39 15.3594 212.498 15.3651C212.609 15.3707 212.695 15.3778 212.758 15.3864V16.6051C212.707 16.5909 212.616 16.5753 212.485 16.5582C212.354 16.5384 212.224 16.5284 212.093 16.5284C211.792 16.5284 211.523 16.5923 211.288 16.7202C211.055 16.8452 210.87 17.0199 210.734 17.2443C210.597 17.4659 210.529 17.7187 210.529 18.0028V22H209.255ZM213.86 22V15.4545H215.135V22H213.86ZM214.504 14.4446C214.282 14.4446 214.092 14.3707 213.933 14.223C213.777 14.0724 213.699 13.8935 213.699 13.6861C213.699 13.4759 213.777 13.2969 213.933 13.1491C214.092 12.9986 214.282 12.9233 214.504 12.9233C214.725 12.9233 214.914 12.9986 215.071 13.1491C215.23 13.2969 215.309 13.4759 215.309 13.6861C215.309 13.8935 215.23 14.0724 215.071 14.223C214.914 14.3707 214.725 14.4446 214.504 14.4446ZM218.754 22.1449C218.339 22.1449 217.964 22.0682 217.629 21.9148C217.293 21.7585 217.028 21.5327 216.832 21.2372C216.638 20.9418 216.542 20.5795 216.542 20.1506C216.542 19.7812 216.613 19.4773 216.755 19.2386C216.897 19 217.089 18.8111 217.33 18.6719C217.572 18.5327 217.842 18.4276 218.14 18.3565C218.438 18.2855 218.742 18.2315 219.052 18.1946C219.444 18.1491 219.762 18.1122 220.006 18.0838C220.251 18.0526 220.428 18.0028 220.539 17.9347C220.65 17.8665 220.705 17.7557 220.705 17.6023V17.5724C220.705 17.2003 220.6 16.9119 220.39 16.7074C220.183 16.5028 219.873 16.4006 219.461 16.4006C219.032 16.4006 218.694 16.4957 218.447 16.6861C218.202 16.8736 218.033 17.0824 217.94 17.3125L216.742 17.0398C216.884 16.642 217.092 16.321 217.364 16.0767C217.64 15.8295 217.957 15.6506 218.315 15.5398C218.673 15.4261 219.049 15.3693 219.444 15.3693C219.705 15.3693 219.982 15.4006 220.275 15.4631C220.57 15.5227 220.846 15.6335 221.102 15.7955C221.36 15.9574 221.572 16.1889 221.737 16.4901C221.901 16.7884 221.984 17.1761 221.984 17.6534V22H220.739V21.1051H220.688C220.606 21.2699 220.482 21.4318 220.317 21.5909C220.153 21.75 219.941 21.8821 219.683 21.9872C219.424 22.0923 219.114 22.1449 218.754 22.1449ZM219.031 21.1222C219.383 21.1222 219.684 21.0526 219.934 20.9134C220.187 20.7741 220.379 20.5923 220.509 20.3679C220.643 20.1406 220.71 19.8977 220.71 19.6392V18.7955C220.664 18.8409 220.576 18.8835 220.445 18.9233C220.317 18.9602 220.171 18.9929 220.006 19.0213C219.842 19.0469 219.681 19.071 219.525 19.0938C219.369 19.1136 219.238 19.1307 219.133 19.1449C218.886 19.1761 218.66 19.2287 218.455 19.3026C218.254 19.3764 218.092 19.483 217.969 19.6222C217.85 19.7585 217.79 19.9403 217.79 20.1676C217.79 20.483 217.907 20.7216 218.14 20.8835C218.373 21.0426 218.67 21.1222 219.031 21.1222Z" fill="#1C1903"/>
<path d="M171.102 89.5653C171.056 89.1619 170.869 88.8494 170.539 88.6278C170.21 88.4034 169.795 88.2912 169.295 88.2912C168.937 88.2912 168.627 88.348 168.366 88.4616C168.104 88.5724 167.901 88.7259 167.756 88.9219C167.614 89.1151 167.543 89.3352 167.543 89.5824C167.543 89.7898 167.592 89.9687 167.688 90.1193C167.788 90.2699 167.917 90.3963 168.076 90.4986C168.238 90.598 168.411 90.6818 168.596 90.75C168.781 90.8153 168.958 90.8693 169.129 90.9119L169.981 91.1335C170.259 91.2017 170.545 91.294 170.837 91.4105C171.13 91.527 171.401 91.6804 171.651 91.8707C171.901 92.0611 172.103 92.2969 172.256 92.5781C172.413 92.8594 172.491 93.196 172.491 93.5881C172.491 94.0824 172.363 94.5213 172.107 94.9048C171.854 95.2884 171.487 95.5909 171.004 95.8125C170.523 96.0341 169.942 96.1449 169.261 96.1449C168.607 96.1449 168.042 96.0412 167.565 95.8338C167.087 95.6264 166.714 95.3324 166.444 94.9517C166.174 94.5682 166.025 94.1136 165.996 93.5881H167.317C167.343 93.9034 167.445 94.1662 167.624 94.3764C167.806 94.5838 168.038 94.7386 168.319 94.8409C168.603 94.9403 168.914 94.9901 169.252 94.9901C169.624 94.9901 169.955 94.9318 170.245 94.8153C170.538 94.696 170.768 94.5312 170.935 94.321C171.103 94.108 171.187 93.8594 171.187 93.5753C171.187 93.3168 171.113 93.1051 170.965 92.9403C170.82 92.7756 170.623 92.6392 170.373 92.5312C170.126 92.4233 169.846 92.3281 169.533 92.2457L168.502 91.9645C167.803 91.7741 167.249 91.4943 166.84 91.125C166.434 90.7557 166.231 90.267 166.231 89.6591C166.231 89.1562 166.367 88.7173 166.64 88.3423C166.913 87.9673 167.282 87.6761 167.748 87.4688C168.214 87.2585 168.739 87.1534 169.325 87.1534C169.915 87.1534 170.437 87.2571 170.888 87.4645C171.343 87.6719 171.701 87.9574 171.962 88.321C172.224 88.6818 172.36 89.0966 172.371 89.5653H171.102ZM173.962 98.4545V89.4545H175.206V90.5156H175.313C175.387 90.3793 175.493 90.2216 175.632 90.0426C175.772 89.8636 175.965 89.7074 176.212 89.5739C176.459 89.4375 176.786 89.3693 177.192 89.3693C177.721 89.3693 178.192 89.5028 178.607 89.7699C179.022 90.0369 179.347 90.4219 179.583 90.9247C179.821 91.4276 179.941 92.0327 179.941 92.7401C179.941 93.4474 179.823 94.054 179.587 94.5597C179.351 95.0625 179.027 95.4503 178.615 95.723C178.203 95.9929 177.733 96.1278 177.205 96.1278C176.807 96.1278 176.482 96.0611 176.229 95.9276C175.979 95.794 175.783 95.6378 175.641 95.4588C175.499 95.2798 175.39 95.1207 175.313 94.9815H175.236V98.4545H173.962ZM175.211 92.7273C175.211 93.1875 175.277 93.5909 175.411 93.9375C175.544 94.2841 175.738 94.5554 175.99 94.7514C176.243 94.9446 176.553 95.0412 176.919 95.0412C177.3 95.0412 177.618 94.9403 177.874 94.7386C178.13 94.5341 178.323 94.2571 178.453 93.9077C178.587 93.5582 178.654 93.1648 178.654 92.7273C178.654 92.2955 178.588 91.9077 178.458 91.5639C178.33 91.2202 178.137 90.9489 177.878 90.75C177.623 90.5511 177.303 90.4517 176.919 90.4517C176.55 90.4517 176.238 90.5469 175.982 90.7372C175.729 90.9276 175.537 91.1932 175.407 91.5341C175.276 91.875 175.211 92.2727 175.211 92.7273ZM184.189 96.1321C183.544 96.1321 182.989 95.9943 182.523 95.7188C182.06 95.4403 181.702 95.0497 181.449 94.5469C181.199 94.0412 181.074 93.4489 181.074 92.7699C181.074 92.0994 181.199 91.5085 181.449 90.9972C181.702 90.4858 182.054 90.0866 182.506 89.7997C182.961 89.5128 183.492 89.3693 184.1 89.3693C184.469 89.3693 184.827 89.4304 185.174 89.5526C185.52 89.6747 185.831 89.8665 186.107 90.1278C186.382 90.3892 186.6 90.7287 186.759 91.1463C186.918 91.5611 186.998 92.0653 186.998 92.6591V93.1108H181.794V92.1562H185.749C185.749 91.821 185.681 91.5241 185.544 91.2656C185.408 91.0043 185.216 90.7983 184.969 90.6477C184.725 90.4972 184.438 90.4219 184.108 90.4219C183.75 90.4219 183.438 90.5099 183.171 90.6861C182.907 90.8594 182.702 91.0866 182.557 91.3679C182.415 91.6463 182.344 91.9489 182.344 92.2756V93.0213C182.344 93.4588 182.421 93.831 182.574 94.1378C182.73 94.4446 182.948 94.679 183.226 94.8409C183.505 95 183.83 95.0795 184.202 95.0795C184.444 95.0795 184.664 95.0455 184.863 94.9773C185.061 94.9062 185.233 94.8011 185.378 94.6619C185.523 94.5227 185.634 94.3509 185.711 94.1463L186.917 94.3636C186.82 94.7187 186.647 95.0298 186.397 95.2969C186.15 95.5611 185.838 95.767 185.463 95.9148C185.091 96.0597 184.667 96.1321 184.189 96.1321ZM191.232 96.1321C190.587 96.1321 190.032 95.9943 189.566 95.7188C189.103 95.4403 188.745 95.0497 188.492 94.5469C188.242 94.0412 188.117 93.4489 188.117 92.7699C188.117 92.0994 188.242 91.5085 188.492 90.9972C188.745 90.4858 189.097 90.0866 189.549 89.7997C190.004 89.5128 190.535 89.3693 191.143 89.3693C191.512 89.3693 191.87 89.4304 192.217 89.5526C192.563 89.6747 192.874 89.8665 193.15 90.1278C193.425 90.3892 193.643 90.7287 193.802 91.1463C193.961 91.5611 194.04 92.0653 194.04 92.6591V93.1108H188.837V92.1562H192.792C192.792 91.821 192.724 91.5241 192.587 91.2656C192.451 91.0043 192.259 90.7983 192.012 90.6477C191.768 90.4972 191.481 90.4219 191.151 90.4219C190.793 90.4219 190.481 90.5099 190.214 90.6861C189.95 90.8594 189.745 91.0866 189.6 91.3679C189.458 91.6463 189.387 91.9489 189.387 92.2756V93.0213C189.387 93.4588 189.464 93.831 189.617 94.1378C189.773 94.4446 189.991 94.679 190.269 94.8409C190.548 95 190.873 95.0795 191.245 95.0795C191.487 95.0795 191.707 95.0455 191.906 94.9773C192.104 94.9062 192.276 94.8011 192.421 94.6619C192.566 94.5227 192.677 94.3509 192.754 94.1463L193.96 94.3636C193.863 94.7187 193.69 95.0298 193.44 95.2969C193.192 95.5611 192.881 95.767 192.506 95.9148C192.134 96.0597 191.71 96.1321 191.232 96.1321ZM198.211 96.1321C197.578 96.1321 197.032 95.9886 196.575 95.7017C196.12 95.4119 195.771 95.0128 195.527 94.5043C195.282 93.9957 195.16 93.4134 195.16 92.7571C195.16 92.0923 195.285 91.5057 195.535 90.9972C195.785 90.4858 196.137 90.0866 196.592 89.7997C197.047 89.5128 197.582 89.3693 198.199 89.3693C198.696 89.3693 199.139 89.4616 199.528 89.6463C199.917 89.8281 200.231 90.0838 200.47 90.4134C200.711 90.7429 200.855 91.1278 200.9 91.5682H199.66C199.592 91.2614 199.436 90.9972 199.191 90.7756C198.95 90.554 198.626 90.4432 198.22 90.4432C197.865 90.4432 197.554 90.5369 197.287 90.7244C197.022 90.9091 196.816 91.1733 196.669 91.517C196.521 91.858 196.447 92.2614 196.447 92.7273C196.447 93.2045 196.52 93.6165 196.664 93.9631C196.809 94.3097 197.014 94.5781 197.278 94.7685C197.545 94.9588 197.859 95.054 198.22 95.054C198.461 95.054 198.68 95.0099 198.876 94.9219C199.075 94.831 199.241 94.7017 199.375 94.5341C199.511 94.3665 199.606 94.1648 199.66 93.929H200.9C200.855 94.3523 200.717 94.7301 200.487 95.0625C200.257 95.3949 199.949 95.6562 199.562 95.8466C199.179 96.0369 198.728 96.1321 198.211 96.1321ZM203.537 92.1136V96H202.263V87.2727H203.52V90.5199H203.601C203.754 90.1676 203.989 89.8878 204.304 89.6804C204.619 89.473 205.031 89.3693 205.54 89.3693C205.989 89.3693 206.381 89.4616 206.716 89.6463C207.054 89.831 207.315 90.1065 207.5 90.473C207.688 90.8366 207.781 91.2912 207.781 91.8366V96H206.507V91.9901C206.507 91.5099 206.384 91.1378 206.136 90.8736C205.889 90.6065 205.545 90.473 205.105 90.473C204.804 90.473 204.534 90.5369 204.295 90.6648C204.06 90.7926 203.874 90.9801 203.737 91.2273C203.604 91.4716 203.537 91.767 203.537 92.1136ZM215.197 96.1236C214.612 96.1236 214.108 96.017 213.684 95.804C213.264 95.5909 212.94 95.3011 212.713 94.9347C212.485 94.5653 212.372 94.1477 212.372 93.6818C212.372 93.3267 212.446 93.0114 212.593 92.7358C212.741 92.4574 212.947 92.2003 213.211 91.9645C213.475 91.7287 213.781 91.4915 214.127 91.2528L215.534 90.2599C215.772 90.1037 215.958 89.9389 216.092 89.7656C216.225 89.5895 216.292 89.3722 216.292 89.1136C216.292 88.9091 216.204 88.7131 216.028 88.5256C215.852 88.3381 215.616 88.2443 215.321 88.2443C215.116 88.2443 214.936 88.294 214.779 88.3935C214.626 88.4929 214.505 88.6207 214.417 88.777C214.332 88.9304 214.289 89.0923 214.289 89.2628C214.289 89.4616 214.343 89.6619 214.451 89.8636C214.562 90.0653 214.704 90.2741 214.877 90.4901C215.051 90.7031 215.233 90.9247 215.423 91.1548L219.475 96H218.035L214.681 92.0582C214.4 91.7259 214.139 91.4134 213.897 91.1207C213.656 90.8253 213.46 90.527 213.309 90.2259C213.162 89.9219 213.088 89.5938 213.088 89.2415C213.088 88.8409 213.179 88.4858 213.36 88.1761C213.545 87.8636 213.802 87.6193 214.132 87.4432C214.461 87.267 214.848 87.179 215.291 87.179C215.74 87.179 216.125 87.267 216.446 87.4432C216.77 87.6165 217.018 87.848 217.191 88.1378C217.368 88.4247 217.456 88.7386 217.456 89.0795C217.456 89.4943 217.352 89.8608 217.145 90.179C216.94 90.4943 216.657 90.7841 216.297 91.0483L214.545 92.3395C214.204 92.5895 213.967 92.8366 213.833 93.081C213.703 93.3224 213.637 93.5114 213.637 93.6477C213.637 93.8977 213.701 94.1293 213.829 94.3423C213.96 94.5554 214.142 94.7259 214.375 94.8537C214.61 94.9815 214.886 95.0455 215.201 95.0455C215.525 95.0455 215.841 94.9759 216.147 94.8366C216.457 94.6946 216.737 94.4915 216.987 94.2273C217.24 93.9631 217.44 93.6463 217.588 93.277C217.735 92.9077 217.809 92.4943 217.809 92.0369H218.96C218.96 92.5994 218.896 93.0753 218.768 93.4645C218.64 93.8509 218.485 94.1662 218.304 94.4105C218.125 94.652 217.956 94.8409 217.797 94.9773C217.745 95.0227 217.697 95.0682 217.652 95.1136C217.606 95.1591 217.558 95.2045 217.507 95.25C217.211 95.5483 216.853 95.7685 216.433 95.9105C216.015 96.0526 215.603 96.1236 215.197 96.1236ZM160.114 111.132C159.48 111.132 158.935 110.989 158.477 110.702C158.023 110.412 157.673 110.013 157.429 109.504C157.185 108.996 157.062 108.413 157.062 107.757C157.062 107.092 157.188 106.506 157.438 105.997C157.688 105.486 158.04 105.087 158.494 104.8C158.949 104.513 159.484 104.369 160.101 104.369C160.598 104.369 161.041 104.462 161.43 104.646C161.82 104.828 162.134 105.084 162.372 105.413C162.614 105.743 162.757 106.128 162.803 106.568H161.562C161.494 106.261 161.338 105.997 161.094 105.776C160.852 105.554 160.528 105.443 160.122 105.443C159.767 105.443 159.456 105.537 159.189 105.724C158.925 105.909 158.719 106.173 158.571 106.517C158.423 106.858 158.349 107.261 158.349 107.727C158.349 108.205 158.422 108.616 158.567 108.963C158.712 109.31 158.916 109.578 159.18 109.768C159.447 109.959 159.761 110.054 160.122 110.054C160.364 110.054 160.582 110.01 160.778 109.922C160.977 109.831 161.143 109.702 161.277 109.534C161.413 109.366 161.509 109.165 161.562 108.929H162.803C162.757 109.352 162.619 109.73 162.389 110.062C162.159 110.395 161.851 110.656 161.464 110.847C161.081 111.037 160.631 111.132 160.114 111.132ZM166.922 111.132C166.309 111.132 165.773 110.991 165.316 110.71C164.858 110.429 164.503 110.036 164.25 109.53C163.998 109.024 163.871 108.433 163.871 107.757C163.871 107.078 163.998 106.484 164.25 105.976C164.503 105.467 164.858 105.072 165.316 104.791C165.773 104.51 166.309 104.369 166.922 104.369C167.536 104.369 168.071 104.51 168.529 104.791C168.986 105.072 169.341 105.467 169.594 105.976C169.847 106.484 169.973 107.078 169.973 107.757C169.973 108.433 169.847 109.024 169.594 109.53C169.341 110.036 168.986 110.429 168.529 110.71C168.071 110.991 167.536 111.132 166.922 111.132ZM166.926 110.062C167.324 110.062 167.654 109.957 167.915 109.747C168.176 109.537 168.37 109.257 168.495 108.908C168.623 108.558 168.686 108.173 168.686 107.753C168.686 107.335 168.623 106.952 168.495 106.602C168.37 106.25 168.176 105.967 167.915 105.754C167.654 105.541 167.324 105.435 166.926 105.435C166.526 105.435 166.194 105.541 165.929 105.754C165.668 105.967 165.473 106.25 165.346 106.602C165.221 106.952 165.158 107.335 165.158 107.753C165.158 108.173 165.221 108.558 165.346 108.908C165.473 109.257 165.668 109.537 165.929 109.747C166.194 109.957 166.526 110.062 166.926 110.062ZM174.153 111.132C173.539 111.132 173.004 110.991 172.546 110.71C172.089 110.429 171.734 110.036 171.481 109.53C171.228 109.024 171.102 108.433 171.102 107.757C171.102 107.078 171.228 106.484 171.481 105.976C171.734 105.467 172.089 105.072 172.546 104.791C173.004 104.51 173.539 104.369 174.153 104.369C174.766 104.369 175.302 104.51 175.759 104.791C176.217 105.072 176.572 105.467 176.825 105.976C177.077 106.484 177.204 107.078 177.204 107.757C177.204 108.433 177.077 109.024 176.825 109.53C176.572 110.036 176.217 110.429 175.759 110.71C175.302 110.991 174.766 111.132 174.153 111.132ZM174.157 110.062C174.555 110.062 174.884 109.957 175.146 109.747C175.407 109.537 175.6 109.257 175.725 108.908C175.853 108.558 175.917 108.173 175.917 107.753C175.917 107.335 175.853 106.952 175.725 106.602C175.6 106.25 175.407 105.967 175.146 105.754C174.884 105.541 174.555 105.435 174.157 105.435C173.756 105.435 173.424 105.541 173.16 105.754C172.898 105.967 172.704 106.25 172.576 106.602C172.451 106.952 172.388 107.335 172.388 107.753C172.388 108.173 172.451 108.558 172.576 108.908C172.704 109.257 172.898 109.537 173.16 109.747C173.424 109.957 173.756 110.062 174.157 110.062ZM178.626 111V104.455H179.858V105.494H179.926C180.045 105.142 180.255 104.865 180.556 104.663C180.86 104.459 181.204 104.357 181.588 104.357C181.667 104.357 181.761 104.359 181.869 104.365C181.98 104.371 182.066 104.378 182.129 104.386V105.605C182.078 105.591 181.987 105.575 181.856 105.558C181.725 105.538 181.595 105.528 181.464 105.528C181.163 105.528 180.895 105.592 180.659 105.72C180.426 105.845 180.241 106.02 180.105 106.244C179.968 106.466 179.9 106.719 179.9 107.003V111H178.626ZM185.447 111.128C184.919 111.128 184.447 110.993 184.033 110.723C183.621 110.45 183.297 110.062 183.061 109.56C182.828 109.054 182.712 108.447 182.712 107.74C182.712 107.033 182.83 106.428 183.065 105.925C183.304 105.422 183.631 105.037 184.045 104.77C184.46 104.503 184.93 104.369 185.456 104.369C185.862 104.369 186.189 104.438 186.436 104.574C186.686 104.707 186.879 104.864 187.016 105.043C187.155 105.222 187.263 105.379 187.339 105.516H187.416V102.273H188.69V111H187.446V109.982H187.339C187.263 110.121 187.152 110.28 187.007 110.459C186.865 110.638 186.669 110.794 186.419 110.928C186.169 111.061 185.845 111.128 185.447 111.128ZM185.729 110.041C186.095 110.041 186.405 109.945 186.658 109.751C186.913 109.555 187.107 109.284 187.237 108.938C187.371 108.591 187.438 108.187 187.438 107.727C187.438 107.273 187.372 106.875 187.241 106.534C187.111 106.193 186.919 105.928 186.666 105.737C186.413 105.547 186.101 105.452 185.729 105.452C185.345 105.452 185.026 105.551 184.77 105.75C184.514 105.949 184.321 106.22 184.19 106.564C184.063 106.908 183.999 107.295 183.999 107.727C183.999 108.165 184.064 108.558 184.195 108.908C184.325 109.257 184.518 109.534 184.774 109.739C185.033 109.94 185.351 110.041 185.729 110.041ZM190.509 111V104.455H191.783V111H190.509ZM191.152 103.445C190.931 103.445 190.74 103.371 190.581 103.223C190.425 103.072 190.347 102.893 190.347 102.686C190.347 102.476 190.425 102.297 190.581 102.149C190.74 101.999 190.931 101.923 191.152 101.923C191.374 101.923 191.563 101.999 191.719 102.149C191.878 102.297 191.958 102.476 191.958 102.686C191.958 102.893 191.878 103.072 191.719 103.223C191.563 103.371 191.374 103.445 191.152 103.445ZM194.771 107.114V111H193.497V104.455H194.72V105.52H194.801C194.952 105.173 195.188 104.895 195.509 104.685C195.832 104.474 196.24 104.369 196.732 104.369C197.178 104.369 197.568 104.463 197.903 104.651C198.239 104.835 198.499 105.111 198.683 105.477C198.868 105.844 198.96 106.297 198.96 106.837V111H197.686V106.99C197.686 106.516 197.563 106.145 197.315 105.878C197.068 105.608 196.729 105.473 196.297 105.473C196.001 105.473 195.739 105.537 195.509 105.665C195.281 105.793 195.101 105.98 194.967 106.227C194.837 106.472 194.771 106.767 194.771 107.114ZM202.574 111.145C202.159 111.145 201.784 111.068 201.449 110.915C201.114 110.759 200.848 110.533 200.652 110.237C200.459 109.942 200.362 109.58 200.362 109.151C200.362 108.781 200.433 108.477 200.575 108.239C200.717 108 200.909 107.811 201.151 107.672C201.392 107.533 201.662 107.428 201.96 107.357C202.259 107.286 202.563 107.232 202.872 107.195C203.264 107.149 203.582 107.112 203.827 107.084C204.071 107.053 204.249 107.003 204.359 106.935C204.47 106.866 204.526 106.756 204.526 106.602V106.572C204.526 106.2 204.42 105.912 204.21 105.707C204.003 105.503 203.693 105.401 203.281 105.401C202.852 105.401 202.514 105.496 202.267 105.686C202.023 105.874 201.854 106.082 201.76 106.312L200.562 106.04C200.705 105.642 200.912 105.321 201.185 105.077C201.46 104.83 201.777 104.651 202.135 104.54C202.493 104.426 202.869 104.369 203.264 104.369C203.526 104.369 203.803 104.401 204.095 104.463C204.391 104.523 204.666 104.634 204.922 104.795C205.18 104.957 205.392 105.189 205.557 105.49C205.722 105.788 205.804 106.176 205.804 106.653V111H204.56V110.105H204.509C204.426 110.27 204.303 110.432 204.138 110.591C203.973 110.75 203.761 110.882 203.503 110.987C203.244 111.092 202.935 111.145 202.574 111.145ZM202.851 110.122C203.203 110.122 203.504 110.053 203.754 109.913C204.007 109.774 204.199 109.592 204.33 109.368C204.463 109.141 204.53 108.898 204.53 108.639V107.795C204.484 107.841 204.396 107.884 204.266 107.923C204.138 107.96 203.991 107.993 203.827 108.021C203.662 108.047 203.501 108.071 203.345 108.094C203.189 108.114 203.058 108.131 202.953 108.145C202.706 108.176 202.48 108.229 202.276 108.303C202.074 108.376 201.912 108.483 201.79 108.622C201.67 108.759 201.611 108.94 201.611 109.168C201.611 109.483 201.727 109.722 201.96 109.884C202.193 110.043 202.49 110.122 202.851 110.122ZM210.556 104.455V105.477H206.981V104.455H210.556ZM207.94 102.886H209.214V109.078C209.214 109.325 209.251 109.511 209.325 109.636C209.399 109.759 209.494 109.842 209.61 109.888C209.73 109.93 209.859 109.952 209.998 109.952C210.1 109.952 210.19 109.945 210.267 109.93C210.343 109.916 210.403 109.905 210.446 109.896L210.676 110.949C210.602 110.977 210.497 111.006 210.36 111.034C210.224 111.065 210.054 111.082 209.849 111.085C209.514 111.091 209.201 111.031 208.912 110.906C208.622 110.781 208.387 110.588 208.208 110.327C208.029 110.065 207.94 109.737 207.94 109.342V102.886ZM211.966 111V104.455H213.24V111H211.966ZM212.609 103.445C212.388 103.445 212.197 103.371 212.038 103.223C211.882 103.072 211.804 102.893 211.804 102.686C211.804 102.476 211.882 102.297 212.038 102.149C212.197 101.999 212.388 101.923 212.609 101.923C212.831 101.923 213.02 101.999 213.176 102.149C213.335 102.297 213.415 102.476 213.415 102.686C213.415 102.893 213.335 103.072 213.176 103.223C213.02 103.371 212.831 103.445 212.609 103.445ZM217.711 111.132C217.098 111.132 216.562 110.991 216.105 110.71C215.647 110.429 215.292 110.036 215.039 109.53C214.787 109.024 214.66 108.433 214.66 107.757C214.66 107.078 214.787 106.484 215.039 105.976C215.292 105.467 215.647 105.072 216.105 104.791C216.562 104.51 217.098 104.369 217.711 104.369C218.325 104.369 218.86 104.51 219.318 104.791C219.775 105.072 220.13 105.467 220.383 105.976C220.636 106.484 220.762 107.078 220.762 107.757C220.762 108.433 220.636 109.024 220.383 109.53C220.13 110.036 219.775 110.429 219.318 110.71C218.86 110.991 218.325 111.132 217.711 111.132ZM217.716 110.062C218.113 110.062 218.443 109.957 218.704 109.747C218.966 109.537 219.159 109.257 219.284 108.908C219.412 108.558 219.475 108.173 219.475 107.753C219.475 107.335 219.412 106.952 219.284 106.602C219.159 106.25 218.966 105.967 218.704 105.754C218.443 105.541 218.113 105.435 217.716 105.435C217.315 105.435 216.983 105.541 216.718 105.754C216.457 105.967 216.262 106.25 216.135 106.602C216.01 106.952 215.947 107.335 215.947 107.753C215.947 108.173 216.01 108.558 216.135 108.908C216.262 109.257 216.457 109.537 216.718 109.747C216.983 109.957 217.315 110.062 217.716 110.062ZM223.459 107.114V111H222.185V104.455H223.408V105.52H223.489C223.639 105.173 223.875 104.895 224.196 104.685C224.52 104.474 224.928 104.369 225.419 104.369C225.865 104.369 226.256 104.463 226.591 104.651C226.926 104.835 227.186 105.111 227.371 105.477C227.555 105.844 227.648 106.297 227.648 106.837V111H226.374V106.99C226.374 106.516 226.25 106.145 226.003 105.878C225.756 105.608 225.416 105.473 224.984 105.473C224.689 105.473 224.426 105.537 224.196 105.665C223.969 105.793 223.788 105.98 223.655 106.227C223.524 106.472 223.459 106.767 223.459 107.114Z" fill="#1C1903"/>
<path d="M115.034 148.157H112.209V139.429H115.124C115.979 139.429 116.713 139.604 117.327 139.954C117.94 140.3 118.411 140.799 118.737 141.449C119.067 142.097 119.232 142.874 119.232 143.78C119.232 144.689 119.065 145.471 118.733 146.124C118.403 146.777 117.926 147.28 117.301 147.633C116.676 147.982 115.92 148.157 115.034 148.157ZM113.526 147.006H114.962C115.626 147.006 116.179 146.881 116.619 146.631C117.06 146.378 117.389 146.013 117.608 145.536C117.827 145.056 117.936 144.471 117.936 143.78C117.936 143.096 117.827 142.515 117.608 142.037C117.392 141.56 117.07 141.198 116.641 140.951C116.212 140.704 115.679 140.58 115.043 140.58H113.526V147.006ZM123.588 148.289C122.943 148.289 122.387 148.151 121.922 147.875C121.458 147.597 121.1 147.206 120.848 146.704C120.598 146.198 120.473 145.606 120.473 144.927C120.473 144.256 120.598 143.665 120.848 143.154C121.1 142.643 121.453 142.243 121.904 141.956C122.359 141.67 122.89 141.526 123.498 141.526C123.868 141.526 124.225 141.587 124.572 141.709C124.919 141.831 125.23 142.023 125.505 142.285C125.781 142.546 125.998 142.885 126.157 143.303C126.316 143.718 126.396 144.222 126.396 144.816V145.268H121.193V144.313H125.147C125.147 143.978 125.079 143.681 124.943 143.422C124.806 143.161 124.615 142.955 124.368 142.804C124.123 142.654 123.836 142.579 123.507 142.579C123.149 142.579 122.836 142.667 122.569 142.843C122.305 143.016 122.1 143.243 121.956 143.525C121.814 143.803 121.743 144.106 121.743 144.432V145.178C121.743 145.616 121.819 145.988 121.973 146.295C122.129 146.601 122.346 146.836 122.625 146.998C122.903 147.157 123.228 147.236 123.6 147.236C123.842 147.236 124.062 147.202 124.261 147.134C124.46 147.063 124.632 146.958 124.777 146.819C124.922 146.679 125.032 146.508 125.109 146.303L126.315 146.52C126.218 146.875 126.045 147.187 125.795 147.454C125.548 147.718 125.237 147.924 124.862 148.072C124.49 148.216 124.065 148.289 123.588 148.289ZM130.567 148.289C129.933 148.289 129.388 148.145 128.93 147.858C128.476 147.569 128.126 147.17 127.882 146.661C127.638 146.152 127.516 145.57 127.516 144.914C127.516 144.249 127.641 143.662 127.891 143.154C128.141 142.643 128.493 142.243 128.947 141.956C129.402 141.67 129.938 141.526 130.554 141.526C131.051 141.526 131.494 141.618 131.884 141.803C132.273 141.985 132.587 142.241 132.825 142.57C133.067 142.9 133.21 143.285 133.256 143.725H132.016C131.947 143.418 131.791 143.154 131.547 142.932C131.305 142.711 130.982 142.6 130.575 142.6C130.22 142.6 129.909 142.694 129.642 142.881C129.378 143.066 129.172 143.33 129.024 143.674C128.876 144.015 128.803 144.418 128.803 144.884C128.803 145.361 128.875 145.773 129.02 146.12C129.165 146.466 129.369 146.735 129.634 146.925C129.901 147.116 130.214 147.211 130.575 147.211C130.817 147.211 131.036 147.167 131.232 147.079C131.43 146.988 131.597 146.858 131.73 146.691C131.866 146.523 131.962 146.322 132.016 146.086H133.256C133.21 146.509 133.072 146.887 132.842 147.219C132.612 147.552 132.304 147.813 131.918 148.003C131.534 148.194 131.084 148.289 130.567 148.289ZM134.618 148.157V141.611H135.892V148.157H134.618ZM135.262 140.601C135.04 140.601 134.85 140.527 134.691 140.38C134.534 140.229 134.456 140.05 134.456 139.843C134.456 139.633 134.534 139.454 134.691 139.306C134.85 139.155 135.04 139.08 135.262 139.08C135.483 139.08 135.672 139.155 135.828 139.306C135.988 139.454 136.067 139.633 136.067 139.843C136.067 140.05 135.988 140.229 135.828 140.38C135.672 140.527 135.483 140.601 135.262 140.601ZM142.511 143.209L141.357 143.414C141.308 143.266 141.232 143.125 141.126 142.992C141.024 142.858 140.885 142.749 140.709 142.664C140.533 142.579 140.313 142.536 140.048 142.536C139.688 142.536 139.386 142.617 139.145 142.779C138.903 142.938 138.783 143.144 138.783 143.397C138.783 143.616 138.864 143.792 139.026 143.925C139.188 144.059 139.449 144.168 139.81 144.253L140.849 144.492C141.452 144.631 141.901 144.846 142.196 145.135C142.491 145.425 142.639 145.802 142.639 146.265C142.639 146.657 142.526 147.006 142.298 147.313C142.074 147.617 141.76 147.856 141.357 148.029C140.956 148.202 140.491 148.289 139.963 148.289C139.23 148.289 138.632 148.133 138.169 147.82C137.706 147.505 137.422 147.057 137.317 146.478L138.548 146.29C138.625 146.611 138.783 146.854 139.021 147.019C139.26 147.181 139.571 147.262 139.955 147.262C140.372 147.262 140.706 147.175 140.956 147.002C141.206 146.826 141.331 146.611 141.331 146.358C141.331 146.154 141.254 145.982 141.101 145.843C140.95 145.704 140.719 145.598 140.406 145.527L139.298 145.285C138.688 145.145 138.236 144.924 137.943 144.62C137.653 144.316 137.509 143.931 137.509 143.465C137.509 143.079 137.616 142.741 137.832 142.451C138.048 142.161 138.347 141.935 138.727 141.773C139.108 141.608 139.544 141.526 140.036 141.526C140.743 141.526 141.3 141.679 141.706 141.986C142.112 142.29 142.381 142.698 142.511 143.209ZM144.04 148.157V141.611H145.314V148.157H144.04ZM144.684 140.601C144.462 140.601 144.272 140.527 144.113 140.38C143.956 140.229 143.878 140.05 143.878 139.843C143.878 139.633 143.956 139.454 144.113 139.306C144.272 139.155 144.462 139.08 144.684 139.08C144.905 139.08 145.094 139.155 145.25 139.306C145.409 139.454 145.489 139.633 145.489 139.843C145.489 140.05 145.409 140.229 145.25 140.38C145.094 140.527 144.905 140.601 144.684 140.601ZM149.786 148.289C149.172 148.289 148.636 148.148 148.179 147.867C147.722 147.586 147.366 147.192 147.114 146.687C146.861 146.181 146.734 145.59 146.734 144.914C146.734 144.235 146.861 143.641 147.114 143.133C147.366 142.624 147.722 142.229 148.179 141.948C148.636 141.667 149.172 141.526 149.786 141.526C150.399 141.526 150.935 141.667 151.392 141.948C151.849 142.229 152.205 142.624 152.457 143.133C152.71 143.641 152.837 144.235 152.837 144.914C152.837 145.59 152.71 146.181 152.457 146.687C152.205 147.192 151.849 147.586 151.392 147.867C150.935 148.148 150.399 148.289 149.786 148.289ZM149.79 147.219C150.188 147.219 150.517 147.114 150.778 146.904C151.04 146.694 151.233 146.414 151.358 146.064C151.486 145.715 151.55 145.33 151.55 144.91C151.55 144.492 151.486 144.108 151.358 143.759C151.233 143.407 151.04 143.124 150.778 142.911C150.517 142.698 150.188 142.591 149.79 142.591C149.389 142.591 149.057 142.698 148.793 142.911C148.531 143.124 148.337 143.407 148.209 143.759C148.084 144.108 148.021 144.492 148.021 144.91C148.021 145.33 148.084 145.715 148.209 146.064C148.337 146.414 148.531 146.694 148.793 146.904C149.057 147.114 149.389 147.219 149.79 147.219ZM155.533 144.27V148.157H154.259V141.611H155.482V142.677H155.563C155.713 142.33 155.949 142.052 156.27 141.841C156.594 141.631 157.002 141.526 157.493 141.526C157.939 141.526 158.33 141.62 158.665 141.807C159 141.992 159.26 142.268 159.445 142.634C159.63 143 159.722 143.454 159.722 143.993V148.157H158.448V144.147C158.448 143.672 158.324 143.302 158.077 143.035C157.83 142.765 157.49 142.63 157.059 142.63C156.763 142.63 156.5 142.694 156.27 142.822C156.043 142.949 155.863 143.137 155.729 143.384C155.598 143.628 155.533 143.924 155.533 144.27ZM117.515 163.157V156.611H118.738V157.677H118.819C118.955 157.316 119.178 157.035 119.488 156.833C119.797 156.628 120.168 156.526 120.6 156.526C121.037 156.526 121.404 156.628 121.699 156.833C121.998 157.037 122.218 157.319 122.36 157.677H122.428C122.584 157.327 122.833 157.049 123.174 156.841C123.515 156.631 123.921 156.526 124.393 156.526C124.986 156.526 125.471 156.712 125.846 157.084C126.224 157.456 126.412 158.018 126.412 158.768V163.157H125.138V158.887C125.138 158.444 125.018 158.123 124.776 157.924C124.535 157.725 124.246 157.625 123.911 157.625C123.496 157.625 123.174 157.753 122.944 158.009C122.714 158.262 122.599 158.587 122.599 158.985V163.157H121.329V158.806C121.329 158.451 121.218 158.165 120.996 157.949C120.775 157.733 120.486 157.625 120.131 157.625C119.89 157.625 119.667 157.689 119.462 157.817C119.26 157.942 119.097 158.117 118.972 158.341C118.85 158.566 118.789 158.826 118.789 159.121V163.157H117.515ZM130.025 163.302C129.61 163.302 129.235 163.225 128.9 163.072C128.565 162.915 128.299 162.689 128.103 162.394C127.91 162.098 127.813 161.736 127.813 161.307C127.813 160.938 127.884 160.634 128.026 160.395C128.169 160.157 128.36 159.968 128.602 159.829C128.843 159.689 129.113 159.584 129.411 159.513C129.71 159.442 130.014 159.388 130.323 159.351C130.715 159.306 131.034 159.269 131.278 159.241C131.522 159.209 131.7 159.16 131.811 159.091C131.921 159.023 131.977 158.912 131.977 158.759V158.729C131.977 158.357 131.872 158.069 131.661 157.864C131.454 157.66 131.144 157.557 130.732 157.557C130.303 157.557 129.965 157.652 129.718 157.843C129.474 158.03 129.305 158.239 129.211 158.469L128.014 158.197C128.156 157.799 128.363 157.478 128.636 157.233C128.911 156.986 129.228 156.807 129.586 156.697C129.944 156.583 130.32 156.526 130.715 156.526C130.977 156.526 131.254 156.557 131.546 156.62C131.842 156.679 132.117 156.79 132.373 156.952C132.632 157.114 132.843 157.346 133.008 157.647C133.173 157.945 133.255 158.333 133.255 158.81V163.157H132.011V162.262H131.96C131.877 162.427 131.754 162.589 131.589 162.748C131.424 162.907 131.213 163.039 130.954 163.144C130.695 163.249 130.386 163.302 130.025 163.302ZM130.302 162.279C130.654 162.279 130.955 162.209 131.205 162.07C131.458 161.931 131.65 161.749 131.781 161.525C131.914 161.297 131.981 161.054 131.981 160.796V159.952C131.936 159.998 131.847 160.04 131.717 160.08C131.589 160.117 131.443 160.15 131.278 160.178C131.113 160.204 130.953 160.228 130.796 160.25C130.64 160.27 130.509 160.287 130.404 160.302C130.157 160.333 129.931 160.385 129.727 160.459C129.525 160.533 129.363 160.64 129.241 160.779C129.122 160.915 129.062 161.097 129.062 161.324C129.062 161.64 129.178 161.878 129.411 162.04C129.644 162.199 129.941 162.279 130.302 162.279ZM136.124 160.937L136.116 159.381H136.337L138.945 156.611H140.471L137.496 159.765H137.296L136.124 160.937ZM134.952 163.157V154.429H136.226V163.157H134.952ZM139.086 163.157L136.742 160.046L137.62 159.155L140.65 163.157H139.086ZM141.632 163.157V156.611H142.906V163.157H141.632ZM142.275 155.601C142.054 155.601 141.863 155.527 141.704 155.38C141.548 155.229 141.47 155.05 141.47 154.843C141.47 154.633 141.548 154.454 141.704 154.306C141.863 154.155 142.054 154.08 142.275 154.08C142.497 154.08 142.686 154.155 142.842 154.306C143.001 154.454 143.081 154.633 143.081 154.843C143.081 155.05 143.001 155.229 142.842 155.38C142.686 155.527 142.497 155.601 142.275 155.601ZM145.894 159.27V163.157H144.62V156.611H145.843V157.677H145.924C146.075 157.33 146.311 157.052 146.632 156.841C146.955 156.631 147.363 156.526 147.855 156.526C148.301 156.526 148.691 156.62 149.026 156.807C149.362 156.992 149.622 157.268 149.806 157.634C149.991 158 150.083 158.454 150.083 158.993V163.157H148.809V159.147C148.809 158.672 148.686 158.302 148.438 158.035C148.191 157.765 147.852 157.63 147.42 157.63C147.124 157.63 146.862 157.694 146.632 157.822C146.404 157.949 146.224 158.137 146.09 158.384C145.96 158.628 145.894 158.924 145.894 159.27ZM154.536 165.748C154.017 165.748 153.569 165.679 153.194 165.543C152.822 165.407 152.518 165.226 152.282 165.002C152.046 164.777 151.87 164.532 151.754 164.265L152.849 163.813C152.926 163.938 153.028 164.07 153.156 164.209C153.286 164.351 153.463 164.472 153.684 164.572C153.909 164.671 154.197 164.721 154.549 164.721C155.032 164.721 155.431 164.603 155.747 164.367C156.062 164.134 156.22 163.762 156.22 163.25V161.964H156.139C156.062 162.103 155.951 162.258 155.806 162.428C155.664 162.598 155.468 162.746 155.218 162.871C154.968 162.996 154.643 163.059 154.242 163.059C153.725 163.059 153.259 162.938 152.845 162.697C152.433 162.452 152.106 162.093 151.865 161.618C151.626 161.141 151.507 160.554 151.507 159.858C151.507 159.162 151.624 158.566 151.86 158.069C152.099 157.572 152.426 157.191 152.84 156.927C153.255 156.66 153.725 156.526 154.251 156.526C154.657 156.526 154.985 156.594 155.235 156.731C155.485 156.864 155.68 157.02 155.819 157.199C155.961 157.378 156.07 157.536 156.147 157.672H156.241V156.611H157.49V163.302C157.49 163.864 157.359 164.326 157.097 164.687C156.836 165.047 156.482 165.314 156.036 165.488C155.593 165.661 155.093 165.748 154.536 165.748ZM154.524 162.002C154.89 162.002 155.2 161.917 155.453 161.746C155.708 161.573 155.901 161.326 156.032 161.005C156.166 160.681 156.232 160.293 156.232 159.841C156.232 159.401 156.167 159.013 156.036 158.678C155.906 158.343 155.714 158.081 155.461 157.894C155.208 157.704 154.896 157.608 154.524 157.608C154.14 157.608 153.82 157.708 153.565 157.907C153.309 158.103 153.116 158.37 152.985 158.708C152.857 159.046 152.794 159.424 152.794 159.841C152.794 160.27 152.859 160.647 152.99 160.971C153.12 161.295 153.313 161.547 153.569 161.729C153.828 161.911 154.146 162.002 154.524 162.002Z" fill="#1C1903"/>
<path d="M101.567 188.805C101.567 189.611 100.914 190.264 100.108 190.264H92.8606C92.0547 190.264 91.4014 189.611 91.4014 188.805C91.4014 187.999 92.0547 187.346 92.8606 187.346H100.108C100.914 187.346 101.567 187.999 101.567 188.805Z" fill="#EA5A47"/>
<path d="M101.835 189.778C101.835 192.464 99.4393 194.642 96.4843 194.642C93.5292 194.642 91.1338 192.464 91.1338 189.778" fill="#EA5A47"/>
<path d="M101.701 189.778C101.627 189.778 101.567 189.718 101.567 189.644V188.306C101.567 187.775 101.137 187.346 100.607 187.346C100.037 187.346 99.5972 187.84 99.5837 188.409C99.5439 190.08 98.9889 192.565 96.3951 194.276C96.2315 194.384 96.2883 194.641 96.4842 194.641C99.39 194.641 101.755 192.536 101.833 189.912C101.835 189.838 101.775 189.778 101.701 189.778Z" fill="#D22F27"/>
<path d="M92.2039 200.235H100.765M96.4843 194.642V200.235M96.4843 194.642C98.5656 194.642 100.37 193.561 101.254 191.983C101.626 191.321 101.835 190.572 101.835 189.778V185.157M96.4843 194.642C93.5292 194.642 91.1338 192.464 91.1338 189.778V185.157" stroke="#1C1903" stroke-miterlimit="10" stroke-linecap="round" stroke-linejoin="round"/>
<path d="M91 187.467H101.701" stroke="#1C1903" stroke-miterlimit="10"/>
<path d="M97.5673 188.805C97.5673 189.611 96.914 190.264 96.1081 190.264H88.8606C88.0547 190.264 87.4014 189.611 87.4014 188.805C87.4014 187.999 88.0547 187.346 88.8606 187.346H96.1081C96.914 187.346 97.5673 187.999 97.5673 188.805Z" fill="#EA5A47"/>
<path d="M97.8348 189.778C97.8348 192.464 95.4393 194.642 92.4843 194.642C89.5292 194.642 87.1338 192.464 87.1338 189.778" fill="#EA5A47"/>
<path d="M97.7009 189.778C97.6271 189.778 97.5672 189.718 97.5672 189.644V188.306C97.5672 187.775 97.1373 187.346 96.6069 187.346C96.0375 187.346 95.5972 187.84 95.5837 188.409C95.5439 190.08 94.9889 192.565 92.3951 194.276C92.2315 194.384 92.2883 194.641 92.4842 194.641C95.39 194.641 97.7546 192.536 97.8327 189.912C97.8349 189.838 97.7748 189.778 97.7009 189.778Z" fill="#D22F27"/>
<path d="M88.2039 200.235H96.7647M92.4843 194.642V200.235M92.4843 194.642C94.5656 194.642 96.3698 193.561 97.2542 191.983C97.6256 191.321 97.8348 190.572 97.8348 189.778V185.157M92.4843 194.642C89.5292 194.642 87.1338 192.464 87.1338 189.778V185.157" stroke="#1C1903" stroke-miterlimit="10" stroke-linecap="round" stroke-linejoin="round"/>
<path d="M87 187.467H97.701" stroke="#1C1903" stroke-miterlimit="10"/>
<path d="M93.5673 188.805C93.5673 189.611 92.914 190.264 92.1081 190.264H84.8606C84.0547 190.264 83.4014 189.611 83.4014 188.805C83.4014 187.999 84.0547 187.346 84.8606 187.346H92.1081C92.914 187.346 93.5673 187.999 93.5673 188.805Z" fill="#EA5A47"/>
<path d="M93.8348 189.778C93.8348 192.464 91.4393 194.642 88.4843 194.642C85.5292 194.642 83.1338 192.464 83.1338 189.778" fill="#EA5A47"/>
<path d="M93.7009 189.778C93.6271 189.778 93.5672 189.718 93.5672 189.644V188.306C93.5672 187.775 93.1373 187.346 92.6069 187.346C92.0375 187.346 91.5972 187.84 91.5837 188.409C91.5439 190.08 90.9889 192.565 88.3951 194.276C88.2315 194.384 88.2883 194.641 88.4842 194.641C91.39 194.641 93.7546 192.536 93.8327 189.912C93.8349 189.838 93.7748 189.778 93.7009 189.778Z" fill="#D22F27"/>
<path d="M84.2039 200.235H92.7647M88.4843 194.642V200.235M88.4843 194.642C90.5656 194.642 92.3698 193.561 93.2542 191.983C93.6256 191.321 93.8348 190.572 93.8348 189.778V185.157M88.4843 194.642C85.5292 194.642 83.1338 192.464 83.1338 189.778V185.157" stroke="#1C1903" stroke-miterlimit="10" stroke-linecap="round" stroke-linejoin="round"/>
<path d="M83 187.467H93.701" stroke="#1C1903" stroke-miterlimit="10"/>
<path d="M1 94.1567C0.447715 94.1567 0 94.6044 0 95.1567C0 95.709 0.447715 96.1567 1 96.1567V94.1567ZM39.4005 95.1567V96.1567H39.5456L39.6846 96.1155L39.4005 95.1567ZM81.292 82.7429L81.5761 83.7017L81.6597 83.677L81.7377 83.6381L81.292 82.7429ZM138.145 54.4395L137.802 53.5L137.749 53.5192L137.699 53.5443L138.145 54.4395ZM173.553 41.5291L162.18 39.5305L166.136 50.3789L173.553 41.5291ZM1 96.1567H39.4005V94.1567H1V96.1567ZM39.6846 96.1155L81.5761 83.7017L81.0079 81.7841L39.1164 94.1979L39.6846 96.1155ZM81.7377 83.6381L138.59 55.3347L137.699 53.5443L80.8463 81.8477L81.7377 83.6381ZM138.487 55.379L165.44 45.5516L164.755 43.6726L137.802 53.5L138.487 55.379Z" fill="#D4AA01"/>
<path d="M1 96.6567C0.447715 96.6567 0 97.1045 0 97.6567C0 98.209 0.447715 98.6567 1 98.6567V96.6567ZM39 97.6567L39.2666 96.6929L39.1357 96.6567H39V97.6567ZM62.5 104.157L62.7762 103.196L62.7666 103.193L62.5 104.157ZM106 116.657L105.724 117.618L105.743 117.623L105.763 117.628L106 116.657ZM151 127.657L142.657 119.674L139.915 130.891L151 127.657ZM1 98.6567H2.35714V96.6567H1V98.6567ZM7.78571 98.6567H18.6429V96.6567H7.78571V98.6567ZM21.3571 98.6567H26.7857V96.6567H21.3571V98.6567ZM37.6429 98.6567H39V96.6567H37.6429V98.6567ZM38.7334 98.6205L39.5727 98.8527L40.1059 96.9251L39.2666 96.6929L38.7334 98.6205ZM42.9298 99.7813L49.6441 101.638L50.1773 99.7108L43.463 97.8536L42.9298 99.7813ZM51.3227 102.103L54.6798 103.031L55.213 101.104L51.8559 100.175L51.3227 102.103ZM61.3941 104.888L62.2334 105.121L62.7666 103.193L61.9273 102.961L61.3941 104.888ZM62.2238 105.118L63.0006 105.341L63.553 103.419L62.7762 103.196L62.2238 105.118ZM66.1077 106.234L72.322 108.02L72.8744 106.097L66.6601 104.312L66.1077 106.234ZM73.8756 108.466L76.9827 109.359L77.5351 107.437L74.428 106.544L73.8756 108.466ZM83.197 111.145L84.7506 111.591L85.303 109.669L83.7494 109.222L83.197 111.145ZM87.8577 112.484L94.072 114.27L94.6244 112.347L88.4101 110.562L87.8577 112.484ZM95.6256 114.716L98.7327 115.609L99.2851 113.687L96.178 112.794L95.6256 114.716ZM104.947 117.395L105.724 117.618L106.276 115.696L105.499 115.472L104.947 117.395ZM105.763 117.628L106.566 117.825L107.041 115.882L106.237 115.685L105.763 117.628ZM109.78 118.61L116.209 120.182L116.684 118.239L110.255 116.667L109.78 118.61ZM117.816 120.575L121.03 121.36L121.505 119.417L118.291 118.632L117.816 120.575ZM127.459 122.932L129.066 123.325L129.541 121.382L127.934 120.989L127.459 122.932ZM132.28 124.11L138.709 125.682L139.184 123.739L132.755 122.167L132.28 124.11ZM140.316 126.075L143.53 126.86L144.005 124.917L140.791 124.132L140.316 126.075Z" fill="black"/>
</svg>
