<svg width="243" height="201" viewBox="0 0 243 201" fill="none" xmlns="http://www.w3.org/2000/svg">
<path d="M17.5673 188.883C17.5673 189.689 16.914 190.342 16.1081 190.342H8.86056C8.05467 190.342 7.40137 189.689 7.40137 188.883C7.40137 188.077 8.05467 187.424 8.86056 187.424H16.1081C16.914 187.424 17.5673 188.077 17.5673 188.883Z" fill="#EA5A47"/>
<path d="M17.8348 189.856C17.8348 192.542 15.4393 194.72 12.4843 194.72C9.5292 194.72 7.13379 192.542 7.13379 189.856" fill="#EA5A47"/>
<path d="M17.7009 189.856C17.6271 189.856 17.5672 189.796 17.5672 189.722V188.384C17.5672 187.854 17.1373 187.424 16.6069 187.424C16.0375 187.424 15.5972 187.918 15.5837 188.487C15.5439 190.158 14.9889 192.643 12.3951 194.354C12.2315 194.462 12.2883 194.72 12.4842 194.72C15.39 194.72 17.7546 192.614 17.8327 189.99C17.8349 189.916 17.7748 189.856 17.7009 189.856Z" fill="#D22F27"/>
<path d="M8.20389 200.313H16.7647M12.4843 194.72V200.313M12.4843 194.72C14.5656 194.72 16.3698 193.639 17.2542 192.062C17.6256 191.399 17.8348 190.65 17.8348 189.856V185.235M12.4843 194.72C9.5292 194.72 7.13379 192.542 7.13379 189.856V185.235" stroke="#1C1903" stroke-miterlimit="10" stroke-linecap="round" stroke-linejoin="round"/>
<path d="M7 187.546H17.701" stroke="#1C1903" stroke-miterlimit="10"/>
<path d="M57.5673 188.883C57.5673 189.689 56.914 190.342 56.1081 190.342H48.8606C48.0547 190.342 47.4014 189.689 47.4014 188.883C47.4014 188.077 48.0547 187.424 48.8606 187.424H56.1081C56.914 187.424 57.5673 188.077 57.5673 188.883Z" fill="#EA5A47"/>
<path d="M57.8348 189.856C57.8348 192.542 55.4393 194.72 52.4843 194.72C49.5292 194.72 47.1338 192.542 47.1338 189.856" fill="#EA5A47"/>
<path d="M57.7009 189.856C57.6271 189.856 57.5672 189.796 57.5672 189.722V188.384C57.5672 187.854 57.1373 187.424 56.6069 187.424C56.0375 187.424 55.5972 187.918 55.5837 188.487C55.5439 190.158 54.9889 192.643 52.3951 194.354C52.2315 194.462 52.2883 194.72 52.4842 194.72C55.39 194.72 57.7546 192.614 57.8327 189.99C57.8349 189.916 57.7748 189.856 57.7009 189.856Z" fill="#D22F27"/>
<path d="M48.2039 200.313H56.7647M52.4843 194.72V200.313M52.4843 194.72C54.5656 194.72 56.3698 193.639 57.2542 192.062C57.6256 191.399 57.8348 190.65 57.8348 189.856V185.235M52.4843 194.72C49.5292 194.72 47.1338 192.542 47.1338 189.856V185.235" stroke="#1C1903" stroke-miterlimit="10" stroke-linecap="round" stroke-linejoin="round"/>
<path d="M47 187.546H57.701" stroke="#1C1903" stroke-miterlimit="10"/>
<path d="M53.5673 188.883C53.5673 189.689 52.914 190.342 52.1081 190.342H44.8606C44.0547 190.342 43.4014 189.689 43.4014 188.883C43.4014 188.077 44.0547 187.424 44.8606 187.424H52.1081C52.914 187.424 53.5673 188.077 53.5673 188.883Z" fill="#EA5A47"/>
<path d="M53.8348 189.856C53.8348 192.542 51.4393 194.72 48.4843 194.72C45.5292 194.72 43.1338 192.542 43.1338 189.856" fill="#EA5A47"/>
<path d="M53.7009 189.856C53.6271 189.856 53.5672 189.796 53.5672 189.722V188.384C53.5672 187.854 53.1373 187.424 52.6069 187.424C52.0375 187.424 51.5972 187.918 51.5837 188.487C51.5439 190.158 50.9889 192.643 48.3951 194.354C48.2315 194.462 48.2883 194.72 48.4842 194.72C51.39 194.72 53.7546 192.614 53.8327 189.99C53.8349 189.916 53.7748 189.856 53.7009 189.856Z" fill="#D22F27"/>
<path d="M44.2039 200.313H52.7647M48.4843 194.72V200.313M48.4843 194.72C50.5656 194.72 52.3698 193.639 53.2542 192.062C53.6256 191.399 53.8348 190.65 53.8348 189.856V185.235M48.4843 194.72C45.5292 194.72 43.1338 192.542 43.1338 189.856V185.235" stroke="#1C1903" stroke-miterlimit="10" stroke-linecap="round" stroke-linejoin="round"/>
<path d="M43 187.546H53.701" stroke="#1C1903" stroke-miterlimit="10"/>
<path d="M150.567 188.883C150.567 189.689 149.914 190.342 149.108 190.342H141.861C141.055 190.342 140.401 189.689 140.401 188.883C140.401 188.077 141.055 187.424 141.861 187.424H149.108C149.914 187.424 150.567 188.077 150.567 188.883Z" fill="#EA5A47"/>
<path d="M150.835 189.856C150.835 192.542 148.439 194.72 145.484 194.72C142.529 194.72 140.134 192.542 140.134 189.856" fill="#EA5A47"/>
<path d="M150.701 189.856C150.627 189.856 150.567 189.796 150.567 189.722V188.384C150.567 187.854 150.137 187.424 149.607 187.424C149.037 187.424 148.597 187.918 148.584 188.487C148.544 190.158 147.989 192.643 145.395 194.354C145.231 194.462 145.288 194.72 145.484 194.72C148.39 194.72 150.755 192.614 150.833 189.99C150.835 189.916 150.775 189.856 150.701 189.856Z" fill="#D22F27"/>
<path d="M141.204 200.313H149.765M145.484 194.72V200.313M145.484 194.72C147.566 194.72 149.37 193.639 150.254 192.062C150.626 191.399 150.835 190.65 150.835 189.856V185.235M145.484 194.72C142.529 194.72 140.134 192.542 140.134 189.856V185.235" stroke="#1C1903" stroke-miterlimit="10" stroke-linecap="round" stroke-linejoin="round"/>
<path d="M140 187.546H150.701" stroke="#1C1903" stroke-miterlimit="10"/>
<path d="M146.567 188.883C146.567 189.689 145.914 190.342 145.108 190.342H137.861C137.055 190.342 136.401 189.689 136.401 188.883C136.401 188.077 137.055 187.424 137.861 187.424H145.108C145.914 187.424 146.567 188.077 146.567 188.883Z" fill="#EA5A47"/>
<path d="M146.835 189.856C146.835 192.542 144.439 194.72 141.484 194.72C138.529 194.72 136.134 192.542 136.134 189.856" fill="#EA5A47"/>
<path d="M146.701 189.856C146.627 189.856 146.567 189.796 146.567 189.722V188.384C146.567 187.854 146.137 187.424 145.607 187.424C145.037 187.424 144.597 187.918 144.584 188.487C144.544 190.158 143.989 192.643 141.395 194.354C141.231 194.462 141.288 194.72 141.484 194.72C144.39 194.72 146.755 192.614 146.833 189.99C146.835 189.916 146.775 189.856 146.701 189.856Z" fill="#D22F27"/>
<path d="M137.204 200.313H145.765M141.484 194.72V200.313M141.484 194.72C143.566 194.72 145.37 193.639 146.254 192.062C146.626 191.399 146.835 190.65 146.835 189.856V185.235M141.484 194.72C138.529 194.72 136.134 192.542 136.134 189.856V185.235" stroke="#1C1903" stroke-miterlimit="10" stroke-linecap="round" stroke-linejoin="round"/>
<path d="M136 187.546H146.701" stroke="#1C1903" stroke-miterlimit="10"/>
<path d="M142.567 188.883C142.567 189.689 141.914 190.342 141.108 190.342H133.861C133.055 190.342 132.401 189.689 132.401 188.883C132.401 188.077 133.055 187.424 133.861 187.424H141.108C141.914 187.424 142.567 188.077 142.567 188.883Z" fill="#EA5A47"/>
<path d="M142.835 189.856C142.835 192.542 140.439 194.72 137.484 194.72C134.529 194.72 132.134 192.542 132.134 189.856" fill="#EA5A47"/>
<path d="M142.701 189.856C142.627 189.856 142.567 189.796 142.567 189.722V188.384C142.567 187.854 142.137 187.424 141.607 187.424C141.037 187.424 140.597 187.918 140.584 188.487C140.544 190.158 139.989 192.643 137.395 194.354C137.231 194.462 137.288 194.72 137.484 194.72C140.39 194.72 142.755 192.614 142.833 189.99C142.835 189.916 142.775 189.856 142.701 189.856Z" fill="#D22F27"/>
<path d="M133.204 200.313H141.765M137.484 194.72V200.313M137.484 194.72C139.566 194.72 141.37 193.639 142.254 192.062C142.626 191.399 142.835 190.65 142.835 189.856V185.235M137.484 194.72C134.529 194.72 132.134 192.542 132.134 189.856V185.235" stroke="#1C1903" stroke-miterlimit="10" stroke-linecap="round" stroke-linejoin="round"/>
<path d="M132 187.546H142.701" stroke="#1C1903" stroke-miterlimit="10"/>
<path d="M137.567 188.883C137.567 189.689 136.914 190.342 136.108 190.342H128.861C128.055 190.342 127.401 189.689 127.401 188.883C127.401 188.077 128.055 187.424 128.861 187.424H136.108C136.914 187.424 137.567 188.077 137.567 188.883Z" fill="#EA5A47"/>
<path d="M137.835 189.856C137.835 192.542 135.439 194.72 132.484 194.72C129.529 194.72 127.134 192.542 127.134 189.856" fill="#EA5A47"/>
<path d="M137.701 189.856C137.627 189.856 137.567 189.796 137.567 189.722V188.384C137.567 187.854 137.137 187.424 136.607 187.424C136.037 187.424 135.597 187.918 135.584 188.487C135.544 190.158 134.989 192.643 132.395 194.354C132.231 194.462 132.288 194.72 132.484 194.72C135.39 194.72 137.755 192.614 137.833 189.99C137.835 189.916 137.775 189.856 137.701 189.856Z" fill="#D22F27"/>
<path d="M128.204 200.313H136.765M132.484 194.72V200.313M132.484 194.72C134.566 194.72 136.37 193.639 137.254 192.062C137.626 191.399 137.835 190.65 137.835 189.856V185.235M132.484 194.72C129.529 194.72 127.134 192.542 127.134 189.856V185.235" stroke="#1C1903" stroke-miterlimit="10" stroke-linecap="round" stroke-linejoin="round"/>
<path d="M127 187.546H137.701" stroke="#1C1903" stroke-miterlimit="10"/>
<path d="M203.567 188.883C203.567 189.689 202.914 190.342 202.108 190.342H194.861C194.055 190.342 193.401 189.689 193.401 188.883C193.401 188.077 194.055 187.424 194.861 187.424H202.108C202.914 187.424 203.567 188.077 203.567 188.883Z" fill="#EA5A47"/>
<path d="M203.835 189.856C203.835 192.542 201.439 194.72 198.484 194.72C195.529 194.72 193.134 192.542 193.134 189.856" fill="#EA5A47"/>
<path d="M203.701 189.856C203.627 189.856 203.567 189.796 203.567 189.722V188.384C203.567 187.854 203.137 187.424 202.607 187.424C202.037 187.424 201.597 187.918 201.584 188.487C201.544 190.158 200.989 192.643 198.395 194.354C198.231 194.462 198.288 194.72 198.484 194.72C201.39 194.72 203.755 192.614 203.833 189.99C203.835 189.916 203.775 189.856 203.701 189.856Z" fill="#D22F27"/>
<path d="M194.204 200.313H202.765M198.484 194.72V200.313M198.484 194.72C200.566 194.72 202.37 193.639 203.254 192.062C203.626 191.399 203.835 190.65 203.835 189.856V185.235M198.484 194.72C195.529 194.72 193.134 192.542 193.134 189.856V185.235" stroke="#1C1903" stroke-miterlimit="10" stroke-linecap="round" stroke-linejoin="round"/>
<path d="M193 187.546H203.701" stroke="#1C1903" stroke-miterlimit="10"/>
<path d="M199.567 188.883C199.567 189.689 198.914 190.342 198.108 190.342H190.861C190.055 190.342 189.401 189.689 189.401 188.883C189.401 188.077 190.055 187.424 190.861 187.424H198.108C198.914 187.424 199.567 188.077 199.567 188.883Z" fill="#EA5A47"/>
<path d="M199.835 189.856C199.835 192.542 197.439 194.72 194.484 194.72C191.529 194.72 189.134 192.542 189.134 189.856" fill="#EA5A47"/>
<path d="M199.701 189.856C199.627 189.856 199.567 189.796 199.567 189.722V188.384C199.567 187.854 199.137 187.424 198.607 187.424C198.037 187.424 197.597 187.918 197.584 188.487C197.544 190.158 196.989 192.643 194.395 194.354C194.231 194.462 194.288 194.72 194.484 194.72C197.39 194.72 199.755 192.614 199.833 189.99C199.835 189.916 199.775 189.856 199.701 189.856Z" fill="#D22F27"/>
<path d="M190.204 200.313H198.765M194.484 194.72V200.313M194.484 194.72C196.566 194.72 198.37 193.639 199.254 192.062C199.626 191.399 199.835 190.65 199.835 189.856V185.235M194.484 194.72C191.529 194.72 189.134 192.542 189.134 189.856V185.235" stroke="#1C1903" stroke-miterlimit="10" stroke-linecap="round" stroke-linejoin="round"/>
<path d="M189 187.546H199.701" stroke="#1C1903" stroke-miterlimit="10"/>
<path d="M195.567 188.883C195.567 189.689 194.914 190.342 194.108 190.342H186.861C186.055 190.342 185.401 189.689 185.401 188.883C185.401 188.077 186.055 187.424 186.861 187.424H194.108C194.914 187.424 195.567 188.077 195.567 188.883Z" fill="#EA5A47"/>
<path d="M195.835 189.856C195.835 192.542 193.439 194.72 190.484 194.72C187.529 194.72 185.134 192.542 185.134 189.856" fill="#EA5A47"/>
<path d="M195.701 189.856C195.627 189.856 195.567 189.796 195.567 189.722V188.384C195.567 187.854 195.137 187.424 194.607 187.424C194.037 187.424 193.597 187.918 193.584 188.487C193.544 190.158 192.989 192.643 190.395 194.354C190.231 194.462 190.288 194.72 190.484 194.72C193.39 194.72 195.755 192.614 195.833 189.99C195.835 189.916 195.775 189.856 195.701 189.856Z" fill="#D22F27"/>
<path d="M186.204 200.313H194.765M190.484 194.72V200.313M190.484 194.72C192.566 194.72 194.37 193.639 195.254 192.062C195.626 191.399 195.835 190.65 195.835 189.856V185.235M190.484 194.72C187.529 194.72 185.134 192.542 185.134 189.856V185.235" stroke="#1C1903" stroke-miterlimit="10" stroke-linecap="round" stroke-linejoin="round"/>
<path d="M185 187.546H195.701" stroke="#1C1903" stroke-miterlimit="10"/>
<path d="M190.567 188.883C190.567 189.689 189.914 190.342 189.108 190.342H181.861C181.055 190.342 180.401 189.689 180.401 188.883C180.401 188.077 181.055 187.424 181.861 187.424H189.108C189.914 187.424 190.567 188.077 190.567 188.883Z" fill="#EA5A47"/>
<path d="M190.835 189.856C190.835 192.542 188.439 194.72 185.484 194.72C182.529 194.72 180.134 192.542 180.134 189.856" fill="#EA5A47"/>
<path d="M190.701 189.856C190.627 189.856 190.567 189.796 190.567 189.722V188.384C190.567 187.854 190.137 187.424 189.607 187.424C189.037 187.424 188.597 187.918 188.584 188.487C188.544 190.158 187.989 192.643 185.395 194.354C185.231 194.462 185.288 194.72 185.484 194.72C188.39 194.72 190.755 192.614 190.833 189.99C190.835 189.916 190.775 189.856 190.701 189.856Z" fill="#D22F27"/>
<path d="M181.204 200.313H189.765M185.484 194.72V200.313M185.484 194.72C187.566 194.72 189.37 193.639 190.254 192.062C190.626 191.399 190.835 190.65 190.835 189.856V185.235M185.484 194.72C182.529 194.72 180.134 192.542 180.134 189.856V185.235" stroke="#1C1903" stroke-miterlimit="10" stroke-linecap="round" stroke-linejoin="round"/>
<path d="M180 187.546H190.701" stroke="#1C1903" stroke-miterlimit="10"/>
<path d="M186.567 188.883C186.567 189.689 185.914 190.342 185.108 190.342H177.861C177.055 190.342 176.401 189.689 176.401 188.883C176.401 188.077 177.055 187.424 177.861 187.424H185.108C185.914 187.424 186.567 188.077 186.567 188.883Z" fill="#EA5A47"/>
<path d="M186.835 189.856C186.835 192.542 184.439 194.72 181.484 194.72C178.529 194.72 176.134 192.542 176.134 189.856" fill="#EA5A47"/>
<path d="M186.701 189.856C186.627 189.856 186.567 189.796 186.567 189.722V188.384C186.567 187.854 186.137 187.424 185.607 187.424C185.037 187.424 184.597 187.918 184.584 188.487C184.544 190.158 183.989 192.643 181.395 194.354C181.231 194.462 181.288 194.72 181.484 194.72C184.39 194.72 186.755 192.614 186.833 189.99C186.835 189.916 186.775 189.856 186.701 189.856Z" fill="#D22F27"/>
<path d="M177.204 200.313H185.765M181.484 194.72V200.313M181.484 194.72C183.566 194.72 185.37 193.639 186.254 192.062C186.626 191.399 186.835 190.65 186.835 189.856V185.235M181.484 194.72C178.529 194.72 176.134 192.542 176.134 189.856V185.235" stroke="#1C1903" stroke-miterlimit="10" stroke-linecap="round" stroke-linejoin="round"/>
<path d="M176 187.546H186.701" stroke="#1C1903" stroke-miterlimit="10"/>
<path d="M1 91.2351C0.447715 91.2351 0 91.6828 0 92.2351C0 92.7874 0.447715 93.2351 1 93.2351V91.2351ZM36.2742 92.2351L36.3286 91.2366L36.3014 91.2351H36.2742V92.2351ZM72.0522 94.1851L72.2724 93.2097L72.1905 93.1912L72.1066 93.1866L72.0522 94.1851ZM117.405 104.423L117.792 103.501L117.711 103.467L117.625 103.447L117.405 104.423ZM152.175 119.048L151.787 119.969L151.825 119.985L151.863 119.998L152.175 119.048ZM181.906 128.798L181.594 129.748L181.651 129.766L181.708 129.778L181.906 128.798ZM194 131.235L185.338 123.6L183.056 134.919L194 131.235ZM1 93.2351H3.20463V91.2351H1V93.2351ZM7.6139 93.2351H12.0232V91.2351H7.6139V93.2351ZM16.4324 93.2351H20.8417V91.2351H16.4324V93.2351ZM25.251 93.2351H29.6602V91.2351H25.251V93.2351ZM34.0695 93.2351H36.2742V91.2351H34.0695V93.2351ZM36.2197 93.2336L38.4559 93.3555L38.5647 91.3585L36.3286 91.2366L36.2197 93.2336ZM42.9281 93.5993L47.4004 93.843L47.5092 91.846L43.037 91.6022L42.9281 93.5993ZM51.8726 94.0868L56.3449 94.3305L56.4537 92.3335L51.9815 92.0897L51.8726 94.0868ZM60.8172 94.5743L65.2894 94.818L65.3983 92.821L60.926 92.5772L60.8172 94.5743ZM69.7617 95.0618L71.9978 95.1836L72.1066 93.1866L69.8705 93.0647L69.7617 95.0618ZM71.832 95.1606L73.7217 95.5871L74.1621 93.6362L72.2724 93.2097L71.832 95.1606ZM77.5011 96.4403L81.2805 97.2934L81.7208 95.3425L77.9415 94.4893L77.5011 96.4403ZM85.0598 98.1465L88.8392 98.9996L89.2796 97.0487L85.5002 96.1956L85.0598 98.1465ZM92.6186 99.8528L96.398 100.706L96.8383 98.755L93.059 97.9018L92.6186 99.8528ZM100.177 101.559L103.957 102.412L104.397 100.461L100.618 99.6081L100.177 101.559ZM107.736 103.265L111.515 104.118L111.956 102.167L108.176 101.314L107.736 103.265ZM115.295 104.972L117.185 105.398L117.625 103.447L115.735 103.021L115.295 104.972ZM117.017 105.344L118.755 106.076L119.531 104.232L117.792 103.501L117.017 105.344ZM122.233 107.538L125.71 109.001L126.485 107.157L123.008 105.695L122.233 107.538ZM129.187 110.463L132.664 111.926L133.439 110.082L129.962 108.62L129.187 110.463ZM136.141 113.388L139.618 114.851L140.393 113.007L136.916 111.545L136.141 113.388ZM143.095 116.313L146.572 117.776L147.347 115.932L143.87 114.47L143.095 116.313ZM150.049 119.238L151.787 119.969L152.563 118.126L150.824 117.395L150.049 119.238ZM151.863 119.998L153.722 120.607L154.345 118.707L152.487 118.097L151.863 119.998ZM157.438 121.826L161.154 123.045L161.777 121.144L158.061 119.926L157.438 121.826ZM164.871 124.263L168.587 125.482L169.21 123.582L165.494 122.363L164.871 124.263ZM172.303 126.701L176.02 127.92L176.643 126.019L172.927 124.801L172.303 126.701ZM179.736 129.138L181.594 129.748L182.218 127.847L180.359 127.238L179.736 129.138ZM181.708 129.778L183.22 130.083L183.615 128.122L182.104 127.817L181.708 129.778ZM186.244 130.692L189.267 131.301L189.662 129.341L186.639 128.731L186.244 130.692Z" fill="#FF0000"/>
<path d="M178.135 12.2351V3.50783H183.606V4.64136H179.451V7.30045H183.321V8.42971H179.451V11.1016H183.657V12.2351H178.135ZM189.409 9.52062V5.68965H190.688V12.2351H189.435V11.1016H189.366C189.216 11.451 188.974 11.7422 188.642 11.9752C188.313 12.2053 187.902 12.3203 187.411 12.3203C186.99 12.3203 186.618 12.228 186.294 12.0433C185.973 11.8558 185.72 11.5789 185.536 11.2124C185.354 10.8459 185.263 10.3928 185.263 9.85301V5.68965H186.537V9.6996C186.537 10.1456 186.661 10.5007 186.908 10.7649C187.155 11.0291 187.476 11.1612 187.871 11.1612C188.109 11.1612 188.347 11.1016 188.582 10.9823C188.821 10.8629 189.018 10.6826 189.175 10.4411C189.334 10.1996 189.412 9.89278 189.409 9.52062ZM192.4 14.6897V5.68965H193.644V6.75073H193.75C193.824 6.61437 193.931 6.4567 194.07 6.27772C194.209 6.09874 194.402 5.94249 194.65 5.80897C194.897 5.67261 195.223 5.60443 195.63 5.60443C196.158 5.60443 196.63 5.73795 197.044 6.00499C197.459 6.27204 197.784 6.65698 198.02 7.15982C198.259 7.66266 198.378 8.26778 198.378 8.97516C198.378 9.68255 198.26 10.2891 198.025 10.7948C197.789 11.2976 197.465 11.6854 197.053 11.9581C196.641 12.228 196.171 12.3629 195.642 12.3629C195.245 12.3629 194.919 12.2962 194.667 12.1627C194.417 12.0291 194.221 11.8729 194.078 11.6939C193.936 11.5149 193.827 11.3558 193.75 11.2166H193.674V14.6897H192.4ZM193.648 8.96238C193.648 9.42261 193.715 9.82602 193.848 10.1726C193.982 10.5192 194.175 10.7905 194.428 10.9865C194.681 11.1797 194.99 11.2763 195.357 11.2763C195.738 11.2763 196.056 11.1754 196.311 10.9737C196.567 10.7692 196.76 10.4922 196.891 10.1428C197.025 9.79335 197.091 9.39988 197.091 8.96238C197.091 8.53056 197.026 8.14278 196.895 7.79903C196.767 7.45528 196.574 7.18397 196.316 6.98511C196.06 6.78624 195.74 6.68681 195.357 6.68681C194.988 6.68681 194.675 6.78198 194.419 6.97232C194.167 7.16266 193.975 7.42829 193.844 7.7692C193.713 8.11011 193.648 8.50783 193.648 8.96238ZM201.08 8.34874V12.2351H199.806V3.50783H201.063V6.75499H201.144C201.297 6.40272 201.532 6.12289 201.847 5.9155C202.162 5.70812 202.574 5.60443 203.083 5.60443C203.532 5.60443 203.924 5.69676 204.259 5.88141C204.597 6.06607 204.858 6.34164 205.043 6.70812C205.23 7.07176 205.324 7.5263 205.324 8.07176V12.2351H204.05V8.22516C204.05 7.74505 203.926 7.37289 203.679 7.10869C203.432 6.84164 203.088 6.70812 202.648 6.70812C202.347 6.70812 202.077 6.77204 201.838 6.89988C201.603 7.02772 201.417 7.21522 201.28 7.46238C201.147 7.7067 201.08 8.00215 201.08 8.34874ZM209.782 12.3672C209.168 12.3672 208.632 12.2266 208.175 11.9453C207.718 11.6641 207.363 11.2706 207.11 10.7649C206.857 10.2593 206.73 9.66835 206.73 8.99221C206.73 8.31323 206.857 7.71948 207.11 7.21096C207.363 6.70244 207.718 6.30755 208.175 6.0263C208.632 5.74505 209.168 5.60443 209.782 5.60443C210.395 5.60443 210.931 5.74505 211.388 6.0263C211.846 6.30755 212.201 6.70244 212.453 7.21096C212.706 7.71948 212.833 8.31323 212.833 8.99221C212.833 9.66835 212.706 10.2593 212.453 10.7649C212.201 11.2706 211.846 11.6641 211.388 11.9453C210.931 12.2266 210.395 12.3672 209.782 12.3672ZM209.786 11.2976C210.184 11.2976 210.513 11.1925 210.775 10.9823C211.036 10.772 211.229 10.4922 211.354 10.1428C211.482 9.79335 211.546 9.4084 211.546 8.98795C211.546 8.57033 211.482 8.18681 211.354 7.83738C211.229 7.48511 211.036 7.20244 210.775 6.98937C210.513 6.7763 210.184 6.66977 209.786 6.66977C209.385 6.66977 209.053 6.7763 208.789 6.98937C208.527 7.20244 208.333 7.48511 208.205 7.83738C208.08 8.18681 208.017 8.57033 208.017 8.98795C208.017 9.4084 208.08 9.79335 208.205 10.1428C208.333 10.4922 208.527 10.772 208.789 10.9823C209.053 11.1925 209.385 11.2976 209.786 11.2976ZM214.255 12.2351V5.68965H215.487V6.72943H215.555C215.674 6.37715 215.884 6.10016 216.185 5.89846C216.489 5.69391 216.833 5.59164 217.217 5.59164C217.296 5.59164 217.39 5.59448 217.498 5.60016C217.609 5.60585 217.695 5.61295 217.758 5.62147V6.84022C217.707 6.82602 217.616 6.81039 217.485 6.79335C217.354 6.77346 217.224 6.76352 217.093 6.76352C216.792 6.76352 216.523 6.82744 216.288 6.95528C216.055 7.08028 215.87 7.25499 215.734 7.47943C215.597 7.70102 215.529 7.95386 215.529 8.23795V12.2351H214.255ZM218.86 12.2351V5.68965H220.135V12.2351H218.86ZM219.504 4.67971C219.282 4.67971 219.092 4.60585 218.933 4.45812C218.777 4.30755 218.699 4.12857 218.699 3.92119C218.699 3.71096 218.777 3.53198 218.933 3.38425C219.092 3.23369 219.282 3.1584 219.504 3.1584C219.725 3.1584 219.914 3.23369 220.071 3.38425C220.23 3.53198 220.309 3.71096 220.309 3.92119C220.309 4.12857 220.23 4.30755 220.071 4.45812C219.914 4.60585 219.725 4.67971 219.504 4.67971ZM223.754 12.38C223.339 12.38 222.964 12.3033 222.629 12.1499C222.293 11.9936 222.028 11.7678 221.832 11.4723C221.638 11.1769 221.542 10.8147 221.542 10.3857C221.542 10.0164 221.613 9.71238 221.755 9.47374C221.897 9.23511 222.089 9.04619 222.33 8.90698C222.572 8.76778 222.842 8.66266 223.14 8.59164C223.438 8.52062 223.742 8.46664 224.052 8.42971C224.444 8.38425 224.762 8.34732 225.006 8.31891C225.251 8.28766 225.428 8.23795 225.539 8.16977C225.65 8.10158 225.705 7.99079 225.705 7.83738V7.80755C225.705 7.43539 225.6 7.14704 225.39 6.94249C225.183 6.73795 224.873 6.63568 224.461 6.63568C224.032 6.63568 223.694 6.73085 223.447 6.92119C223.202 7.10869 223.033 7.31749 222.94 7.54761L221.742 7.27488C221.884 6.87715 222.092 6.55613 222.364 6.31181C222.64 6.06465 222.957 5.88568 223.315 5.77488C223.673 5.66124 224.049 5.60443 224.444 5.60443C224.705 5.60443 224.982 5.63568 225.275 5.69818C225.57 5.75783 225.846 5.86863 226.102 6.03056C226.36 6.19249 226.572 6.42403 226.737 6.72516C226.901 7.02346 226.984 7.41124 226.984 7.88852V12.2351H225.739V11.3402H225.688C225.606 11.505 225.482 11.6669 225.317 11.826C225.153 11.9851 224.941 12.1172 224.683 12.2223C224.424 12.3274 224.114 12.38 223.754 12.38ZM224.031 11.3573C224.383 11.3573 224.684 11.2877 224.934 11.1485C225.187 11.0093 225.379 10.8274 225.509 10.603C225.643 10.3757 225.71 10.1328 225.71 9.87431V9.03056C225.664 9.07602 225.576 9.11863 225.445 9.1584C225.317 9.19533 225.171 9.22801 225.006 9.25641C224.842 9.28198 224.681 9.30613 224.525 9.32886C224.369 9.34874 224.238 9.36579 224.133 9.37999C223.886 9.41124 223.66 9.4638 223.455 9.53766C223.254 9.61153 223.092 9.71806 222.969 9.85727C222.85 9.99363 222.79 10.1754 222.79 10.4027C222.79 10.7181 222.907 10.9567 223.14 11.1186C223.373 11.2777 223.67 11.3573 224.031 11.3573Z" fill="#1C1903"/>
<path d="M181.102 100.8C181.056 100.397 180.869 100.085 180.539 99.8629C180.21 99.6385 179.795 99.5263 179.295 99.5263C178.937 99.5263 178.627 99.5831 178.366 99.6968C178.104 99.8076 177.901 99.961 177.756 100.157C177.614 100.35 177.543 100.57 177.543 100.817C177.543 101.025 177.592 101.204 177.688 101.354C177.788 101.505 177.917 101.631 178.076 101.734C178.238 101.833 178.411 101.917 178.596 101.985C178.781 102.05 178.958 102.104 179.129 102.147L179.981 102.369C180.259 102.437 180.545 102.529 180.837 102.646C181.13 102.762 181.401 102.916 181.651 103.106C181.901 103.296 182.103 103.532 182.256 103.813C182.413 104.094 182.491 104.431 182.491 104.823C182.491 105.317 182.363 105.756 182.107 106.14C181.854 106.523 181.487 106.826 181.004 107.048C180.523 107.269 179.942 107.38 179.261 107.38C178.607 107.38 178.042 107.276 177.565 107.069C177.087 106.862 176.714 106.567 176.444 106.187C176.174 105.803 176.025 105.349 175.996 104.823H177.317C177.343 105.139 177.445 105.401 177.624 105.612C177.806 105.819 178.038 105.974 178.319 106.076C178.603 106.175 178.914 106.225 179.252 106.225C179.624 106.225 179.955 106.167 180.245 106.05C180.538 105.931 180.768 105.766 180.935 105.556C181.103 105.343 181.187 105.094 181.187 104.81C181.187 104.552 181.113 104.34 180.965 104.175C180.82 104.011 180.623 103.874 180.373 103.766C180.126 103.658 179.846 103.563 179.533 103.481L178.502 103.2C177.803 103.009 177.249 102.729 176.84 102.36C176.434 101.991 176.231 101.502 176.231 100.894C176.231 100.391 176.367 99.9524 176.64 99.5774C176.913 99.2024 177.282 98.9112 177.748 98.7039C178.214 98.4936 178.739 98.3885 179.325 98.3885C179.915 98.3885 180.437 98.4922 180.888 98.6996C181.343 98.907 181.701 99.1925 181.962 99.5561C182.224 99.9169 182.36 100.332 182.371 100.8H181.102ZM183.962 109.69V100.69H185.206V101.751H185.313C185.387 101.614 185.493 101.457 185.632 101.278C185.772 101.099 185.965 100.942 186.212 100.809C186.459 100.673 186.786 100.604 187.192 100.604C187.721 100.604 188.192 100.738 188.607 101.005C189.022 101.272 189.347 101.657 189.583 102.16C189.821 102.663 189.941 103.268 189.941 103.975C189.941 104.683 189.823 105.289 189.587 105.795C189.351 106.298 189.027 106.685 188.615 106.958C188.203 107.228 187.733 107.363 187.205 107.363C186.807 107.363 186.482 107.296 186.229 107.163C185.979 107.029 185.783 106.873 185.641 106.694C185.499 106.515 185.39 106.356 185.313 106.217H185.236V109.69H183.962ZM185.211 103.962C185.211 104.423 185.277 104.826 185.411 105.173C185.544 105.519 185.738 105.791 185.99 105.987C186.243 106.18 186.553 106.276 186.919 106.276C187.3 106.276 187.618 106.175 187.874 105.974C188.13 105.769 188.323 105.492 188.453 105.143C188.587 104.793 188.654 104.4 188.654 103.962C188.654 103.531 188.588 103.143 188.458 102.799C188.33 102.455 188.137 102.184 187.878 101.985C187.623 101.786 187.303 101.687 186.919 101.687C186.55 101.687 186.238 101.782 185.982 101.972C185.729 102.163 185.537 102.428 185.407 102.769C185.276 103.11 185.211 103.508 185.211 103.962ZM194.189 107.367C193.544 107.367 192.989 107.229 192.523 106.954C192.06 106.675 191.702 106.285 191.449 105.782C191.199 105.276 191.074 104.684 191.074 104.005C191.074 103.335 191.199 102.744 191.449 102.232C191.702 101.721 192.054 101.322 192.506 101.035C192.961 100.748 193.492 100.604 194.1 100.604C194.469 100.604 194.827 100.666 195.174 100.788C195.52 100.91 195.831 101.102 196.107 101.363C196.382 101.624 196.6 101.964 196.759 102.381C196.918 102.796 196.998 103.3 196.998 103.894V104.346H191.794V103.391H195.749C195.749 103.056 195.681 102.759 195.544 102.501C195.408 102.239 195.216 102.033 194.969 101.883C194.725 101.732 194.438 101.657 194.108 101.657C193.75 101.657 193.438 101.745 193.171 101.921C192.907 102.094 192.702 102.322 192.557 102.603C192.415 102.881 192.344 103.184 192.344 103.511V104.256C192.344 104.694 192.421 105.066 192.574 105.373C192.73 105.68 192.948 105.914 193.226 106.076C193.505 106.235 193.83 106.315 194.202 106.315C194.444 106.315 194.664 106.281 194.863 106.212C195.061 106.141 195.233 106.036 195.378 105.897C195.523 105.758 195.634 105.586 195.711 105.381L196.917 105.599C196.82 105.954 196.647 106.265 196.397 106.532C196.15 106.796 195.838 107.002 195.463 107.15C195.091 107.295 194.667 107.367 194.189 107.367ZM201.232 107.367C200.587 107.367 200.032 107.229 199.566 106.954C199.103 106.675 198.745 106.285 198.492 105.782C198.242 105.276 198.117 104.684 198.117 104.005C198.117 103.335 198.242 102.744 198.492 102.232C198.745 101.721 199.097 101.322 199.549 101.035C200.004 100.748 200.535 100.604 201.143 100.604C201.512 100.604 201.87 100.666 202.217 100.788C202.563 100.91 202.874 101.102 203.15 101.363C203.425 101.624 203.643 101.964 203.802 102.381C203.961 102.796 204.04 103.3 204.04 103.894V104.346H198.837V103.391H202.792C202.792 103.056 202.724 102.759 202.587 102.501C202.451 102.239 202.259 102.033 202.012 101.883C201.768 101.732 201.481 101.657 201.151 101.657C200.793 101.657 200.481 101.745 200.214 101.921C199.95 102.094 199.745 102.322 199.6 102.603C199.458 102.881 199.387 103.184 199.387 103.511V104.256C199.387 104.694 199.464 105.066 199.617 105.373C199.773 105.68 199.991 105.914 200.269 106.076C200.548 106.235 200.873 106.315 201.245 106.315C201.487 106.315 201.707 106.281 201.906 106.212C202.104 106.141 202.276 106.036 202.421 105.897C202.566 105.758 202.677 105.586 202.754 105.381L203.96 105.599C203.863 105.954 203.69 106.265 203.44 106.532C203.192 106.796 202.881 107.002 202.506 107.15C202.134 107.295 201.71 107.367 201.232 107.367ZM208.211 107.367C207.578 107.367 207.032 107.224 206.575 106.937C206.12 106.647 205.771 106.248 205.527 105.739C205.282 105.231 205.16 104.648 205.16 103.992C205.16 103.327 205.285 102.741 205.535 102.232C205.785 101.721 206.137 101.322 206.592 101.035C207.047 100.748 207.582 100.604 208.199 100.604C208.696 100.604 209.139 100.697 209.528 100.881C209.917 101.063 210.231 101.319 210.47 101.648C210.711 101.978 210.855 102.363 210.9 102.803H209.66C209.592 102.496 209.436 102.232 209.191 102.011C208.95 101.789 208.626 101.678 208.22 101.678C207.865 101.678 207.554 101.772 207.287 101.96C207.022 102.144 206.816 102.408 206.669 102.752C206.521 103.093 206.447 103.496 206.447 103.962C206.447 104.44 206.52 104.852 206.664 105.198C206.809 105.545 207.014 105.813 207.278 106.004C207.545 106.194 207.859 106.289 208.22 106.289C208.461 106.289 208.68 106.245 208.876 106.157C209.075 106.066 209.241 105.937 209.375 105.769C209.511 105.602 209.606 105.4 209.66 105.164H210.9C210.855 105.587 210.717 105.965 210.487 106.298C210.257 106.63 209.949 106.891 209.562 107.082C209.179 107.272 208.728 107.367 208.211 107.367ZM213.537 103.349V107.235H212.263V98.5078H213.52V101.755H213.601C213.754 101.403 213.989 101.123 214.304 100.916C214.619 100.708 215.031 100.604 215.54 100.604C215.989 100.604 216.381 100.697 216.716 100.881C217.054 101.066 217.315 101.342 217.5 101.708C217.688 102.072 217.781 102.526 217.781 103.072V107.235H216.507V103.225C216.507 102.745 216.384 102.373 216.136 102.109C215.889 101.842 215.545 101.708 215.105 101.708C214.804 101.708 214.534 101.772 214.295 101.9C214.06 102.028 213.874 102.215 213.737 102.462C213.604 102.707 213.537 103.002 213.537 103.349ZM225.197 107.359C224.612 107.359 224.108 107.252 223.684 107.039C223.264 106.826 222.94 106.536 222.713 106.17C222.485 105.8 222.372 105.383 222.372 104.917C222.372 104.562 222.446 104.246 222.593 103.971C222.741 103.692 222.947 103.435 223.211 103.2C223.475 102.964 223.781 102.727 224.127 102.488L225.534 101.495C225.772 101.339 225.958 101.174 226.092 101.001C226.225 100.825 226.292 100.607 226.292 100.349C226.292 100.144 226.204 99.9482 226.028 99.7607C225.852 99.5732 225.616 99.4794 225.321 99.4794C225.116 99.4794 224.936 99.5291 224.779 99.6286C224.626 99.728 224.505 99.8558 224.417 100.012C224.332 100.166 224.289 100.327 224.289 100.498C224.289 100.697 224.343 100.897 224.451 101.099C224.562 101.3 224.704 101.509 224.877 101.725C225.051 101.938 225.233 102.16 225.423 102.39L229.475 107.235H228.035L224.681 103.293C224.4 102.961 224.139 102.648 223.897 102.356C223.656 102.06 223.46 101.762 223.309 101.461C223.162 101.157 223.088 100.829 223.088 100.477C223.088 100.076 223.179 99.7209 223.36 99.4112C223.545 99.0987 223.802 98.8544 224.132 98.6783C224.461 98.5022 224.848 98.4141 225.291 98.4141C225.74 98.4141 226.125 98.5022 226.446 98.6783C226.77 98.8516 227.018 99.0831 227.191 99.3729C227.368 99.6598 227.456 99.9737 227.456 100.315C227.456 100.729 227.352 101.096 227.145 101.414C226.94 101.729 226.657 102.019 226.297 102.283L224.545 103.575C224.204 103.825 223.967 104.072 223.833 104.316C223.703 104.558 223.637 104.746 223.637 104.883C223.637 105.133 223.701 105.364 223.829 105.577C223.96 105.791 224.142 105.961 224.375 106.089C224.61 106.217 224.886 106.281 225.201 106.281C225.525 106.281 225.841 106.211 226.147 106.072C226.457 105.93 226.737 105.727 226.987 105.462C227.24 105.198 227.44 104.881 227.588 104.512C227.735 104.143 227.809 103.729 227.809 103.272H228.96C228.96 103.835 228.896 104.31 228.768 104.7C228.64 105.086 228.485 105.401 228.304 105.646C228.125 105.887 227.956 106.076 227.797 106.212C227.745 106.258 227.697 106.303 227.652 106.349C227.606 106.394 227.558 106.44 227.507 106.485C227.211 106.783 226.853 107.004 226.433 107.146C226.015 107.288 225.603 107.359 225.197 107.359ZM170.114 122.367C169.48 122.367 168.935 122.224 168.477 121.937C168.023 121.647 167.673 121.248 167.429 120.739C167.185 120.231 167.062 119.648 167.062 118.992C167.062 118.327 167.188 117.741 167.438 117.232C167.688 116.721 168.04 116.322 168.494 116.035C168.949 115.748 169.484 115.604 170.101 115.604C170.598 115.604 171.041 115.697 171.43 115.881C171.82 116.063 172.134 116.319 172.372 116.648C172.614 116.978 172.757 117.363 172.803 117.803H171.562C171.494 117.496 171.338 117.232 171.094 117.011C170.852 116.789 170.528 116.678 170.122 116.678C169.767 116.678 169.456 116.772 169.189 116.96C168.925 117.144 168.719 117.408 168.571 117.752C168.423 118.093 168.349 118.496 168.349 118.962C168.349 119.44 168.422 119.852 168.567 120.198C168.712 120.545 168.916 120.813 169.18 121.004C169.447 121.194 169.761 121.289 170.122 121.289C170.364 121.289 170.582 121.245 170.778 121.157C170.977 121.066 171.143 120.937 171.277 120.769C171.413 120.602 171.509 120.4 171.562 120.164H172.803C172.757 120.587 172.619 120.965 172.389 121.298C172.159 121.63 171.851 121.891 171.464 122.082C171.081 122.272 170.631 122.367 170.114 122.367ZM176.922 122.367C176.309 122.367 175.773 122.227 175.316 121.945C174.858 121.664 174.503 121.271 174.25 120.765C173.998 120.259 173.871 119.668 173.871 118.992C173.871 118.313 173.998 117.719 174.25 117.211C174.503 116.702 174.858 116.308 175.316 116.026C175.773 115.745 176.309 115.604 176.922 115.604C177.536 115.604 178.071 115.745 178.529 116.026C178.986 116.308 179.341 116.702 179.594 117.211C179.847 117.719 179.973 118.313 179.973 118.992C179.973 119.668 179.847 120.259 179.594 120.765C179.341 121.271 178.986 121.664 178.529 121.945C178.071 122.227 177.536 122.367 176.922 122.367ZM176.926 121.298C177.324 121.298 177.654 121.192 177.915 120.982C178.176 120.772 178.37 120.492 178.495 120.143C178.623 119.793 178.686 119.408 178.686 118.988C178.686 118.57 178.623 118.187 178.495 117.837C178.37 117.485 178.176 117.202 177.915 116.989C177.654 116.776 177.324 116.67 176.926 116.67C176.526 116.67 176.194 116.776 175.929 116.989C175.668 117.202 175.473 117.485 175.346 117.837C175.221 118.187 175.158 118.57 175.158 118.988C175.158 119.408 175.221 119.793 175.346 120.143C175.473 120.492 175.668 120.772 175.929 120.982C176.194 121.192 176.526 121.298 176.926 121.298ZM184.153 122.367C183.539 122.367 183.004 122.227 182.546 121.945C182.089 121.664 181.734 121.271 181.481 120.765C181.228 120.259 181.102 119.668 181.102 118.992C181.102 118.313 181.228 117.719 181.481 117.211C181.734 116.702 182.089 116.308 182.546 116.026C183.004 115.745 183.539 115.604 184.153 115.604C184.766 115.604 185.302 115.745 185.759 116.026C186.217 116.308 186.572 116.702 186.825 117.211C187.077 117.719 187.204 118.313 187.204 118.992C187.204 119.668 187.077 120.259 186.825 120.765C186.572 121.271 186.217 121.664 185.759 121.945C185.302 122.227 184.766 122.367 184.153 122.367ZM184.157 121.298C184.555 121.298 184.884 121.192 185.146 120.982C185.407 120.772 185.6 120.492 185.725 120.143C185.853 119.793 185.917 119.408 185.917 118.988C185.917 118.57 185.853 118.187 185.725 117.837C185.6 117.485 185.407 117.202 185.146 116.989C184.884 116.776 184.555 116.67 184.157 116.67C183.756 116.67 183.424 116.776 183.16 116.989C182.898 117.202 182.704 117.485 182.576 117.837C182.451 118.187 182.388 118.57 182.388 118.988C182.388 119.408 182.451 119.793 182.576 120.143C182.704 120.492 182.898 120.772 183.16 120.982C183.424 121.192 183.756 121.298 184.157 121.298ZM188.626 122.235V115.69H189.858V116.729H189.926C190.045 116.377 190.255 116.1 190.556 115.898C190.86 115.694 191.204 115.592 191.588 115.592C191.667 115.592 191.761 115.594 191.869 115.6C191.98 115.606 192.066 115.613 192.129 115.621V116.84C192.078 116.826 191.987 116.81 191.856 116.793C191.725 116.773 191.595 116.764 191.464 116.764C191.163 116.764 190.895 116.827 190.659 116.955C190.426 117.08 190.241 117.255 190.105 117.479C189.968 117.701 189.9 117.954 189.9 118.238V122.235H188.626ZM195.447 122.363C194.919 122.363 194.447 122.228 194.033 121.958C193.621 121.685 193.297 121.298 193.061 120.795C192.828 120.289 192.712 119.683 192.712 118.975C192.712 118.268 192.83 117.663 193.065 117.16C193.304 116.657 193.631 116.272 194.045 116.005C194.46 115.738 194.93 115.604 195.456 115.604C195.862 115.604 196.189 115.673 196.436 115.809C196.686 115.942 196.879 116.099 197.016 116.278C197.155 116.457 197.263 116.614 197.339 116.751H197.416V113.508H198.69V122.235H197.446V121.217H197.339C197.263 121.356 197.152 121.515 197.007 121.694C196.865 121.873 196.669 122.029 196.419 122.163C196.169 122.296 195.845 122.363 195.447 122.363ZM195.729 121.276C196.095 121.276 196.405 121.18 196.658 120.987C196.913 120.791 197.107 120.519 197.237 120.173C197.371 119.826 197.438 119.423 197.438 118.962C197.438 118.508 197.372 118.11 197.241 117.769C197.111 117.428 196.919 117.163 196.666 116.972C196.413 116.782 196.101 116.687 195.729 116.687C195.345 116.687 195.026 116.786 194.77 116.985C194.514 117.184 194.321 117.455 194.19 117.799C194.063 118.143 193.999 118.531 193.999 118.962C193.999 119.4 194.064 119.793 194.195 120.143C194.325 120.492 194.518 120.769 194.774 120.974C195.033 121.175 195.351 121.276 195.729 121.276ZM200.509 122.235V115.69H201.783V122.235H200.509ZM201.152 114.68C200.931 114.68 200.74 114.606 200.581 114.458C200.425 114.308 200.347 114.129 200.347 113.921C200.347 113.711 200.425 113.532 200.581 113.384C200.74 113.234 200.931 113.158 201.152 113.158C201.374 113.158 201.563 113.234 201.719 113.384C201.878 113.532 201.958 113.711 201.958 113.921C201.958 114.129 201.878 114.308 201.719 114.458C201.563 114.606 201.374 114.68 201.152 114.68ZM204.771 118.349V122.235H203.497V115.69H204.72V116.755H204.801C204.952 116.408 205.188 116.13 205.509 115.92C205.832 115.71 206.24 115.604 206.732 115.604C207.178 115.604 207.568 115.698 207.903 115.886C208.239 116.07 208.499 116.346 208.683 116.712C208.868 117.079 208.96 117.532 208.96 118.072V122.235H207.686V118.225C207.686 117.751 207.563 117.38 207.315 117.113C207.068 116.843 206.729 116.708 206.297 116.708C206.001 116.708 205.739 116.772 205.509 116.9C205.281 117.028 205.101 117.215 204.967 117.462C204.837 117.707 204.771 118.002 204.771 118.349ZM212.574 122.38C212.159 122.38 211.784 122.303 211.449 122.15C211.114 121.994 210.848 121.768 210.652 121.472C210.459 121.177 210.362 120.815 210.362 120.386C210.362 120.016 210.433 119.712 210.575 119.474C210.717 119.235 210.909 119.046 211.151 118.907C211.392 118.768 211.662 118.663 211.96 118.592C212.259 118.521 212.563 118.467 212.872 118.43C213.264 118.384 213.582 118.347 213.827 118.319C214.071 118.288 214.249 118.238 214.359 118.17C214.47 118.102 214.526 117.991 214.526 117.837V117.808C214.526 117.435 214.42 117.147 214.21 116.942C214.003 116.738 213.693 116.636 213.281 116.636C212.852 116.636 212.514 116.731 212.267 116.921C212.023 117.109 211.854 117.317 211.76 117.548L210.562 117.275C210.705 116.877 210.912 116.556 211.185 116.312C211.46 116.065 211.777 115.886 212.135 115.775C212.493 115.661 212.869 115.604 213.264 115.604C213.526 115.604 213.803 115.636 214.095 115.698C214.391 115.758 214.666 115.869 214.922 116.031C215.18 116.192 215.392 116.424 215.557 116.725C215.722 117.023 215.804 117.411 215.804 117.889V122.235H214.56V121.34H214.509C214.426 121.505 214.303 121.667 214.138 121.826C213.973 121.985 213.761 122.117 213.503 122.222C213.244 122.327 212.935 122.38 212.574 122.38ZM212.851 121.357C213.203 121.357 213.504 121.288 213.754 121.148C214.007 121.009 214.199 120.827 214.33 120.603C214.463 120.376 214.53 120.133 214.53 119.874V119.031C214.484 119.076 214.396 119.119 214.266 119.158C214.138 119.195 213.991 119.228 213.827 119.256C213.662 119.282 213.501 119.306 213.345 119.329C213.189 119.349 213.058 119.366 212.953 119.38C212.706 119.411 212.48 119.464 212.276 119.538C212.074 119.612 211.912 119.718 211.79 119.857C211.67 119.994 211.611 120.175 211.611 120.403C211.611 120.718 211.727 120.957 211.96 121.119C212.193 121.278 212.49 121.357 212.851 121.357ZM220.556 115.69V116.712H216.981V115.69H220.556ZM217.94 114.121H219.214V120.313C219.214 120.56 219.251 120.746 219.325 120.871C219.399 120.994 219.494 121.077 219.61 121.123C219.73 121.166 219.859 121.187 219.998 121.187C220.1 121.187 220.19 121.18 220.267 121.166C220.343 121.151 220.403 121.14 220.446 121.131L220.676 122.184C220.602 122.212 220.497 122.241 220.36 122.269C220.224 122.3 220.054 122.317 219.849 122.32C219.514 122.326 219.201 122.266 218.912 122.141C218.622 122.016 218.387 121.823 218.208 121.562C218.029 121.3 217.94 120.972 217.94 120.577V114.121ZM221.966 122.235V115.69H223.24V122.235H221.966ZM222.609 114.68C222.388 114.68 222.197 114.606 222.038 114.458C221.882 114.308 221.804 114.129 221.804 113.921C221.804 113.711 221.882 113.532 222.038 113.384C222.197 113.234 222.388 113.158 222.609 113.158C222.831 113.158 223.02 113.234 223.176 113.384C223.335 113.532 223.415 113.711 223.415 113.921C223.415 114.129 223.335 114.308 223.176 114.458C223.02 114.606 222.831 114.68 222.609 114.68ZM227.711 122.367C227.098 122.367 226.562 122.227 226.105 121.945C225.647 121.664 225.292 121.271 225.039 120.765C224.787 120.259 224.66 119.668 224.66 118.992C224.66 118.313 224.787 117.719 225.039 117.211C225.292 116.702 225.647 116.308 226.105 116.026C226.562 115.745 227.098 115.604 227.711 115.604C228.325 115.604 228.86 115.745 229.318 116.026C229.775 116.308 230.13 116.702 230.383 117.211C230.636 117.719 230.762 118.313 230.762 118.992C230.762 119.668 230.636 120.259 230.383 120.765C230.13 121.271 229.775 121.664 229.318 121.945C228.86 122.227 228.325 122.367 227.711 122.367ZM227.716 121.298C228.113 121.298 228.443 121.192 228.704 120.982C228.966 120.772 229.159 120.492 229.284 120.143C229.412 119.793 229.475 119.408 229.475 118.988C229.475 118.57 229.412 118.187 229.284 117.837C229.159 117.485 228.966 117.202 228.704 116.989C228.443 116.776 228.113 116.67 227.716 116.67C227.315 116.67 226.983 116.776 226.718 116.989C226.457 117.202 226.262 117.485 226.135 117.837C226.01 118.187 225.947 118.57 225.947 118.988C225.947 119.408 226.01 119.793 226.135 120.143C226.262 120.492 226.457 120.772 226.718 120.982C226.983 121.192 227.315 121.298 227.716 121.298ZM233.459 118.349V122.235H232.185V115.69H233.408V116.755H233.489C233.639 116.408 233.875 116.13 234.196 115.92C234.52 115.71 234.928 115.604 235.419 115.604C235.865 115.604 236.256 115.698 236.591 115.886C236.926 116.07 237.186 116.346 237.371 116.712C237.555 117.079 237.648 117.532 237.648 118.072V122.235H236.374V118.225C236.374 117.751 236.25 117.38 236.003 117.113C235.756 116.843 235.416 116.708 234.984 116.708C234.689 116.708 234.426 116.772 234.196 116.9C233.969 117.028 233.788 117.215 233.655 117.462C233.524 117.707 233.459 118.002 233.459 118.349Z" fill="#1C1903"/>
<path d="M115.034 148.235H112.209V139.508H115.124C115.979 139.508 116.713 139.683 117.327 140.032C117.94 140.379 118.411 140.877 118.737 141.528C119.067 142.175 119.232 142.952 119.232 143.859C119.232 144.768 119.065 145.549 118.733 146.202C118.403 146.856 117.926 147.359 117.301 147.711C116.676 148.06 115.92 148.235 115.034 148.235ZM113.526 147.085H114.962C115.626 147.085 116.179 146.96 116.619 146.71C117.06 146.457 117.389 146.092 117.608 145.614C117.827 145.134 117.936 144.549 117.936 143.859C117.936 143.174 117.827 142.593 117.608 142.116C117.392 141.639 117.07 141.276 116.641 141.029C116.212 140.782 115.679 140.658 115.043 140.658H113.526V147.085ZM123.588 148.367C122.943 148.367 122.387 148.229 121.922 147.954C121.458 147.675 121.1 147.285 120.848 146.782C120.598 146.276 120.473 145.684 120.473 145.005C120.473 144.335 120.598 143.744 120.848 143.232C121.1 142.721 121.453 142.322 121.904 142.035C122.359 141.748 122.89 141.604 123.498 141.604C123.868 141.604 124.225 141.666 124.572 141.788C124.919 141.91 125.23 142.102 125.505 142.363C125.781 142.624 125.998 142.964 126.157 143.381C126.316 143.796 126.396 144.3 126.396 144.894V145.346H121.193V144.391H125.147C125.147 144.056 125.079 143.759 124.943 143.501C124.806 143.239 124.615 143.033 124.368 142.883C124.123 142.732 123.836 142.657 123.507 142.657C123.149 142.657 122.836 142.745 122.569 142.921C122.305 143.094 122.1 143.322 121.956 143.603C121.814 143.881 121.743 144.184 121.743 144.511V145.256C121.743 145.694 121.819 146.066 121.973 146.373C122.129 146.68 122.346 146.914 122.625 147.076C122.903 147.235 123.228 147.315 123.6 147.315C123.842 147.315 124.062 147.281 124.261 147.212C124.46 147.141 124.632 147.036 124.777 146.897C124.922 146.758 125.032 146.586 125.109 146.381L126.315 146.599C126.218 146.954 126.045 147.265 125.795 147.532C125.548 147.796 125.237 148.002 124.862 148.15C124.49 148.295 124.065 148.367 123.588 148.367ZM130.567 148.367C129.933 148.367 129.388 148.224 128.93 147.937C128.476 147.647 128.126 147.248 127.882 146.739C127.638 146.231 127.516 145.648 127.516 144.992C127.516 144.327 127.641 143.741 127.891 143.232C128.141 142.721 128.493 142.322 128.947 142.035C129.402 141.748 129.938 141.604 130.554 141.604C131.051 141.604 131.494 141.697 131.884 141.881C132.273 142.063 132.587 142.319 132.825 142.648C133.067 142.978 133.21 143.363 133.256 143.803H132.016C131.947 143.496 131.791 143.232 131.547 143.011C131.305 142.789 130.982 142.678 130.575 142.678C130.22 142.678 129.909 142.772 129.642 142.96C129.378 143.144 129.172 143.408 129.024 143.752C128.876 144.093 128.803 144.496 128.803 144.962C128.803 145.44 128.875 145.852 129.02 146.198C129.165 146.545 129.369 146.813 129.634 147.004C129.901 147.194 130.214 147.289 130.575 147.289C130.817 147.289 131.036 147.245 131.232 147.157C131.43 147.066 131.597 146.937 131.73 146.769C131.866 146.602 131.962 146.4 132.016 146.164H133.256C133.21 146.587 133.072 146.965 132.842 147.298C132.612 147.63 132.304 147.891 131.918 148.082C131.534 148.272 131.084 148.367 130.567 148.367ZM134.618 148.235V141.69H135.892V148.235H134.618ZM135.262 140.68C135.04 140.68 134.85 140.606 134.691 140.458C134.534 140.308 134.456 140.129 134.456 139.921C134.456 139.711 134.534 139.532 134.691 139.384C134.85 139.234 135.04 139.158 135.262 139.158C135.483 139.158 135.672 139.234 135.828 139.384C135.988 139.532 136.067 139.711 136.067 139.921C136.067 140.129 135.988 140.308 135.828 140.458C135.672 140.606 135.483 140.68 135.262 140.68ZM142.511 143.288L141.357 143.492C141.308 143.344 141.232 143.204 141.126 143.07C141.024 142.937 140.885 142.827 140.709 142.742C140.533 142.657 140.313 142.614 140.048 142.614C139.688 142.614 139.386 142.695 139.145 142.857C138.903 143.016 138.783 143.222 138.783 143.475C138.783 143.694 138.864 143.87 139.026 144.004C139.188 144.137 139.449 144.246 139.81 144.332L140.849 144.57C141.452 144.71 141.901 144.924 142.196 145.214C142.491 145.504 142.639 145.88 142.639 146.343C142.639 146.735 142.526 147.085 142.298 147.391C142.074 147.695 141.76 147.934 141.357 148.107C140.956 148.281 140.491 148.367 139.963 148.367C139.23 148.367 138.632 148.211 138.169 147.898C137.706 147.583 137.422 147.136 137.317 146.556L138.548 146.369C138.625 146.69 138.783 146.933 139.021 147.097C139.26 147.259 139.571 147.34 139.955 147.34C140.372 147.34 140.706 147.254 140.956 147.08C141.206 146.904 141.331 146.69 141.331 146.437C141.331 146.232 141.254 146.06 141.101 145.921C140.95 145.782 140.719 145.677 140.406 145.606L139.298 145.363C138.688 145.224 138.236 145.002 137.943 144.698C137.653 144.394 137.509 144.009 137.509 143.543C137.509 143.157 137.616 142.819 137.832 142.529C138.048 142.239 138.347 142.014 138.727 141.852C139.108 141.687 139.544 141.604 140.036 141.604C140.743 141.604 141.3 141.758 141.706 142.065C142.112 142.369 142.381 142.776 142.511 143.288ZM144.04 148.235V141.69H145.314V148.235H144.04ZM144.684 140.68C144.462 140.68 144.272 140.606 144.113 140.458C143.956 140.308 143.878 140.129 143.878 139.921C143.878 139.711 143.956 139.532 144.113 139.384C144.272 139.234 144.462 139.158 144.684 139.158C144.905 139.158 145.094 139.234 145.25 139.384C145.409 139.532 145.489 139.711 145.489 139.921C145.489 140.129 145.409 140.308 145.25 140.458C145.094 140.606 144.905 140.68 144.684 140.68ZM149.786 148.367C149.172 148.367 148.636 148.227 148.179 147.945C147.722 147.664 147.366 147.271 147.114 146.765C146.861 146.259 146.734 145.668 146.734 144.992C146.734 144.313 146.861 143.719 147.114 143.211C147.366 142.702 147.722 142.308 148.179 142.026C148.636 141.745 149.172 141.604 149.786 141.604C150.399 141.604 150.935 141.745 151.392 142.026C151.849 142.308 152.205 142.702 152.457 143.211C152.71 143.719 152.837 144.313 152.837 144.992C152.837 145.668 152.71 146.259 152.457 146.765C152.205 147.271 151.849 147.664 151.392 147.945C150.935 148.227 150.399 148.367 149.786 148.367ZM149.79 147.298C150.188 147.298 150.517 147.192 150.778 146.982C151.04 146.772 151.233 146.492 151.358 146.143C151.486 145.793 151.55 145.408 151.55 144.988C151.55 144.57 151.486 144.187 151.358 143.837C151.233 143.485 151.04 143.202 150.778 142.989C150.517 142.776 150.188 142.67 149.79 142.67C149.389 142.67 149.057 142.776 148.793 142.989C148.531 143.202 148.337 143.485 148.209 143.837C148.084 144.187 148.021 144.57 148.021 144.988C148.021 145.408 148.084 145.793 148.209 146.143C148.337 146.492 148.531 146.772 148.793 146.982C149.057 147.192 149.389 147.298 149.79 147.298ZM155.533 144.349V148.235H154.259V141.69H155.482V142.755H155.563C155.713 142.408 155.949 142.13 156.27 141.92C156.594 141.71 157.002 141.604 157.493 141.604C157.939 141.604 158.33 141.698 158.665 141.886C159 142.07 159.26 142.346 159.445 142.712C159.63 143.079 159.722 143.532 159.722 144.072V148.235H158.448V144.225C158.448 143.751 158.324 143.38 158.077 143.113C157.83 142.843 157.49 142.708 157.059 142.708C156.763 142.708 156.5 142.772 156.27 142.9C156.043 143.028 155.863 143.215 155.729 143.462C155.598 143.707 155.533 144.002 155.533 144.349ZM117.515 163.235V156.69H118.738V157.755H118.819C118.955 157.394 119.178 157.113 119.488 156.911C119.797 156.707 120.168 156.604 120.6 156.604C121.037 156.604 121.404 156.707 121.699 156.911C121.998 157.116 122.218 157.397 122.36 157.755H122.428C122.584 157.406 122.833 157.127 123.174 156.92C123.515 156.71 123.921 156.604 124.393 156.604C124.986 156.604 125.471 156.791 125.846 157.163C126.224 157.535 126.412 158.096 126.412 158.846V163.235H125.138V158.965C125.138 158.522 125.018 158.201 124.776 158.002C124.535 157.803 124.246 157.704 123.911 157.704C123.496 157.704 123.174 157.832 122.944 158.087C122.714 158.34 122.599 158.666 122.599 159.063V163.235H121.329V158.884C121.329 158.529 121.218 158.244 120.996 158.028C120.775 157.812 120.486 157.704 120.131 157.704C119.89 157.704 119.667 157.768 119.462 157.896C119.26 158.021 119.097 158.195 118.972 158.42C118.85 158.644 118.789 158.904 118.789 159.2V163.235H117.515ZM130.025 163.38C129.61 163.38 129.235 163.303 128.9 163.15C128.565 162.994 128.299 162.768 128.103 162.472C127.91 162.177 127.813 161.815 127.813 161.386C127.813 161.016 127.884 160.712 128.026 160.474C128.169 160.235 128.36 160.046 128.602 159.907C128.843 159.768 129.113 159.663 129.411 159.592C129.71 159.521 130.014 159.467 130.323 159.43C130.715 159.384 131.034 159.347 131.278 159.319C131.522 159.288 131.7 159.238 131.811 159.17C131.921 159.102 131.977 158.991 131.977 158.837V158.808C131.977 158.435 131.872 158.147 131.661 157.942C131.454 157.738 131.144 157.636 130.732 157.636C130.303 157.636 129.965 157.731 129.718 157.921C129.474 158.109 129.305 158.317 129.211 158.548L128.014 158.275C128.156 157.877 128.363 157.556 128.636 157.312C128.911 157.065 129.228 156.886 129.586 156.775C129.944 156.661 130.32 156.604 130.715 156.604C130.977 156.604 131.254 156.636 131.546 156.698C131.842 156.758 132.117 156.869 132.373 157.031C132.632 157.192 132.843 157.424 133.008 157.725C133.173 158.023 133.255 158.411 133.255 158.889V163.235H132.011V162.34H131.96C131.877 162.505 131.754 162.667 131.589 162.826C131.424 162.985 131.213 163.117 130.954 163.222C130.695 163.327 130.386 163.38 130.025 163.38ZM130.302 162.357C130.654 162.357 130.955 162.288 131.205 162.148C131.458 162.009 131.65 161.827 131.781 161.603C131.914 161.376 131.981 161.133 131.981 160.874V160.031C131.936 160.076 131.847 160.119 131.717 160.158C131.589 160.195 131.443 160.228 131.278 160.256C131.113 160.282 130.953 160.306 130.796 160.329C130.64 160.349 130.509 160.366 130.404 160.38C130.157 160.411 129.931 160.464 129.727 160.538C129.525 160.612 129.363 160.718 129.241 160.857C129.122 160.994 129.062 161.175 129.062 161.403C129.062 161.718 129.178 161.957 129.411 162.119C129.644 162.278 129.941 162.357 130.302 162.357ZM136.124 161.015L136.116 159.46H136.337L138.945 156.69H140.471L137.496 159.843H137.296L136.124 161.015ZM134.952 163.235V154.508H136.226V163.235H134.952ZM139.086 163.235L136.742 160.124L137.62 159.234L140.65 163.235H139.086ZM141.632 163.235V156.69H142.906V163.235H141.632ZM142.275 155.68C142.054 155.68 141.863 155.606 141.704 155.458C141.548 155.308 141.47 155.129 141.47 154.921C141.47 154.711 141.548 154.532 141.704 154.384C141.863 154.234 142.054 154.158 142.275 154.158C142.497 154.158 142.686 154.234 142.842 154.384C143.001 154.532 143.081 154.711 143.081 154.921C143.081 155.129 143.001 155.308 142.842 155.458C142.686 155.606 142.497 155.68 142.275 155.68ZM145.894 159.349V163.235H144.62V156.69H145.843V157.755H145.924C146.075 157.408 146.311 157.13 146.632 156.92C146.955 156.71 147.363 156.604 147.855 156.604C148.301 156.604 148.691 156.698 149.026 156.886C149.362 157.07 149.622 157.346 149.806 157.712C149.991 158.079 150.083 158.532 150.083 159.072V163.235H148.809V159.225C148.809 158.751 148.686 158.38 148.438 158.113C148.191 157.843 147.852 157.708 147.42 157.708C147.124 157.708 146.862 157.772 146.632 157.9C146.404 158.028 146.224 158.215 146.09 158.462C145.96 158.707 145.894 159.002 145.894 159.349ZM154.536 165.826C154.017 165.826 153.569 165.758 153.194 165.621C152.822 165.485 152.518 165.305 152.282 165.08C152.046 164.856 151.87 164.61 151.754 164.343L152.849 163.891C152.926 164.016 153.028 164.148 153.156 164.288C153.286 164.43 153.463 164.55 153.684 164.65C153.909 164.749 154.197 164.799 154.549 164.799C155.032 164.799 155.431 164.681 155.747 164.445C156.062 164.212 156.22 163.84 156.22 163.329V162.042H156.139C156.062 162.181 155.951 162.336 155.806 162.506C155.664 162.677 155.468 162.825 155.218 162.95C154.968 163.075 154.643 163.137 154.242 163.137C153.725 163.137 153.259 163.016 152.845 162.775C152.433 162.531 152.106 162.171 151.865 161.697C151.626 161.219 151.507 160.633 151.507 159.937C151.507 159.241 151.624 158.644 151.86 158.147C152.099 157.65 152.426 157.269 152.84 157.005C153.255 156.738 153.725 156.604 154.251 156.604C154.657 156.604 154.985 156.673 155.235 156.809C155.485 156.942 155.68 157.099 155.819 157.278C155.961 157.457 156.07 157.614 156.147 157.751H156.241V156.69H157.49V163.38C157.49 163.942 157.359 164.404 157.097 164.765C156.836 165.126 156.482 165.393 156.036 165.566C155.593 165.739 155.093 165.826 154.536 165.826ZM154.524 162.08C154.89 162.08 155.2 161.995 155.453 161.825C155.708 161.651 155.901 161.404 156.032 161.083C156.166 160.759 156.232 160.371 156.232 159.92C156.232 159.479 156.167 159.092 156.036 158.756C155.906 158.421 155.714 158.16 155.461 157.972C155.208 157.782 154.896 157.687 154.524 157.687C154.14 157.687 153.82 157.786 153.565 157.985C153.309 158.181 153.116 158.448 152.985 158.786C152.857 159.124 152.794 159.502 152.794 159.92C152.794 160.349 152.859 160.725 152.99 161.049C153.12 161.373 153.313 161.626 153.569 161.808C153.828 161.989 154.146 162.08 154.524 162.08Z" fill="#1C1903"/>
<path d="M101.567 188.883C101.567 189.689 100.914 190.342 100.108 190.342H92.8606C92.0547 190.342 91.4014 189.689 91.4014 188.883C91.4014 188.077 92.0547 187.424 92.8606 187.424H100.108C100.914 187.424 101.567 188.077 101.567 188.883Z" fill="#EA5A47"/>
<path d="M101.835 189.856C101.835 192.542 99.4393 194.72 96.4843 194.72C93.5292 194.72 91.1338 192.542 91.1338 189.856" fill="#EA5A47"/>
<path d="M101.701 189.856C101.627 189.856 101.567 189.796 101.567 189.722V188.384C101.567 187.854 101.137 187.424 100.607 187.424C100.037 187.424 99.5972 187.918 99.5837 188.487C99.5439 190.158 98.9889 192.643 96.3951 194.354C96.2315 194.462 96.2883 194.72 96.4842 194.72C99.39 194.72 101.755 192.614 101.833 189.99C101.835 189.916 101.775 189.856 101.701 189.856Z" fill="#D22F27"/>
<path d="M92.2039 200.313H100.765M96.4843 194.72V200.313M96.4843 194.72C98.5656 194.72 100.37 193.639 101.254 192.062C101.626 191.399 101.835 190.65 101.835 189.856V185.235M96.4843 194.72C93.5292 194.72 91.1338 192.542 91.1338 189.856V185.235" stroke="#1C1903" stroke-miterlimit="10" stroke-linecap="round" stroke-linejoin="round"/>
<path d="M91 187.546H101.701" stroke="#1C1903" stroke-miterlimit="10"/>
<path d="M97.5673 188.883C97.5673 189.689 96.914 190.342 96.1081 190.342H88.8606C88.0547 190.342 87.4014 189.689 87.4014 188.883C87.4014 188.077 88.0547 187.424 88.8606 187.424H96.1081C96.914 187.424 97.5673 188.077 97.5673 188.883Z" fill="#EA5A47"/>
<path d="M97.8348 189.856C97.8348 192.542 95.4393 194.72 92.4843 194.72C89.5292 194.72 87.1338 192.542 87.1338 189.856" fill="#EA5A47"/>
<path d="M97.7009 189.856C97.6271 189.856 97.5672 189.796 97.5672 189.722V188.384C97.5672 187.854 97.1373 187.424 96.6069 187.424C96.0375 187.424 95.5972 187.918 95.5837 188.487C95.5439 190.158 94.9889 192.643 92.3951 194.354C92.2315 194.462 92.2883 194.72 92.4842 194.72C95.39 194.72 97.7546 192.614 97.8327 189.99C97.8349 189.916 97.7748 189.856 97.7009 189.856Z" fill="#D22F27"/>
<path d="M88.2039 200.313H96.7647M92.4843 194.72V200.313M92.4843 194.72C94.5656 194.72 96.3698 193.639 97.2542 192.062C97.6256 191.399 97.8348 190.65 97.8348 189.856V185.235M92.4843 194.72C89.5292 194.72 87.1338 192.542 87.1338 189.856V185.235" stroke="#1C1903" stroke-miterlimit="10" stroke-linecap="round" stroke-linejoin="round"/>
<path d="M87 187.546H97.701" stroke="#1C1903" stroke-miterlimit="10"/>
<path d="M93.5673 188.883C93.5673 189.689 92.914 190.342 92.1081 190.342H84.8606C84.0547 190.342 83.4014 189.689 83.4014 188.883C83.4014 188.077 84.0547 187.424 84.8606 187.424H92.1081C92.914 187.424 93.5673 188.077 93.5673 188.883Z" fill="#EA5A47"/>
<path d="M93.8348 189.856C93.8348 192.542 91.4393 194.72 88.4843 194.72C85.5292 194.72 83.1338 192.542 83.1338 189.856" fill="#EA5A47"/>
<path d="M93.7009 189.856C93.6271 189.856 93.5672 189.796 93.5672 189.722V188.384C93.5672 187.854 93.1373 187.424 92.6069 187.424C92.0375 187.424 91.5972 187.918 91.5837 188.487C91.5439 190.158 90.9889 192.643 88.3951 194.354C88.2315 194.462 88.2883 194.72 88.4842 194.72C91.39 194.72 93.7546 192.614 93.8327 189.99C93.8349 189.916 93.7748 189.856 93.7009 189.856Z" fill="#D22F27"/>
<path d="M84.2039 200.313H92.7647M88.4843 194.72V200.313M88.4843 194.72C90.5656 194.72 92.3698 193.639 93.2542 192.062C93.6256 191.399 93.8348 190.65 93.8348 189.856V185.235M88.4843 194.72C85.5292 194.72 83.1338 192.542 83.1338 189.856V185.235" stroke="#1C1903" stroke-miterlimit="10" stroke-linecap="round" stroke-linejoin="round"/>
<path d="M83 187.546H93.701" stroke="#1C1903" stroke-miterlimit="10"/>
<path d="M1 94.2351C0.447715 94.2351 0 94.6828 0 95.2351C0 95.7874 0.447715 96.2351 1 96.2351V94.2351ZM39.4005 95.2351V96.2351H39.5456L39.6846 96.1939L39.4005 95.2351ZM81.292 82.8213L81.5761 83.7801L81.6597 83.7553L81.7377 83.7165L81.292 82.8213ZM138.145 54.5179L137.802 53.5784L137.749 53.5976L137.699 53.6227L138.145 54.5179ZM173.553 41.6075L173.896 42.547L174.077 42.4807L174.221 42.3514L173.553 41.6075ZM194 23.2351L182.703 25.6242L190.42 34.2133L194 23.2351ZM1 96.2351H39.4005V94.2351H1V96.2351ZM39.6846 96.1939L81.5761 83.7801L81.0079 81.8625L39.1164 94.2763L39.6846 96.1939ZM81.7377 83.7165L138.59 55.4131L137.699 53.6227L80.8463 81.9261L81.7377 83.7165ZM138.487 55.4574L173.896 42.547L173.21 40.668L137.802 53.5784L138.487 55.4574ZM174.221 42.3514L187.974 29.9942L186.637 28.5065L172.885 40.8637L174.221 42.3514Z" fill="#D4AA01"/>
<path d="M1 96.7351C0.447715 96.7351 0 97.1828 0 97.7351C0 98.2874 0.447715 98.7351 1 98.7351V96.7351ZM39 97.7351L39.2666 96.7713L39.1357 96.7351H39V97.7351ZM62.5 104.235L62.7762 103.274L62.7666 103.271L62.5 104.235ZM106 116.735L105.724 117.696L105.743 117.702L105.763 117.707L106 116.735ZM151 127.735L151.393 126.815L151.317 126.783L151.237 126.764L151 127.735ZM195.5 146.735L188.57 137.499L184.036 148.118L195.5 146.735ZM1 98.7351H2.35714V96.7351H1V98.7351ZM7.78571 98.7351H18.6429V96.7351H7.78571V98.7351ZM21.3571 98.7351H26.7857V96.7351H21.3571V98.7351ZM37.6429 98.7351H39V96.7351H37.6429V98.7351ZM38.7334 98.6989L39.5727 98.9311L40.1059 97.0034L39.2666 96.7713L38.7334 98.6989ZM42.9298 99.8596L49.6441 101.717L50.1773 99.7892L43.463 97.932L42.9298 99.8596ZM51.3227 102.181L54.6798 103.11L55.213 101.182L51.8559 100.253L51.3227 102.181ZM61.3941 104.967L62.2334 105.199L62.7666 103.271L61.9273 103.039L61.3941 104.967ZM62.2238 105.196L63.0006 105.419L63.553 103.497L62.7762 103.274L62.2238 105.196ZM66.1077 106.312L72.322 108.098L72.8744 106.176L66.6601 104.39L66.1077 106.312ZM73.8756 108.544L76.9827 109.437L77.5351 107.515L74.428 106.622L73.8756 108.544ZM83.197 111.223L84.7506 111.669L85.303 109.747L83.7494 109.301L83.197 111.223ZM87.8577 112.562L94.072 114.348L94.6244 112.426L88.4101 110.64L87.8577 112.562ZM95.6256 114.794L98.7327 115.687L99.2851 113.765L96.178 112.872L95.6256 114.794ZM104.947 117.473L105.724 117.696L106.276 115.774L105.499 115.551L104.947 117.473ZM105.763 117.707L106.566 117.903L107.041 115.96L106.237 115.764L105.763 117.707ZM109.78 118.689L116.209 120.26L116.684 118.317L110.255 116.746L109.78 118.689ZM117.816 120.653L121.03 121.439L121.505 119.496L118.291 118.71L117.816 120.653ZM127.459 123.01L129.066 123.403L129.541 121.46L127.934 121.067L127.459 123.01ZM132.28 124.189L138.709 125.76L139.184 123.817L132.755 122.246L132.28 124.189ZM140.316 126.153L143.53 126.939L144.005 124.996L140.791 124.21L140.316 126.153ZM149.959 128.51L150.763 128.707L151.237 126.764L150.434 126.567L149.959 128.51ZM150.607 128.655L151.402 128.994L152.187 127.155L151.393 126.815L150.607 128.655ZM154.581 130.351L160.938 133.066L161.723 131.226L155.366 128.512L154.581 130.351ZM162.527 133.744L165.706 135.101L166.491 133.262L163.312 131.905L162.527 133.744ZM172.063 137.816L173.652 138.494L174.437 136.655L172.848 135.976L172.063 137.816ZM176.831 139.851L183.188 142.566L183.973 140.726L177.616 138.012L176.831 139.851ZM184.777 143.244L187.956 144.601L188.741 142.762L185.562 141.405L184.777 143.244Z" fill="black"/>
</svg>
