<svg width="243" height="201" viewBox="0 0 243 201" fill="none" xmlns="http://www.w3.org/2000/svg">
<path d="M17.5673 188.726C17.5673 189.532 16.914 190.186 16.1081 190.186H8.86056C8.05467 190.186 7.40137 189.532 7.40137 188.726C7.40137 187.92 8.05467 187.267 8.86056 187.267H16.1081C16.914 187.267 17.5673 187.92 17.5673 188.726Z" fill="#EA5A47"/>
<path d="M17.8348 189.699C17.8348 192.386 15.4393 194.563 12.4843 194.563C9.5292 194.563 7.13379 192.386 7.13379 189.699" fill="#EA5A47"/>
<path d="M17.7009 189.699C17.6271 189.699 17.5672 189.639 17.5672 189.565V188.227C17.5672 187.697 17.1373 187.267 16.6069 187.267C16.0375 187.267 15.5972 187.761 15.5837 188.331C15.5439 190.002 14.9889 192.487 12.3951 194.198C12.2315 194.306 12.2883 194.563 12.4842 194.563C15.39 194.563 17.7546 192.458 17.8327 189.833C17.8349 189.759 17.7748 189.699 17.7009 189.699Z" fill="#D22F27"/>
<path d="M8.20389 200.157H16.7647M12.4843 194.563V200.157M12.4843 194.563C14.5656 194.563 16.3698 193.483 17.2542 191.905C17.6256 191.243 17.8348 190.493 17.8348 189.699V185.078M12.4843 194.563C9.5292 194.563 7.13379 192.386 7.13379 189.699V185.078" stroke="#1C1903" stroke-miterlimit="10" stroke-linecap="round" stroke-linejoin="round"/>
<path d="M7 187.389H17.701" stroke="#1C1903" stroke-miterlimit="10"/>
<path d="M57.5673 188.726C57.5673 189.532 56.914 190.186 56.1081 190.186H48.8606C48.0547 190.186 47.4014 189.532 47.4014 188.726C47.4014 187.92 48.0547 187.267 48.8606 187.267H56.1081C56.914 187.267 57.5673 187.92 57.5673 188.726Z" fill="#EA5A47"/>
<path d="M57.8348 189.699C57.8348 192.386 55.4393 194.563 52.4843 194.563C49.5292 194.563 47.1338 192.386 47.1338 189.699" fill="#EA5A47"/>
<path d="M57.7009 189.699C57.6271 189.699 57.5672 189.639 57.5672 189.565V188.227C57.5672 187.697 57.1373 187.267 56.6069 187.267C56.0375 187.267 55.5972 187.761 55.5837 188.331C55.5439 190.002 54.9889 192.487 52.3951 194.198C52.2315 194.306 52.2883 194.563 52.4842 194.563C55.39 194.563 57.7546 192.458 57.8327 189.833C57.8349 189.759 57.7748 189.699 57.7009 189.699Z" fill="#D22F27"/>
<path d="M48.2039 200.157H56.7647M52.4843 194.563V200.157M52.4843 194.563C54.5656 194.563 56.3698 193.483 57.2542 191.905C57.6256 191.243 57.8348 190.493 57.8348 189.699V185.078M52.4843 194.563C49.5292 194.563 47.1338 192.386 47.1338 189.699V185.078" stroke="#1C1903" stroke-miterlimit="10" stroke-linecap="round" stroke-linejoin="round"/>
<path d="M47 187.389H57.701" stroke="#1C1903" stroke-miterlimit="10"/>
<path d="M53.5673 188.726C53.5673 189.532 52.914 190.186 52.1081 190.186H44.8606C44.0547 190.186 43.4014 189.532 43.4014 188.726C43.4014 187.92 44.0547 187.267 44.8606 187.267H52.1081C52.914 187.267 53.5673 187.92 53.5673 188.726Z" fill="#EA5A47"/>
<path d="M53.8348 189.699C53.8348 192.386 51.4393 194.563 48.4843 194.563C45.5292 194.563 43.1338 192.386 43.1338 189.699" fill="#EA5A47"/>
<path d="M53.7009 189.699C53.6271 189.699 53.5672 189.639 53.5672 189.565V188.227C53.5672 187.697 53.1373 187.267 52.6069 187.267C52.0375 187.267 51.5972 187.761 51.5837 188.331C51.5439 190.002 50.9889 192.487 48.3951 194.198C48.2315 194.306 48.2883 194.563 48.4842 194.563C51.39 194.563 53.7546 192.458 53.8327 189.833C53.8349 189.759 53.7748 189.699 53.7009 189.699Z" fill="#D22F27"/>
<path d="M44.2039 200.157H52.7647M48.4843 194.563V200.157M48.4843 194.563C50.5656 194.563 52.3698 193.483 53.2542 191.905C53.6256 191.243 53.8348 190.493 53.8348 189.699V185.078M48.4843 194.563C45.5292 194.563 43.1338 192.386 43.1338 189.699V185.078" stroke="#1C1903" stroke-miterlimit="10" stroke-linecap="round" stroke-linejoin="round"/>
<path d="M43 187.389H53.701" stroke="#1C1903" stroke-miterlimit="10"/>
<path d="M1 91.0784C0.447715 91.0784 0 91.5261 0 92.0784C0 92.6307 0.447715 93.0784 1 93.0784V91.0784ZM36.2742 92.0784L36.3286 91.0799L36.3014 91.0784H36.2742V92.0784ZM72.0522 94.0284L72.2724 93.0529L72.1905 93.0344L72.1066 93.0299L72.0522 94.0284ZM117.405 104.266L108.921 96.4322L106.379 107.696L117.405 104.266ZM1 93.0784H3.20463V91.0784H1V93.0784ZM7.6139 93.0784H12.0232V91.0784H7.6139V93.0784ZM16.4324 93.0784H20.8417V91.0784H16.4324V93.0784ZM25.251 93.0784H29.6602V91.0784H25.251V93.0784ZM34.0695 93.0784H36.2742V91.0784H34.0695V93.0784ZM36.2197 93.0769L38.4559 93.1988L38.5647 91.2017L36.3286 91.0799L36.2197 93.0769ZM42.9281 93.4425L47.4004 93.6863L47.5092 91.6892L43.037 91.4455L42.9281 93.4425ZM51.8726 93.93L56.3449 94.1738L56.4537 92.1767L51.9815 91.933L51.8726 93.93ZM60.8171 94.4175L65.2894 94.6613L65.3982 92.6642L60.926 92.4205L60.8171 94.4175ZM69.7617 94.905L71.9978 95.0269L72.1066 93.0299L69.8705 92.908L69.7617 94.905ZM71.832 95.0038L73.7217 95.4304L74.1621 93.4795L72.2724 93.0529L71.832 95.0038ZM77.5011 96.2835L81.2805 97.1366L81.7208 95.1857L77.9415 94.3326L77.5011 96.2835ZM85.0598 97.9898L88.8392 98.8429L89.2796 96.892L85.5002 96.0388L85.0598 97.9898ZM92.6186 99.696L96.398 100.549L96.8383 98.5982L93.059 97.7451L92.6186 99.696ZM100.177 101.402L103.957 102.255L104.397 100.304L100.618 99.4514L100.177 101.402ZM107.736 103.109L111.515 103.962L111.956 102.011L108.176 101.158L107.736 103.109Z" fill="#FF0000"/>
<path d="M139.135 48V39.2727H144.606V40.4062H140.451V43.0653H144.321V44.1946H140.451V46.8665H144.657V48H139.135ZM150.409 45.2855V41.4545H151.688V48H150.435V46.8665H150.366C150.216 47.2159 149.974 47.5071 149.642 47.7401C149.313 47.9702 148.902 48.0852 148.411 48.0852C147.99 48.0852 147.618 47.9929 147.294 47.8082C146.973 47.6207 146.72 47.3438 146.536 46.9773C146.354 46.6108 146.263 46.1577 146.263 45.6179V41.4545H147.537V45.4645C147.537 45.9105 147.661 46.2656 147.908 46.5298C148.155 46.794 148.476 46.9261 148.871 46.9261C149.109 46.9261 149.347 46.8665 149.582 46.7472C149.821 46.6278 150.018 46.4474 150.175 46.206C150.334 45.9645 150.412 45.6577 150.409 45.2855ZM153.4 50.4545V41.4545H154.644V42.5156H154.75C154.824 42.3793 154.931 42.2216 155.07 42.0426C155.209 41.8636 155.402 41.7074 155.65 41.5739C155.897 41.4375 156.223 41.3693 156.63 41.3693C157.158 41.3693 157.63 41.5028 158.044 41.7699C158.459 42.0369 158.784 42.4219 159.02 42.9247C159.259 43.4276 159.378 44.0327 159.378 44.7401C159.378 45.4474 159.26 46.054 159.025 46.5597C158.789 47.0625 158.465 47.4503 158.053 47.723C157.641 47.9929 157.171 48.1278 156.642 48.1278C156.245 48.1278 155.919 48.0611 155.667 47.9276C155.417 47.794 155.221 47.6378 155.078 47.4588C154.936 47.2798 154.827 47.1207 154.75 46.9815H154.674V50.4545H153.4ZM154.648 44.7273C154.648 45.1875 154.715 45.5909 154.848 45.9375C154.982 46.2841 155.175 46.5554 155.428 46.7514C155.681 46.9446 155.99 47.0412 156.357 47.0412C156.738 47.0412 157.056 46.9403 157.311 46.7386C157.567 46.5341 157.76 46.2571 157.891 45.9077C158.025 45.5582 158.091 45.1648 158.091 44.7273C158.091 44.2955 158.026 43.9077 157.895 43.5639C157.767 43.2202 157.574 42.9489 157.316 42.75C157.06 42.5511 156.74 42.4517 156.357 42.4517C155.988 42.4517 155.675 42.5469 155.419 42.7372C155.167 42.9276 154.975 43.1932 154.844 43.5341C154.713 43.875 154.648 44.2727 154.648 44.7273ZM162.08 44.1136V48H160.806V39.2727H162.063V42.5199H162.144C162.297 42.1676 162.532 41.8878 162.847 41.6804C163.162 41.473 163.574 41.3693 164.083 41.3693C164.532 41.3693 164.924 41.4616 165.259 41.6463C165.597 41.831 165.858 42.1065 166.043 42.473C166.23 42.8366 166.324 43.2912 166.324 43.8366V48H165.05V43.9901C165.05 43.5099 164.926 43.1378 164.679 42.8736C164.432 42.6065 164.088 42.473 163.648 42.473C163.347 42.473 163.077 42.5369 162.838 42.6648C162.603 42.7926 162.417 42.9801 162.28 43.2273C162.147 43.4716 162.08 43.767 162.08 44.1136ZM170.782 48.1321C170.168 48.1321 169.632 47.9915 169.175 47.7102C168.718 47.429 168.363 47.0355 168.11 46.5298C167.857 46.0241 167.73 45.4332 167.73 44.7571C167.73 44.0781 167.857 43.4844 168.11 42.9759C168.363 42.4673 168.718 42.0724 169.175 41.7912C169.632 41.5099 170.168 41.3693 170.782 41.3693C171.395 41.3693 171.931 41.5099 172.388 41.7912C172.846 42.0724 173.201 42.4673 173.453 42.9759C173.706 43.4844 173.833 44.0781 173.833 44.7571C173.833 45.4332 173.706 46.0241 173.453 46.5298C173.201 47.0355 172.846 47.429 172.388 47.7102C171.931 47.9915 171.395 48.1321 170.782 48.1321ZM170.786 47.0625C171.184 47.0625 171.513 46.9574 171.775 46.7472C172.036 46.5369 172.229 46.2571 172.354 45.9077C172.482 45.5582 172.546 45.1733 172.546 44.7528C172.546 44.3352 172.482 43.9517 172.354 43.6023C172.229 43.25 172.036 42.9673 171.775 42.7543C171.513 42.5412 171.184 42.4347 170.786 42.4347C170.385 42.4347 170.053 42.5412 169.789 42.7543C169.527 42.9673 169.333 43.25 169.205 43.6023C169.08 43.9517 169.017 44.3352 169.017 44.7528C169.017 45.1733 169.08 45.5582 169.205 45.9077C169.333 46.2571 169.527 46.5369 169.789 46.7472C170.053 46.9574 170.385 47.0625 170.786 47.0625ZM175.255 48V41.4545H176.487V42.4943H176.555C176.674 42.142 176.884 41.8651 177.185 41.6634C177.489 41.4588 177.833 41.3565 178.217 41.3565C178.296 41.3565 178.39 41.3594 178.498 41.3651C178.609 41.3707 178.695 41.3778 178.758 41.3864V42.6051C178.707 42.5909 178.616 42.5753 178.485 42.5582C178.354 42.5384 178.224 42.5284 178.093 42.5284C177.792 42.5284 177.523 42.5923 177.288 42.7202C177.055 42.8452 176.87 43.0199 176.734 43.2443C176.597 43.4659 176.529 43.7187 176.529 44.0028V48H175.255ZM179.86 48V41.4545H181.135V48H179.86ZM180.504 40.4446C180.282 40.4446 180.092 40.3707 179.933 40.223C179.777 40.0724 179.699 39.8935 179.699 39.6861C179.699 39.4759 179.777 39.2969 179.933 39.1491C180.092 38.9986 180.282 38.9233 180.504 38.9233C180.725 38.9233 180.914 38.9986 181.071 39.1491C181.23 39.2969 181.309 39.4759 181.309 39.6861C181.309 39.8935 181.23 40.0724 181.071 40.223C180.914 40.3707 180.725 40.4446 180.504 40.4446ZM184.754 48.1449C184.339 48.1449 183.964 48.0682 183.629 47.9148C183.293 47.7585 183.028 47.5327 182.832 47.2372C182.638 46.9418 182.542 46.5795 182.542 46.1506C182.542 45.7812 182.613 45.4773 182.755 45.2386C182.897 45 183.089 44.8111 183.33 44.6719C183.572 44.5327 183.842 44.4276 184.14 44.3565C184.438 44.2855 184.742 44.2315 185.052 44.1946C185.444 44.1491 185.762 44.1122 186.006 44.0838C186.251 44.0526 186.428 44.0028 186.539 43.9347C186.65 43.8665 186.705 43.7557 186.705 43.6023V43.5724C186.705 43.2003 186.6 42.9119 186.39 42.7074C186.183 42.5028 185.873 42.4006 185.461 42.4006C185.032 42.4006 184.694 42.4957 184.447 42.6861C184.202 42.8736 184.033 43.0824 183.94 43.3125L182.742 43.0398C182.884 42.642 183.092 42.321 183.364 42.0767C183.64 41.8295 183.957 41.6506 184.315 41.5398C184.673 41.4261 185.049 41.3693 185.444 41.3693C185.705 41.3693 185.982 41.4006 186.275 41.4631C186.57 41.5227 186.846 41.6335 187.102 41.7955C187.36 41.9574 187.572 42.1889 187.737 42.4901C187.901 42.7884 187.984 43.1761 187.984 43.6534V48H186.739V47.1051H186.688C186.606 47.2699 186.482 47.4318 186.317 47.5909C186.153 47.75 185.941 47.8821 185.683 47.9872C185.424 48.0923 185.114 48.1449 184.754 48.1449ZM185.031 47.1222C185.383 47.1222 185.684 47.0526 185.934 46.9134C186.187 46.7741 186.379 46.5923 186.509 46.3679C186.643 46.1406 186.71 45.8977 186.71 45.6392V44.7955C186.664 44.8409 186.576 44.8835 186.445 44.9233C186.317 44.9602 186.171 44.9929 186.006 45.0213C185.842 45.0469 185.681 45.071 185.525 45.0938C185.369 45.1136 185.238 45.1307 185.133 45.1449C184.886 45.1761 184.66 45.2287 184.455 45.3026C184.254 45.3764 184.092 45.483 183.969 45.6222C183.85 45.7585 183.79 45.9403 183.79 46.1676C183.79 46.483 183.907 46.7216 184.14 46.8835C184.373 47.0426 184.67 47.1222 185.031 47.1222Z" fill="#1C1903"/>
<path d="M140.102 91.5653C140.056 91.1619 139.869 90.8494 139.539 90.6278C139.21 90.4034 138.795 90.2912 138.295 90.2912C137.937 90.2912 137.627 90.348 137.366 90.4616C137.104 90.5724 136.901 90.7259 136.756 90.9219C136.614 91.1151 136.543 91.3352 136.543 91.5824C136.543 91.7898 136.592 91.9687 136.688 92.1193C136.788 92.2699 136.917 92.3963 137.076 92.4986C137.238 92.598 137.411 92.6818 137.596 92.75C137.781 92.8153 137.958 92.8693 138.129 92.9119L138.981 93.1335C139.259 93.2017 139.545 93.294 139.837 93.4105C140.13 93.527 140.401 93.6804 140.651 93.8707C140.901 94.0611 141.103 94.2969 141.256 94.5781C141.413 94.8594 141.491 95.196 141.491 95.5881C141.491 96.0824 141.363 96.5213 141.107 96.9048C140.854 97.2884 140.487 97.5909 140.004 97.8125C139.523 98.0341 138.942 98.1449 138.261 98.1449C137.607 98.1449 137.042 98.0412 136.565 97.8338C136.087 97.6264 135.714 97.3324 135.444 96.9517C135.174 96.5682 135.025 96.1136 134.996 95.5881H136.317C136.343 95.9034 136.445 96.1662 136.624 96.3764C136.806 96.5838 137.038 96.7386 137.319 96.8409C137.603 96.9403 137.914 96.9901 138.252 96.9901C138.624 96.9901 138.955 96.9318 139.245 96.8153C139.538 96.696 139.768 96.5312 139.935 96.321C140.103 96.108 140.187 95.8594 140.187 95.5753C140.187 95.3168 140.113 95.1051 139.965 94.9403C139.82 94.7756 139.623 94.6392 139.373 94.5312C139.126 94.4233 138.846 94.3281 138.533 94.2457L137.502 93.9645C136.803 93.7741 136.249 93.4943 135.84 93.125C135.434 92.7557 135.231 92.267 135.231 91.6591C135.231 91.1562 135.367 90.7173 135.64 90.3423C135.913 89.9673 136.282 89.6761 136.748 89.4688C137.214 89.2585 137.739 89.1534 138.325 89.1534C138.915 89.1534 139.437 89.2571 139.888 89.4645C140.343 89.6719 140.701 89.9574 140.962 90.321C141.224 90.6818 141.36 91.0966 141.371 91.5653H140.102ZM142.962 100.455V91.4545H144.206V92.5156H144.313C144.387 92.3793 144.493 92.2216 144.632 92.0426C144.772 91.8636 144.965 91.7074 145.212 91.5739C145.459 91.4375 145.786 91.3693 146.192 91.3693C146.721 91.3693 147.192 91.5028 147.607 91.7699C148.022 92.0369 148.347 92.4219 148.583 92.9247C148.821 93.4276 148.941 94.0327 148.941 94.7401C148.941 95.4474 148.823 96.054 148.587 96.5597C148.351 97.0625 148.027 97.4503 147.615 97.723C147.203 97.9929 146.733 98.1278 146.205 98.1278C145.807 98.1278 145.482 98.0611 145.229 97.9276C144.979 97.794 144.783 97.6378 144.641 97.4588C144.499 97.2798 144.39 97.1207 144.313 96.9815H144.236V100.455H142.962ZM144.211 94.7273C144.211 95.1875 144.277 95.5909 144.411 95.9375C144.544 96.2841 144.738 96.5554 144.99 96.7514C145.243 96.9446 145.553 97.0412 145.919 97.0412C146.3 97.0412 146.618 96.9403 146.874 96.7386C147.13 96.5341 147.323 96.2571 147.453 95.9077C147.587 95.5582 147.654 95.1648 147.654 94.7273C147.654 94.2955 147.588 93.9077 147.458 93.5639C147.33 93.2202 147.137 92.9489 146.878 92.75C146.623 92.5511 146.303 92.4517 145.919 92.4517C145.55 92.4517 145.238 92.5469 144.982 92.7372C144.729 92.9276 144.537 93.1932 144.407 93.5341C144.276 93.875 144.211 94.2727 144.211 94.7273ZM153.189 98.1321C152.544 98.1321 151.989 97.9943 151.523 97.7188C151.06 97.4403 150.702 97.0497 150.449 96.5469C150.199 96.0412 150.074 95.4489 150.074 94.7699C150.074 94.0994 150.199 93.5085 150.449 92.9972C150.702 92.4858 151.054 92.0866 151.506 91.7997C151.961 91.5128 152.492 91.3693 153.1 91.3693C153.469 91.3693 153.827 91.4304 154.174 91.5526C154.52 91.6747 154.831 91.8665 155.107 92.1278C155.382 92.3892 155.6 92.7287 155.759 93.1463C155.918 93.5611 155.998 94.0653 155.998 94.6591V95.1108H150.794V94.1562H154.749C154.749 93.821 154.681 93.5241 154.544 93.2656C154.408 93.0043 154.216 92.7983 153.969 92.6477C153.725 92.4972 153.438 92.4219 153.108 92.4219C152.75 92.4219 152.438 92.5099 152.171 92.6861C151.907 92.8594 151.702 93.0866 151.557 93.3679C151.415 93.6463 151.344 93.9489 151.344 94.2756V95.0213C151.344 95.4588 151.421 95.831 151.574 96.1378C151.73 96.4446 151.948 96.679 152.226 96.8409C152.505 97 152.83 97.0795 153.202 97.0795C153.444 97.0795 153.664 97.0455 153.863 96.9773C154.061 96.9062 154.233 96.8011 154.378 96.6619C154.523 96.5227 154.634 96.3509 154.711 96.1463L155.917 96.3636C155.82 96.7187 155.647 97.0298 155.397 97.2969C155.15 97.5611 154.838 97.767 154.463 97.9148C154.091 98.0597 153.667 98.1321 153.189 98.1321ZM160.232 98.1321C159.587 98.1321 159.032 97.9943 158.566 97.7188C158.103 97.4403 157.745 97.0497 157.492 96.5469C157.242 96.0412 157.117 95.4489 157.117 94.7699C157.117 94.0994 157.242 93.5085 157.492 92.9972C157.745 92.4858 158.097 92.0866 158.549 91.7997C159.004 91.5128 159.535 91.3693 160.143 91.3693C160.512 91.3693 160.87 91.4304 161.217 91.5526C161.563 91.6747 161.874 91.8665 162.15 92.1278C162.425 92.3892 162.643 92.7287 162.802 93.1463C162.961 93.5611 163.04 94.0653 163.04 94.6591V95.1108H157.837V94.1562H161.792C161.792 93.821 161.724 93.5241 161.587 93.2656C161.451 93.0043 161.259 92.7983 161.012 92.6477C160.768 92.4972 160.481 92.4219 160.151 92.4219C159.793 92.4219 159.481 92.5099 159.214 92.6861C158.95 92.8594 158.745 93.0866 158.6 93.3679C158.458 93.6463 158.387 93.9489 158.387 94.2756V95.0213C158.387 95.4588 158.464 95.831 158.617 96.1378C158.773 96.4446 158.991 96.679 159.269 96.8409C159.548 97 159.873 97.0795 160.245 97.0795C160.487 97.0795 160.707 97.0455 160.906 96.9773C161.104 96.9062 161.276 96.8011 161.421 96.6619C161.566 96.5227 161.677 96.3509 161.754 96.1463L162.96 96.3636C162.863 96.7187 162.69 97.0298 162.44 97.2969C162.192 97.5611 161.881 97.767 161.506 97.9148C161.134 98.0597 160.71 98.1321 160.232 98.1321ZM167.211 98.1321C166.578 98.1321 166.032 97.9886 165.575 97.7017C165.12 97.4119 164.771 97.0128 164.527 96.5043C164.282 95.9957 164.16 95.4134 164.16 94.7571C164.16 94.0923 164.285 93.5057 164.535 92.9972C164.785 92.4858 165.137 92.0866 165.592 91.7997C166.047 91.5128 166.582 91.3693 167.199 91.3693C167.696 91.3693 168.139 91.4616 168.528 91.6463C168.917 91.8281 169.231 92.0838 169.47 92.4134C169.711 92.7429 169.855 93.1278 169.9 93.5682H168.66C168.592 93.2614 168.436 92.9972 168.191 92.7756C167.95 92.554 167.626 92.4432 167.22 92.4432C166.865 92.4432 166.554 92.5369 166.287 92.7244C166.022 92.9091 165.816 93.1733 165.669 93.517C165.521 93.858 165.447 94.2614 165.447 94.7273C165.447 95.2045 165.52 95.6165 165.664 95.9631C165.809 96.3097 166.014 96.5781 166.278 96.7685C166.545 96.9588 166.859 97.054 167.22 97.054C167.461 97.054 167.68 97.0099 167.876 96.9219C168.075 96.831 168.241 96.7017 168.375 96.5341C168.511 96.3665 168.606 96.1648 168.66 95.929H169.9C169.855 96.3523 169.717 96.7301 169.487 97.0625C169.257 97.3949 168.949 97.6562 168.562 97.8466C168.179 98.0369 167.728 98.1321 167.211 98.1321ZM172.537 94.1136V98H171.263V89.2727H172.52V92.5199H172.601C172.754 92.1676 172.989 91.8878 173.304 91.6804C173.619 91.473 174.031 91.3693 174.54 91.3693C174.989 91.3693 175.381 91.4616 175.716 91.6463C176.054 91.831 176.315 92.1065 176.5 92.473C176.688 92.8366 176.781 93.2912 176.781 93.8366V98H175.507V93.9901C175.507 93.5099 175.384 93.1378 175.136 92.8736C174.889 92.6065 174.545 92.473 174.105 92.473C173.804 92.473 173.534 92.5369 173.295 92.6648C173.06 92.7926 172.874 92.9801 172.737 93.2273C172.604 93.4716 172.537 93.767 172.537 94.1136ZM184.197 98.1236C183.612 98.1236 183.108 98.017 182.684 97.804C182.264 97.5909 181.94 97.3011 181.713 96.9347C181.485 96.5653 181.372 96.1477 181.372 95.6818C181.372 95.3267 181.446 95.0114 181.593 94.7358C181.741 94.4574 181.947 94.2003 182.211 93.9645C182.475 93.7287 182.781 93.4915 183.127 93.2528L184.534 92.2599C184.772 92.1037 184.958 91.9389 185.092 91.7656C185.225 91.5895 185.292 91.3722 185.292 91.1136C185.292 90.9091 185.204 90.7131 185.028 90.5256C184.852 90.3381 184.616 90.2443 184.321 90.2443C184.116 90.2443 183.936 90.294 183.779 90.3935C183.626 90.4929 183.505 90.6207 183.417 90.777C183.332 90.9304 183.289 91.0923 183.289 91.2628C183.289 91.4616 183.343 91.6619 183.451 91.8636C183.562 92.0653 183.704 92.2741 183.877 92.4901C184.051 92.7031 184.233 92.9247 184.423 93.1548L188.475 98H187.035L183.681 94.0582C183.4 93.7259 183.139 93.4134 182.897 93.1207C182.656 92.8253 182.46 92.527 182.309 92.2259C182.162 91.9219 182.088 91.5938 182.088 91.2415C182.088 90.8409 182.179 90.4858 182.36 90.1761C182.545 89.8636 182.802 89.6193 183.132 89.4432C183.461 89.267 183.848 89.179 184.291 89.179C184.74 89.179 185.125 89.267 185.446 89.4432C185.77 89.6165 186.018 89.848 186.191 90.1378C186.368 90.4247 186.456 90.7386 186.456 91.0795C186.456 91.4943 186.352 91.8608 186.145 92.179C185.94 92.4943 185.657 92.7841 185.297 93.0483L183.545 94.3395C183.204 94.5895 182.967 94.8366 182.833 95.081C182.703 95.3224 182.637 95.5114 182.637 95.6477C182.637 95.8977 182.701 96.1293 182.829 96.3423C182.96 96.5554 183.142 96.7259 183.375 96.8537C183.61 96.9815 183.886 97.0455 184.201 97.0455C184.525 97.0455 184.841 96.9759 185.147 96.8366C185.457 96.6946 185.737 96.4915 185.987 96.2273C186.24 95.9631 186.44 95.6463 186.588 95.277C186.735 94.9077 186.809 94.4943 186.809 94.0369H187.96C187.96 94.5994 187.896 95.0753 187.768 95.4645C187.64 95.8509 187.485 96.1662 187.304 96.4105C187.125 96.652 186.956 96.8409 186.797 96.9773C186.745 97.0227 186.697 97.0682 186.652 97.1136C186.606 97.1591 186.558 97.2045 186.507 97.25C186.211 97.5483 185.853 97.7685 185.433 97.9105C185.015 98.0526 184.603 98.1236 184.197 98.1236ZM129.114 113.132C128.48 113.132 127.935 112.989 127.477 112.702C127.023 112.412 126.673 112.013 126.429 111.504C126.185 110.996 126.062 110.413 126.062 109.757C126.062 109.092 126.188 108.506 126.438 107.997C126.688 107.486 127.04 107.087 127.494 106.8C127.949 106.513 128.484 106.369 129.101 106.369C129.598 106.369 130.041 106.462 130.43 106.646C130.82 106.828 131.134 107.084 131.372 107.413C131.614 107.743 131.757 108.128 131.803 108.568H130.562C130.494 108.261 130.338 107.997 130.094 107.776C129.852 107.554 129.528 107.443 129.122 107.443C128.767 107.443 128.456 107.537 128.189 107.724C127.925 107.909 127.719 108.173 127.571 108.517C127.423 108.858 127.349 109.261 127.349 109.727C127.349 110.205 127.422 110.616 127.567 110.963C127.712 111.31 127.916 111.578 128.18 111.768C128.447 111.959 128.761 112.054 129.122 112.054C129.364 112.054 129.582 112.01 129.778 111.922C129.977 111.831 130.143 111.702 130.277 111.534C130.413 111.366 130.509 111.165 130.562 110.929H131.803C131.757 111.352 131.619 111.73 131.389 112.062C131.159 112.395 130.851 112.656 130.464 112.847C130.081 113.037 129.631 113.132 129.114 113.132ZM135.922 113.132C135.309 113.132 134.773 112.991 134.316 112.71C133.858 112.429 133.503 112.036 133.25 111.53C132.998 111.024 132.871 110.433 132.871 109.757C132.871 109.078 132.998 108.484 133.25 107.976C133.503 107.467 133.858 107.072 134.316 106.791C134.773 106.51 135.309 106.369 135.922 106.369C136.536 106.369 137.071 106.51 137.529 106.791C137.986 107.072 138.341 107.467 138.594 107.976C138.847 108.484 138.973 109.078 138.973 109.757C138.973 110.433 138.847 111.024 138.594 111.53C138.341 112.036 137.986 112.429 137.529 112.71C137.071 112.991 136.536 113.132 135.922 113.132ZM135.926 112.062C136.324 112.062 136.654 111.957 136.915 111.747C137.176 111.537 137.37 111.257 137.495 110.908C137.623 110.558 137.686 110.173 137.686 109.753C137.686 109.335 137.623 108.952 137.495 108.602C137.37 108.25 137.176 107.967 136.915 107.754C136.654 107.541 136.324 107.435 135.926 107.435C135.526 107.435 135.194 107.541 134.929 107.754C134.668 107.967 134.473 108.25 134.346 108.602C134.221 108.952 134.158 109.335 134.158 109.753C134.158 110.173 134.221 110.558 134.346 110.908C134.473 111.257 134.668 111.537 134.929 111.747C135.194 111.957 135.526 112.062 135.926 112.062ZM143.153 113.132C142.539 113.132 142.004 112.991 141.546 112.71C141.089 112.429 140.734 112.036 140.481 111.53C140.228 111.024 140.102 110.433 140.102 109.757C140.102 109.078 140.228 108.484 140.481 107.976C140.734 107.467 141.089 107.072 141.546 106.791C142.004 106.51 142.539 106.369 143.153 106.369C143.766 106.369 144.302 106.51 144.759 106.791C145.217 107.072 145.572 107.467 145.825 107.976C146.077 108.484 146.204 109.078 146.204 109.757C146.204 110.433 146.077 111.024 145.825 111.53C145.572 112.036 145.217 112.429 144.759 112.71C144.302 112.991 143.766 113.132 143.153 113.132ZM143.157 112.062C143.555 112.062 143.884 111.957 144.146 111.747C144.407 111.537 144.6 111.257 144.725 110.908C144.853 110.558 144.917 110.173 144.917 109.753C144.917 109.335 144.853 108.952 144.725 108.602C144.6 108.25 144.407 107.967 144.146 107.754C143.884 107.541 143.555 107.435 143.157 107.435C142.756 107.435 142.424 107.541 142.16 107.754C141.898 107.967 141.704 108.25 141.576 108.602C141.451 108.952 141.388 109.335 141.388 109.753C141.388 110.173 141.451 110.558 141.576 110.908C141.704 111.257 141.898 111.537 142.16 111.747C142.424 111.957 142.756 112.062 143.157 112.062ZM147.626 113V106.455H148.858V107.494H148.926C149.045 107.142 149.255 106.865 149.556 106.663C149.86 106.459 150.204 106.357 150.588 106.357C150.667 106.357 150.761 106.359 150.869 106.365C150.98 106.371 151.066 106.378 151.129 106.386V107.605C151.078 107.591 150.987 107.575 150.856 107.558C150.725 107.538 150.595 107.528 150.464 107.528C150.163 107.528 149.895 107.592 149.659 107.72C149.426 107.845 149.241 108.02 149.105 108.244C148.968 108.466 148.9 108.719 148.9 109.003V113H147.626ZM154.447 113.128C153.919 113.128 153.447 112.993 153.033 112.723C152.621 112.45 152.297 112.062 152.061 111.56C151.828 111.054 151.712 110.447 151.712 109.74C151.712 109.033 151.83 108.428 152.065 107.925C152.304 107.422 152.631 107.037 153.045 106.77C153.46 106.503 153.93 106.369 154.456 106.369C154.862 106.369 155.189 106.438 155.436 106.574C155.686 106.707 155.879 106.864 156.016 107.043C156.155 107.222 156.263 107.379 156.339 107.516H156.416V104.273H157.69V113H156.446V111.982H156.339C156.263 112.121 156.152 112.28 156.007 112.459C155.865 112.638 155.669 112.794 155.419 112.928C155.169 113.061 154.845 113.128 154.447 113.128ZM154.729 112.041C155.095 112.041 155.405 111.945 155.658 111.751C155.913 111.555 156.107 111.284 156.237 110.938C156.371 110.591 156.438 110.187 156.438 109.727C156.438 109.273 156.372 108.875 156.241 108.534C156.111 108.193 155.919 107.928 155.666 107.737C155.413 107.547 155.101 107.452 154.729 107.452C154.345 107.452 154.026 107.551 153.77 107.75C153.514 107.949 153.321 108.22 153.19 108.564C153.063 108.908 152.999 109.295 152.999 109.727C152.999 110.165 153.064 110.558 153.195 110.908C153.325 111.257 153.518 111.534 153.774 111.739C154.033 111.94 154.351 112.041 154.729 112.041ZM159.509 113V106.455H160.783V113H159.509ZM160.152 105.445C159.931 105.445 159.74 105.371 159.581 105.223C159.425 105.072 159.347 104.893 159.347 104.686C159.347 104.476 159.425 104.297 159.581 104.149C159.74 103.999 159.931 103.923 160.152 103.923C160.374 103.923 160.563 103.999 160.719 104.149C160.878 104.297 160.958 104.476 160.958 104.686C160.958 104.893 160.878 105.072 160.719 105.223C160.563 105.371 160.374 105.445 160.152 105.445ZM163.771 109.114V113H162.497V106.455H163.72V107.52H163.801C163.952 107.173 164.188 106.895 164.509 106.685C164.832 106.474 165.24 106.369 165.732 106.369C166.178 106.369 166.568 106.463 166.903 106.651C167.239 106.835 167.499 107.111 167.683 107.477C167.868 107.844 167.96 108.297 167.96 108.837V113H166.686V108.99C166.686 108.516 166.563 108.145 166.315 107.878C166.068 107.608 165.729 107.473 165.297 107.473C165.001 107.473 164.739 107.537 164.509 107.665C164.281 107.793 164.101 107.98 163.967 108.227C163.837 108.472 163.771 108.767 163.771 109.114ZM171.574 113.145C171.159 113.145 170.784 113.068 170.449 112.915C170.114 112.759 169.848 112.533 169.652 112.237C169.459 111.942 169.362 111.58 169.362 111.151C169.362 110.781 169.433 110.477 169.575 110.239C169.717 110 169.909 109.811 170.151 109.672C170.392 109.533 170.662 109.428 170.96 109.357C171.259 109.286 171.563 109.232 171.872 109.195C172.264 109.149 172.582 109.112 172.827 109.084C173.071 109.053 173.249 109.003 173.359 108.935C173.47 108.866 173.526 108.756 173.526 108.602V108.572C173.526 108.2 173.42 107.912 173.21 107.707C173.003 107.503 172.693 107.401 172.281 107.401C171.852 107.401 171.514 107.496 171.267 107.686C171.023 107.874 170.854 108.082 170.76 108.312L169.562 108.04C169.705 107.642 169.912 107.321 170.185 107.077C170.46 106.83 170.777 106.651 171.135 106.54C171.493 106.426 171.869 106.369 172.264 106.369C172.526 106.369 172.803 106.401 173.095 106.463C173.391 106.523 173.666 106.634 173.922 106.795C174.18 106.957 174.392 107.189 174.557 107.49C174.722 107.788 174.804 108.176 174.804 108.653V113H173.56V112.105H173.509C173.426 112.27 173.303 112.432 173.138 112.591C172.973 112.75 172.761 112.882 172.503 112.987C172.244 113.092 171.935 113.145 171.574 113.145ZM171.851 112.122C172.203 112.122 172.504 112.053 172.754 111.913C173.007 111.774 173.199 111.592 173.33 111.368C173.463 111.141 173.53 110.898 173.53 110.639V109.795C173.484 109.841 173.396 109.884 173.266 109.923C173.138 109.96 172.991 109.993 172.827 110.021C172.662 110.047 172.501 110.071 172.345 110.094C172.189 110.114 172.058 110.131 171.953 110.145C171.706 110.176 171.48 110.229 171.276 110.303C171.074 110.376 170.912 110.483 170.79 110.622C170.67 110.759 170.611 110.94 170.611 111.168C170.611 111.483 170.727 111.722 170.96 111.884C171.193 112.043 171.49 112.122 171.851 112.122ZM179.556 106.455V107.477H175.981V106.455H179.556ZM176.94 104.886H178.214V111.078C178.214 111.325 178.251 111.511 178.325 111.636C178.399 111.759 178.494 111.842 178.61 111.888C178.73 111.93 178.859 111.952 178.998 111.952C179.1 111.952 179.19 111.945 179.267 111.93C179.343 111.916 179.403 111.905 179.446 111.896L179.676 112.949C179.602 112.977 179.497 113.006 179.36 113.034C179.224 113.065 179.054 113.082 178.849 113.085C178.514 113.091 178.201 113.031 177.912 112.906C177.622 112.781 177.387 112.588 177.208 112.327C177.029 112.065 176.94 111.737 176.94 111.342V104.886ZM180.966 113V106.455H182.24V113H180.966ZM181.609 105.445C181.388 105.445 181.197 105.371 181.038 105.223C180.882 105.072 180.804 104.893 180.804 104.686C180.804 104.476 180.882 104.297 181.038 104.149C181.197 103.999 181.388 103.923 181.609 103.923C181.831 103.923 182.02 103.999 182.176 104.149C182.335 104.297 182.415 104.476 182.415 104.686C182.415 104.893 182.335 105.072 182.176 105.223C182.02 105.371 181.831 105.445 181.609 105.445ZM186.711 113.132C186.098 113.132 185.562 112.991 185.105 112.71C184.647 112.429 184.292 112.036 184.039 111.53C183.787 111.024 183.66 110.433 183.66 109.757C183.66 109.078 183.787 108.484 184.039 107.976C184.292 107.467 184.647 107.072 185.105 106.791C185.562 106.51 186.098 106.369 186.711 106.369C187.325 106.369 187.86 106.51 188.318 106.791C188.775 107.072 189.13 107.467 189.383 107.976C189.636 108.484 189.762 109.078 189.762 109.757C189.762 110.433 189.636 111.024 189.383 111.53C189.13 112.036 188.775 112.429 188.318 112.71C187.86 112.991 187.325 113.132 186.711 113.132ZM186.716 112.062C187.113 112.062 187.443 111.957 187.704 111.747C187.966 111.537 188.159 111.257 188.284 110.908C188.412 110.558 188.475 110.173 188.475 109.753C188.475 109.335 188.412 108.952 188.284 108.602C188.159 108.25 187.966 107.967 187.704 107.754C187.443 107.541 187.113 107.435 186.716 107.435C186.315 107.435 185.983 107.541 185.718 107.754C185.457 107.967 185.262 108.25 185.135 108.602C185.01 108.952 184.947 109.335 184.947 109.753C184.947 110.173 185.01 110.558 185.135 110.908C185.262 111.257 185.457 111.537 185.718 111.747C185.983 111.957 186.315 112.062 186.716 112.062ZM192.459 109.114V113H191.185V106.455H192.408V107.52H192.489C192.639 107.173 192.875 106.895 193.196 106.685C193.52 106.474 193.928 106.369 194.419 106.369C194.865 106.369 195.256 106.463 195.591 106.651C195.926 106.835 196.186 107.111 196.371 107.477C196.555 107.844 196.648 108.297 196.648 108.837V113H195.374V108.99C195.374 108.516 195.25 108.145 195.003 107.878C194.756 107.608 194.416 107.473 193.984 107.473C193.689 107.473 193.426 107.537 193.196 107.665C192.969 107.793 192.788 107.98 192.655 108.227C192.524 108.472 192.459 108.767 192.459 109.114Z" fill="#1C1903"/>
<path d="M98.0341 135H95.2088V126.273H98.1236C98.9787 126.273 99.7131 126.447 100.327 126.797C100.94 127.143 101.411 127.642 101.737 128.293C102.067 128.94 102.232 129.717 102.232 130.624C102.232 131.533 102.065 132.314 101.733 132.967C101.403 133.621 100.926 134.124 100.301 134.476C99.6761 134.825 98.9205 135 98.0341 135ZM96.5256 133.849H97.9616C98.6264 133.849 99.179 133.724 99.6193 133.474C100.06 133.222 100.389 132.857 100.608 132.379C100.827 131.899 100.936 131.314 100.936 130.624C100.936 129.939 100.827 129.358 100.608 128.881C100.392 128.403 100.07 128.041 99.6406 127.794C99.2116 127.547 98.679 127.423 98.0426 127.423H96.5256V133.849ZM106.588 135.132C105.943 135.132 105.387 134.994 104.922 134.719C104.458 134.44 104.1 134.05 103.848 133.547C103.598 133.041 103.473 132.449 103.473 131.77C103.473 131.099 103.598 130.509 103.848 129.997C104.1 129.486 104.453 129.087 104.904 128.8C105.359 128.513 105.89 128.369 106.498 128.369C106.868 128.369 107.225 128.43 107.572 128.553C107.919 128.675 108.23 128.866 108.505 129.128C108.781 129.389 108.998 129.729 109.157 130.146C109.316 130.561 109.396 131.065 109.396 131.659V132.111H104.193V131.156H108.147C108.147 130.821 108.079 130.524 107.943 130.266C107.806 130.004 107.615 129.798 107.368 129.648C107.123 129.497 106.836 129.422 106.507 129.422C106.149 129.422 105.836 129.51 105.569 129.686C105.305 129.859 105.1 130.087 104.956 130.368C104.814 130.646 104.743 130.949 104.743 131.276V132.021C104.743 132.459 104.819 132.831 104.973 133.138C105.129 133.445 105.346 133.679 105.625 133.841C105.903 134 106.228 134.08 106.6 134.08C106.842 134.08 107.062 134.045 107.261 133.977C107.46 133.906 107.632 133.801 107.777 133.662C107.922 133.523 108.032 133.351 108.109 133.146L109.315 133.364C109.218 133.719 109.045 134.03 108.795 134.297C108.548 134.561 108.237 134.767 107.862 134.915C107.49 135.06 107.065 135.132 106.588 135.132ZM113.567 135.132C112.933 135.132 112.388 134.989 111.93 134.702C111.476 134.412 111.126 134.013 110.882 133.504C110.638 132.996 110.516 132.413 110.516 131.757C110.516 131.092 110.641 130.506 110.891 129.997C111.141 129.486 111.493 129.087 111.947 128.8C112.402 128.513 112.938 128.369 113.554 128.369C114.051 128.369 114.494 128.462 114.884 128.646C115.273 128.828 115.587 129.084 115.825 129.413C116.067 129.743 116.21 130.128 116.256 130.568H115.016C114.947 130.261 114.791 129.997 114.547 129.776C114.305 129.554 113.982 129.443 113.575 129.443C113.22 129.443 112.909 129.537 112.642 129.724C112.378 129.909 112.172 130.173 112.024 130.517C111.876 130.858 111.803 131.261 111.803 131.727C111.803 132.205 111.875 132.616 112.02 132.963C112.165 133.31 112.369 133.578 112.634 133.768C112.901 133.959 113.214 134.054 113.575 134.054C113.817 134.054 114.036 134.01 114.232 133.922C114.43 133.831 114.597 133.702 114.73 133.534C114.866 133.366 114.962 133.165 115.016 132.929H116.256C116.21 133.352 116.072 133.73 115.842 134.062C115.612 134.395 115.304 134.656 114.918 134.847C114.534 135.037 114.084 135.132 113.567 135.132ZM117.618 135V128.455H118.892V135H117.618ZM118.262 127.445C118.04 127.445 117.85 127.371 117.691 127.223C117.534 127.072 117.456 126.893 117.456 126.686C117.456 126.476 117.534 126.297 117.691 126.149C117.85 125.999 118.04 125.923 118.262 125.923C118.483 125.923 118.672 125.999 118.828 126.149C118.988 126.297 119.067 126.476 119.067 126.686C119.067 126.893 118.988 127.072 118.828 127.223C118.672 127.371 118.483 127.445 118.262 127.445ZM125.511 130.053L124.357 130.257C124.308 130.109 124.232 129.969 124.126 129.835C124.024 129.702 123.885 129.592 123.709 129.507C123.533 129.422 123.313 129.379 123.048 129.379C122.688 129.379 122.386 129.46 122.145 129.622C121.903 129.781 121.783 129.987 121.783 130.24C121.783 130.459 121.864 130.635 122.026 130.768C122.188 130.902 122.449 131.011 122.81 131.097L123.849 131.335C124.452 131.474 124.901 131.689 125.196 131.979C125.491 132.268 125.639 132.645 125.639 133.108C125.639 133.5 125.526 133.849 125.298 134.156C125.074 134.46 124.76 134.699 124.357 134.872C123.956 135.045 123.491 135.132 122.963 135.132C122.23 135.132 121.632 134.976 121.169 134.663C120.706 134.348 120.422 133.901 120.317 133.321L121.548 133.134C121.625 133.455 121.783 133.697 122.021 133.862C122.26 134.024 122.571 134.105 122.955 134.105C123.372 134.105 123.706 134.018 123.956 133.845C124.206 133.669 124.331 133.455 124.331 133.202C124.331 132.997 124.254 132.825 124.101 132.686C123.95 132.547 123.719 132.442 123.406 132.371L122.298 132.128C121.688 131.989 121.236 131.767 120.943 131.463C120.653 131.159 120.509 130.774 120.509 130.308C120.509 129.922 120.616 129.584 120.832 129.294C121.048 129.004 121.347 128.778 121.727 128.616C122.108 128.452 122.544 128.369 123.036 128.369C123.743 128.369 124.3 128.523 124.706 128.83C125.112 129.134 125.381 129.541 125.511 130.053ZM127.04 135V128.455H128.314V135H127.04ZM127.684 127.445C127.462 127.445 127.272 127.371 127.113 127.223C126.956 127.072 126.878 126.893 126.878 126.686C126.878 126.476 126.956 126.297 127.113 126.149C127.272 125.999 127.462 125.923 127.684 125.923C127.905 125.923 128.094 125.999 128.25 126.149C128.409 126.297 128.489 126.476 128.489 126.686C128.489 126.893 128.409 127.072 128.25 127.223C128.094 127.371 127.905 127.445 127.684 127.445ZM132.786 135.132C132.172 135.132 131.636 134.991 131.179 134.71C130.722 134.429 130.366 134.036 130.114 133.53C129.861 133.024 129.734 132.433 129.734 131.757C129.734 131.078 129.861 130.484 130.114 129.976C130.366 129.467 130.722 129.072 131.179 128.791C131.636 128.51 132.172 128.369 132.786 128.369C133.399 128.369 133.935 128.51 134.392 128.791C134.849 129.072 135.205 129.467 135.457 129.976C135.71 130.484 135.837 131.078 135.837 131.757C135.837 132.433 135.71 133.024 135.457 133.53C135.205 134.036 134.849 134.429 134.392 134.71C133.935 134.991 133.399 135.132 132.786 135.132ZM132.79 134.062C133.188 134.062 133.517 133.957 133.778 133.747C134.04 133.537 134.233 133.257 134.358 132.908C134.486 132.558 134.55 132.173 134.55 131.753C134.55 131.335 134.486 130.952 134.358 130.602C134.233 130.25 134.04 129.967 133.778 129.754C133.517 129.541 133.188 129.435 132.79 129.435C132.389 129.435 132.057 129.541 131.793 129.754C131.531 129.967 131.337 130.25 131.209 130.602C131.084 130.952 131.021 131.335 131.021 131.753C131.021 132.173 131.084 132.558 131.209 132.908C131.337 133.257 131.531 133.537 131.793 133.747C132.057 133.957 132.389 134.062 132.79 134.062ZM138.533 131.114V135H137.259V128.455H138.482V129.52H138.563C138.713 129.173 138.949 128.895 139.27 128.685C139.594 128.474 140.002 128.369 140.493 128.369C140.939 128.369 141.33 128.463 141.665 128.651C142 128.835 142.26 129.111 142.445 129.477C142.63 129.844 142.722 130.297 142.722 130.837V135H141.448V130.99C141.448 130.516 141.324 130.145 141.077 129.878C140.83 129.608 140.49 129.473 140.059 129.473C139.763 129.473 139.5 129.537 139.27 129.665C139.043 129.793 138.863 129.98 138.729 130.227C138.598 130.472 138.533 130.767 138.533 131.114ZM100.515 150V143.455H101.738V144.52H101.819C101.955 144.159 102.178 143.878 102.488 143.676C102.797 143.472 103.168 143.369 103.6 143.369C104.037 143.369 104.404 143.472 104.699 143.676C104.998 143.881 105.218 144.162 105.36 144.52H105.428C105.584 144.17 105.833 143.892 106.174 143.685C106.515 143.474 106.921 143.369 107.393 143.369C107.986 143.369 108.471 143.555 108.846 143.928C109.224 144.3 109.412 144.861 109.412 145.611V150H108.138V145.73C108.138 145.287 108.018 144.966 107.776 144.767C107.535 144.568 107.246 144.469 106.911 144.469C106.496 144.469 106.174 144.597 105.944 144.852C105.714 145.105 105.599 145.43 105.599 145.828V150H104.329V145.649C104.329 145.294 104.218 145.009 103.996 144.793C103.775 144.577 103.486 144.469 103.131 144.469C102.89 144.469 102.667 144.533 102.462 144.661C102.26 144.786 102.097 144.96 101.972 145.185C101.85 145.409 101.789 145.669 101.789 145.964V150H100.515ZM113.025 150.145C112.61 150.145 112.235 150.068 111.9 149.915C111.565 149.759 111.299 149.533 111.103 149.237C110.91 148.942 110.813 148.58 110.813 148.151C110.813 147.781 110.884 147.477 111.026 147.239C111.169 147 111.36 146.811 111.602 146.672C111.843 146.533 112.113 146.428 112.411 146.357C112.71 146.286 113.014 146.232 113.323 146.195C113.715 146.149 114.034 146.112 114.278 146.084C114.522 146.053 114.7 146.003 114.811 145.935C114.921 145.866 114.977 145.756 114.977 145.602V145.572C114.977 145.2 114.872 144.912 114.661 144.707C114.454 144.503 114.144 144.401 113.732 144.401C113.303 144.401 112.965 144.496 112.718 144.686C112.474 144.874 112.305 145.082 112.211 145.312L111.014 145.04C111.156 144.642 111.363 144.321 111.636 144.077C111.911 143.83 112.228 143.651 112.586 143.54C112.944 143.426 113.32 143.369 113.715 143.369C113.977 143.369 114.254 143.401 114.546 143.463C114.842 143.523 115.117 143.634 115.373 143.795C115.632 143.957 115.843 144.189 116.008 144.49C116.173 144.788 116.255 145.176 116.255 145.653V150H115.011V149.105H114.96C114.877 149.27 114.754 149.432 114.589 149.591C114.424 149.75 114.213 149.882 113.954 149.987C113.695 150.092 113.386 150.145 113.025 150.145ZM113.302 149.122C113.654 149.122 113.955 149.053 114.205 148.913C114.458 148.774 114.65 148.592 114.781 148.368C114.914 148.141 114.981 147.898 114.981 147.639V146.795C114.936 146.841 114.847 146.884 114.717 146.923C114.589 146.96 114.443 146.993 114.278 147.021C114.113 147.047 113.953 147.071 113.796 147.094C113.64 147.114 113.509 147.131 113.404 147.145C113.157 147.176 112.931 147.229 112.727 147.303C112.525 147.376 112.363 147.483 112.241 147.622C112.122 147.759 112.062 147.94 112.062 148.168C112.062 148.483 112.178 148.722 112.411 148.884C112.644 149.043 112.941 149.122 113.302 149.122ZM119.124 147.78L119.116 146.224H119.337L121.945 143.455H123.471L120.496 146.608H120.296L119.124 147.78ZM117.952 150V141.273H119.226V150H117.952ZM122.086 150L119.742 146.889L120.62 145.999L123.65 150H122.086ZM124.632 150V143.455H125.906V150H124.632ZM125.275 142.445C125.054 142.445 124.863 142.371 124.704 142.223C124.548 142.072 124.47 141.893 124.47 141.686C124.47 141.476 124.548 141.297 124.704 141.149C124.863 140.999 125.054 140.923 125.275 140.923C125.497 140.923 125.686 140.999 125.842 141.149C126.001 141.297 126.081 141.476 126.081 141.686C126.081 141.893 126.001 142.072 125.842 142.223C125.686 142.371 125.497 142.445 125.275 142.445ZM128.894 146.114V150H127.62V143.455H128.843V144.52H128.924C129.075 144.173 129.311 143.895 129.632 143.685C129.955 143.474 130.363 143.369 130.855 143.369C131.301 143.369 131.691 143.463 132.026 143.651C132.362 143.835 132.622 144.111 132.806 144.477C132.991 144.844 133.083 145.297 133.083 145.837V150H131.809V145.99C131.809 145.516 131.686 145.145 131.438 144.878C131.191 144.608 130.852 144.473 130.42 144.473C130.124 144.473 129.862 144.537 129.632 144.665C129.404 144.793 129.224 144.98 129.09 145.227C128.96 145.472 128.894 145.767 128.894 146.114ZM137.536 152.591C137.017 152.591 136.569 152.523 136.194 152.386C135.822 152.25 135.518 152.07 135.282 151.845C135.046 151.621 134.87 151.375 134.754 151.108L135.849 150.656C135.926 150.781 136.028 150.913 136.156 151.053C136.286 151.195 136.463 151.315 136.684 151.415C136.909 151.514 137.197 151.564 137.549 151.564C138.032 151.564 138.431 151.446 138.747 151.21C139.062 150.977 139.22 150.605 139.22 150.094V148.807H139.139C139.062 148.946 138.951 149.101 138.806 149.271C138.664 149.442 138.468 149.589 138.218 149.714C137.968 149.839 137.643 149.902 137.242 149.902C136.725 149.902 136.259 149.781 135.845 149.54C135.433 149.295 135.106 148.936 134.865 148.462C134.626 147.984 134.507 147.398 134.507 146.702C134.507 146.006 134.624 145.409 134.86 144.912C135.099 144.415 135.426 144.034 135.84 143.77C136.255 143.503 136.725 143.369 137.251 143.369C137.657 143.369 137.985 143.438 138.235 143.574C138.485 143.707 138.68 143.864 138.819 144.043C138.961 144.222 139.07 144.379 139.147 144.516H139.241V143.455H140.49V150.145C140.49 150.707 140.359 151.169 140.097 151.53C139.836 151.891 139.482 152.158 139.036 152.331C138.593 152.504 138.093 152.591 137.536 152.591ZM137.524 148.845C137.89 148.845 138.2 148.76 138.453 148.589C138.708 148.416 138.901 148.169 139.032 147.848C139.166 147.524 139.232 147.136 139.232 146.685C139.232 146.244 139.167 145.857 139.036 145.521C138.906 145.186 138.714 144.925 138.461 144.737C138.208 144.547 137.896 144.452 137.524 144.452C137.14 144.452 136.82 144.551 136.565 144.75C136.309 144.946 136.116 145.213 135.985 145.551C135.857 145.889 135.794 146.267 135.794 146.685C135.794 147.114 135.859 147.49 135.99 147.814C136.12 148.138 136.313 148.391 136.569 148.572C136.828 148.754 137.146 148.845 137.524 148.845Z" fill="#1C1903"/>
<path d="M101.567 188.726C101.567 189.532 100.914 190.186 100.108 190.186H92.8606C92.0547 190.186 91.4014 189.532 91.4014 188.726C91.4014 187.92 92.0547 187.267 92.8606 187.267H100.108C100.914 187.267 101.567 187.92 101.567 188.726Z" fill="#EA5A47"/>
<path d="M101.835 189.699C101.835 192.386 99.4393 194.563 96.4843 194.563C93.5292 194.563 91.1338 192.386 91.1338 189.699" fill="#EA5A47"/>
<path d="M101.701 189.699C101.627 189.699 101.567 189.639 101.567 189.565V188.227C101.567 187.697 101.137 187.267 100.607 187.267C100.037 187.267 99.5972 187.761 99.5837 188.331C99.5439 190.002 98.9889 192.487 96.3951 194.198C96.2315 194.306 96.2883 194.563 96.4842 194.563C99.39 194.563 101.755 192.458 101.833 189.833C101.835 189.759 101.775 189.699 101.701 189.699Z" fill="#D22F27"/>
<path d="M92.2039 200.157H100.765M96.4843 194.563V200.157M96.4843 194.563C98.5656 194.563 100.37 193.483 101.254 191.905C101.626 191.243 101.835 190.493 101.835 189.699V185.078M96.4843 194.563C93.5292 194.563 91.1338 192.386 91.1338 189.699V185.078" stroke="#1C1903" stroke-miterlimit="10" stroke-linecap="round" stroke-linejoin="round"/>
<path d="M91 187.389H101.701" stroke="#1C1903" stroke-miterlimit="10"/>
<path d="M97.5673 188.726C97.5673 189.532 96.914 190.186 96.1081 190.186H88.8606C88.0547 190.186 87.4014 189.532 87.4014 188.726C87.4014 187.92 88.0547 187.267 88.8606 187.267H96.1081C96.914 187.267 97.5673 187.92 97.5673 188.726Z" fill="#EA5A47"/>
<path d="M97.8348 189.699C97.8348 192.386 95.4393 194.563 92.4843 194.563C89.5292 194.563 87.1338 192.386 87.1338 189.699" fill="#EA5A47"/>
<path d="M97.7009 189.699C97.6271 189.699 97.5672 189.639 97.5672 189.565V188.227C97.5672 187.697 97.1373 187.267 96.6069 187.267C96.0375 187.267 95.5972 187.761 95.5837 188.331C95.5439 190.002 94.9889 192.487 92.3951 194.198C92.2315 194.306 92.2883 194.563 92.4842 194.563C95.39 194.563 97.7546 192.458 97.8327 189.833C97.8349 189.759 97.7748 189.699 97.7009 189.699Z" fill="#D22F27"/>
<path d="M88.2039 200.157H96.7647M92.4843 194.563V200.157M92.4843 194.563C94.5656 194.563 96.3698 193.483 97.2542 191.905C97.6256 191.243 97.8348 190.493 97.8348 189.699V185.078M92.4843 194.563C89.5292 194.563 87.1338 192.386 87.1338 189.699V185.078" stroke="#1C1903" stroke-miterlimit="10" stroke-linecap="round" stroke-linejoin="round"/>
<path d="M87 187.389H97.701" stroke="#1C1903" stroke-miterlimit="10"/>
<path d="M93.5673 188.726C93.5673 189.532 92.914 190.186 92.1081 190.186H84.8606C84.0547 190.186 83.4014 189.532 83.4014 188.726C83.4014 187.92 84.0547 187.267 84.8606 187.267H92.1081C92.914 187.267 93.5673 187.92 93.5673 188.726Z" fill="#EA5A47"/>
<path d="M93.8348 189.699C93.8348 192.386 91.4393 194.563 88.4843 194.563C85.5292 194.563 83.1338 192.386 83.1338 189.699" fill="#EA5A47"/>
<path d="M93.7009 189.699C93.6271 189.699 93.5672 189.639 93.5672 189.565V188.227C93.5672 187.697 93.1373 187.267 92.6069 187.267C92.0375 187.267 91.5972 187.761 91.5837 188.331C91.5439 190.002 90.9889 192.487 88.3951 194.198C88.2315 194.306 88.2883 194.563 88.4842 194.563C91.39 194.563 93.7546 192.458 93.8327 189.833C93.8349 189.759 93.7748 189.699 93.7009 189.699Z" fill="#D22F27"/>
<path d="M84.2039 200.157H92.7647M88.4843 194.563V200.157M88.4843 194.563C90.5656 194.563 92.3698 193.483 93.2542 191.905C93.6256 191.243 93.8348 190.493 93.8348 189.699V185.078M88.4843 194.563C85.5292 194.563 83.1338 192.386 83.1338 189.699V185.078" stroke="#1C1903" stroke-miterlimit="10" stroke-linecap="round" stroke-linejoin="round"/>
<path d="M83 187.389H93.701" stroke="#1C1903" stroke-miterlimit="10"/>
<path d="M1 94.0784C0.447715 94.0784 0 94.5261 0 95.0784C0 95.6307 0.447715 96.0784 1 96.0784V94.0784ZM39.4005 95.0784V96.0784H39.5456L39.6846 96.0372L39.4005 95.0784ZM81.292 82.6646L81.5761 83.6234L81.6597 83.5986L81.7377 83.5598L81.292 82.6646ZM138.145 54.3611L126.62 53.6494L131.766 63.9862L138.145 54.3611ZM1 96.0784H39.4005V94.0784H1V96.0784ZM39.6846 96.0372L81.5761 83.6234L81.0079 81.7058L39.1164 94.1196L39.6846 96.0372ZM81.7377 83.5598L110.164 69.4081L109.273 67.6177L80.8463 81.7694L81.7377 83.5598ZM110.164 69.4081L130.534 59.2673L129.642 57.4769L109.273 67.6177L110.164 69.4081Z" fill="#D4AA01"/>
<path d="M1 96.5784C0.447715 96.5784 0 97.0261 0 97.5784C0 98.1307 0.447715 98.5784 1 98.5784V96.5784ZM39 97.5784L39.2666 96.6146L39.1357 96.5784H39V97.5784ZM62.5 104.078L62.7762 103.117L62.7666 103.115L62.5 104.078ZM106 116.578L97.9835 108.268L94.7944 119.366L106 116.578ZM1 98.5784H2.35714V96.5784H1V98.5784ZM7.78571 98.5784H18.6429V96.5784H7.78571V98.5784ZM21.3571 98.5784H26.7857V96.5784H21.3571V98.5784ZM37.6429 98.5784H39V96.5784H37.6429V98.5784ZM38.7334 98.5422L39.5727 98.7743L40.1059 96.8467L39.2666 96.6146L38.7334 98.5422ZM42.9298 99.7029L49.6441 101.56L50.1773 99.6324L43.463 97.7753L42.9298 99.7029ZM51.3227 102.024L54.6798 102.953L55.213 101.025L51.8559 100.097L51.3227 102.024ZM61.3941 104.81L62.2334 105.042L62.7666 103.115L61.9273 102.882L61.3941 104.81ZM62.2238 105.039L63.0006 105.263L63.553 103.34L62.7762 103.117L62.2238 105.039ZM66.1077 106.156L72.322 107.941L72.8744 106.019L66.6601 104.233L66.1077 106.156ZM73.8756 108.388L76.9827 109.281L77.5351 107.358L74.428 106.465L73.8756 108.388ZM83.197 111.066L84.7506 111.513L85.303 109.59L83.7494 109.144L83.197 111.066ZM87.8577 112.406L94.072 114.191L94.6244 112.269L88.4101 110.483L87.8577 112.406ZM95.6256 114.638L98.7327 115.531L99.2851 113.608L96.178 112.715L95.6256 114.638Z" fill="black"/>
</svg>
