<svg width="243" height="201" viewBox="0 0 243 201" fill="none" xmlns="http://www.w3.org/2000/svg">
<path d="M17.5673 188.648C17.5673 189.454 16.914 190.107 16.1081 190.107H8.86056C8.05467 190.107 7.40137 189.454 7.40137 188.648C7.40137 187.842 8.05467 187.189 8.86056 187.189H16.1081C16.914 187.189 17.5673 187.842 17.5673 188.648Z" fill="#EA5A47"/>
<path d="M17.8348 189.621C17.8348 192.307 15.4393 194.485 12.4843 194.485C9.5292 194.485 7.13379 192.307 7.13379 189.621" fill="#EA5A47"/>
<path d="M17.7009 189.621C17.6271 189.621 17.5672 189.561 17.5672 189.487V188.149C17.5672 187.619 17.1373 187.189 16.6069 187.189C16.0375 187.189 15.5972 187.683 15.5837 188.252C15.5439 189.923 14.9889 192.408 12.3951 194.119C12.2315 194.227 12.2883 194.485 12.4842 194.485C15.39 194.485 17.7546 192.379 17.8327 189.755C17.8349 189.681 17.7748 189.621 17.7009 189.621Z" fill="#D22F27"/>
<path d="M8.20389 200.078H16.7647M12.4843 194.485V200.078M12.4843 194.485C14.5656 194.485 16.3698 193.404 17.2542 191.827C17.6256 191.164 17.8348 190.415 17.8348 189.621V185M12.4843 194.485C9.5292 194.485 7.13379 192.307 7.13379 189.621V185" stroke="#1C1903" stroke-miterlimit="10" stroke-linecap="round" stroke-linejoin="round"/>
<path d="M7 187.31H17.701" stroke="#1C1903" stroke-miterlimit="10"/>
<path d="M57.5673 188.648C57.5673 189.454 56.914 190.107 56.1081 190.107H48.8606C48.0547 190.107 47.4014 189.454 47.4014 188.648C47.4014 187.842 48.0547 187.189 48.8606 187.189H56.1081C56.914 187.189 57.5673 187.842 57.5673 188.648Z" fill="#EA5A47"/>
<path d="M57.8348 189.621C57.8348 192.307 55.4393 194.485 52.4843 194.485C49.5292 194.485 47.1338 192.307 47.1338 189.621" fill="#EA5A47"/>
<path d="M57.7009 189.621C57.6271 189.621 57.5672 189.561 57.5672 189.487V188.149C57.5672 187.619 57.1373 187.189 56.6069 187.189C56.0375 187.189 55.5972 187.683 55.5837 188.252C55.5439 189.923 54.9889 192.408 52.3951 194.119C52.2315 194.227 52.2883 194.485 52.4842 194.485C55.39 194.485 57.7546 192.379 57.8327 189.755C57.8349 189.681 57.7748 189.621 57.7009 189.621Z" fill="#D22F27"/>
<path d="M48.2039 200.078H56.7647M52.4843 194.485V200.078M52.4843 194.485C54.5656 194.485 56.3698 193.404 57.2542 191.827C57.6256 191.164 57.8348 190.415 57.8348 189.621V185M52.4843 194.485C49.5292 194.485 47.1338 192.307 47.1338 189.621V185" stroke="#1C1903" stroke-miterlimit="10" stroke-linecap="round" stroke-linejoin="round"/>
<path d="M47 187.31H57.701" stroke="#1C1903" stroke-miterlimit="10"/>
<path d="M53.5673 188.648C53.5673 189.454 52.914 190.107 52.1081 190.107H44.8606C44.0547 190.107 43.4014 189.454 43.4014 188.648C43.4014 187.842 44.0547 187.189 44.8606 187.189H52.1081C52.914 187.189 53.5673 187.842 53.5673 188.648Z" fill="#EA5A47"/>
<path d="M53.8348 189.621C53.8348 192.307 51.4393 194.485 48.4843 194.485C45.5292 194.485 43.1338 192.307 43.1338 189.621" fill="#EA5A47"/>
<path d="M53.7009 189.621C53.6271 189.621 53.5672 189.561 53.5672 189.487V188.149C53.5672 187.619 53.1373 187.189 52.6069 187.189C52.0375 187.189 51.5972 187.683 51.5837 188.252C51.5439 189.923 50.9889 192.408 48.3951 194.119C48.2315 194.227 48.2883 194.485 48.4842 194.485C51.39 194.485 53.7546 192.379 53.8327 189.755C53.8349 189.681 53.7748 189.621 53.7009 189.621Z" fill="#D22F27"/>
<path d="M44.2039 200.078H52.7647M48.4843 194.485V200.078M48.4843 194.485C50.5656 194.485 52.3698 193.404 53.2542 191.827C53.6256 191.164 53.8348 190.415 53.8348 189.621V185M48.4843 194.485C45.5292 194.485 43.1338 192.307 43.1338 189.621V185" stroke="#1C1903" stroke-miterlimit="10" stroke-linecap="round" stroke-linejoin="round"/>
<path d="M43 187.31H53.701" stroke="#1C1903" stroke-miterlimit="10"/>
<path d="M1 91C0.447715 91 0 91.4477 0 92C0 92.5523 0.447715 93 1 93V91ZM36.2742 92L36.3286 91.0015L36.3014 91H36.2742V92ZM72.0522 93.95L62.3812 87.6408L61.7528 99.1707L72.0522 93.95ZM1 93H3.20463V91H1V93ZM7.6139 93H12.0232V91H7.6139V93ZM16.4324 93H20.8417V91H16.4324V93ZM25.251 93H29.6602V91H25.251V93ZM34.0695 93H36.2742V91H34.0695V93ZM36.2197 92.9985L38.4559 93.1204L38.5647 91.1234L36.3286 91.0015L36.2197 92.9985ZM42.9281 93.3641L47.4004 93.6079L47.5092 91.6109L43.037 91.3671L42.9281 93.3641ZM51.8726 93.8516L56.3449 94.0954L56.4537 92.0984L51.9815 91.8546L51.8726 93.8516ZM60.8171 94.3391L65.2894 94.5829L65.3982 92.5859L60.926 92.3421L60.8171 94.3391Z" fill="#FF0000"/>
<path d="M56.1346 63V54.2727H61.6062V55.4062H57.4513V58.0653H61.3207V59.1946H57.4513V61.8665H61.6573V63H56.1346ZM67.4091 60.2855V56.4545H68.6875V63H67.4347V61.8665H67.3665C67.2159 62.2159 66.9744 62.5071 66.642 62.7401C66.3125 62.9702 65.902 63.0852 65.4105 63.0852C64.9901 63.0852 64.6179 62.9929 64.294 62.8082C63.973 62.6207 63.7202 62.3438 63.5355 61.9773C63.3537 61.6108 63.2628 61.1577 63.2628 60.6179V56.4545H64.5369V60.4645C64.5369 60.9105 64.6605 61.2656 64.9077 61.5298C65.1548 61.794 65.4759 61.9261 65.8707 61.9261C66.1094 61.9261 66.3466 61.8665 66.5824 61.7472C66.821 61.6278 67.0185 61.4474 67.1747 61.206C67.3338 60.9645 67.4119 60.6577 67.4091 60.2855ZM70.3995 65.4545V56.4545H71.6438V57.5156H71.7504C71.8242 57.3793 71.9308 57.2216 72.07 57.0426C72.2092 56.8636 72.4023 56.7074 72.6495 56.5739C72.8967 56.4375 73.2234 56.3693 73.6296 56.3693C74.158 56.3693 74.6296 56.5028 75.0444 56.7699C75.4592 57.0369 75.7844 57.4219 76.0202 57.9247C76.2589 58.4276 76.3782 59.0327 76.3782 59.7401C76.3782 60.4474 76.2603 61.054 76.0245 61.5597C75.7887 62.0625 75.4648 62.4503 75.0529 62.723C74.641 62.9929 74.1708 63.1278 73.6424 63.1278C73.2447 63.1278 72.9194 63.0611 72.6665 62.9276C72.4165 62.794 72.2205 62.6378 72.0785 62.4588C71.9364 62.2798 71.8271 62.1207 71.7504 61.9815H71.6737V65.4545H70.3995ZM71.6481 59.7273C71.6481 60.1875 71.7148 60.5909 71.8484 60.9375C71.9819 61.2841 72.1751 61.5554 72.4279 61.7514C72.6808 61.9446 72.9904 62.0412 73.3569 62.0412C73.7376 62.0412 74.0558 61.9403 74.3114 61.7386C74.5671 61.5341 74.7603 61.2571 74.891 60.9077C75.0245 60.5582 75.0913 60.1648 75.0913 59.7273C75.0913 59.2955 75.0259 58.9077 74.8952 58.5639C74.7674 58.2202 74.5742 57.9489 74.3157 57.75C74.06 57.5511 73.7404 57.4517 73.3569 57.4517C72.9876 57.4517 72.6751 57.5469 72.4194 57.7372C72.1665 57.9276 71.9748 58.1932 71.8441 58.5341C71.7134 58.875 71.6481 59.2727 71.6481 59.7273ZM79.0799 59.1136V63H77.8058V54.2727H79.0629V57.5199H79.1438C79.2972 57.1676 79.5316 56.8878 79.8469 56.6804C80.1623 56.473 80.5742 56.3693 81.0827 56.3693C81.5316 56.3693 81.9237 56.4616 82.2589 56.6463C82.5969 56.831 82.8583 57.1065 83.043 57.473C83.2305 57.8366 83.3242 58.2912 83.3242 58.8366V63H82.0501V58.9901C82.0501 58.5099 81.9265 58.1378 81.6793 57.8736C81.4322 57.6065 81.0884 57.473 80.6481 57.473C80.3469 57.473 80.0771 57.5369 79.8384 57.6648C79.6026 57.7926 79.4165 57.9801 79.2802 58.2273C79.1467 58.4716 79.0799 58.767 79.0799 59.1136ZM87.7816 63.1321C87.168 63.1321 86.6325 62.9915 86.1751 62.7102C85.7177 62.429 85.3626 62.0355 85.1097 61.5298C84.8569 61.0241 84.7305 60.4332 84.7305 59.7571C84.7305 59.0781 84.8569 58.4844 85.1097 57.9759C85.3626 57.4673 85.7177 57.0724 86.1751 56.7912C86.6325 56.5099 87.168 56.3693 87.7816 56.3693C88.3952 56.3693 88.9308 56.5099 89.3881 56.7912C89.8455 57.0724 90.2006 57.4673 90.4535 57.9759C90.7063 58.4844 90.8327 59.0781 90.8327 59.7571C90.8327 60.4332 90.7063 61.0241 90.4535 61.5298C90.2006 62.0355 89.8455 62.429 89.3881 62.7102C88.9308 62.9915 88.3952 63.1321 87.7816 63.1321ZM87.7859 62.0625C88.1836 62.0625 88.5131 61.9574 88.7745 61.7472C89.0359 61.5369 89.229 61.2571 89.354 60.9077C89.4819 60.5582 89.5458 60.1733 89.5458 59.7528C89.5458 59.3352 89.4819 58.9517 89.354 58.6023C89.229 58.25 89.0359 57.9673 88.7745 57.7543C88.5131 57.5412 88.1836 57.4347 87.7859 57.4347C87.3853 57.4347 87.0529 57.5412 86.7887 57.7543C86.5273 57.9673 86.3327 58.25 86.2049 58.6023C86.0799 58.9517 86.0174 59.3352 86.0174 59.7528C86.0174 60.1733 86.0799 60.5582 86.2049 60.9077C86.3327 61.2571 86.5273 61.5369 86.7887 61.7472C87.0529 61.9574 87.3853 62.0625 87.7859 62.0625ZM92.255 63V56.4545H93.4865V57.4943H93.5547C93.674 57.142 93.8842 56.8651 94.1854 56.6634C94.4893 56.4588 94.8331 56.3565 95.2166 56.3565C95.2962 56.3565 95.3899 56.3594 95.4979 56.3651C95.6087 56.3707 95.6953 56.3778 95.7578 56.3864V57.6051C95.7067 57.5909 95.6158 57.5753 95.4851 57.5582C95.3544 57.5384 95.2237 57.5284 95.093 57.5284C94.7919 57.5284 94.5234 57.5923 94.2876 57.7202C94.0547 57.8452 93.87 58.0199 93.7337 58.2443C93.5973 58.4659 93.5291 58.7187 93.5291 59.0028V63H92.255ZM96.8604 63V56.4545H98.1346V63H96.8604ZM97.5039 55.4446C97.2823 55.4446 97.092 55.3707 96.9329 55.223C96.7766 55.0724 96.6985 54.8935 96.6985 54.6861C96.6985 54.4759 96.7766 54.2969 96.9329 54.1491C97.092 53.9986 97.2823 53.9233 97.5039 53.9233C97.7255 53.9233 97.9144 53.9986 98.0707 54.1491C98.2298 54.2969 98.3093 54.4759 98.3093 54.6861C98.3093 54.8935 98.2298 55.0724 98.0707 55.223C97.9144 55.3707 97.7255 55.4446 97.5039 55.4446ZM101.754 63.1449C101.339 63.1449 100.964 63.0682 100.629 62.9148C100.293 62.7585 100.028 62.5327 99.8317 62.2372C99.6385 61.9418 99.5419 61.5795 99.5419 61.1506C99.5419 60.7812 99.6129 60.4773 99.755 60.2386C99.897 60 100.089 59.8111 100.33 59.6719C100.572 59.5327 100.842 59.4276 101.14 59.3565C101.438 59.2855 101.742 59.2315 102.052 59.1946C102.444 59.1491 102.762 59.1122 103.006 59.0838C103.251 59.0526 103.428 59.0028 103.539 58.9347C103.65 58.8665 103.705 58.7557 103.705 58.6023V58.5724C103.705 58.2003 103.6 57.9119 103.39 57.7074C103.183 57.5028 102.873 57.4006 102.461 57.4006C102.032 57.4006 101.694 57.4957 101.447 57.6861C101.202 57.8736 101.033 58.0824 100.94 58.3125L99.7422 58.0398C99.8842 57.642 100.092 57.321 100.364 57.0767C100.64 56.8295 100.957 56.6506 101.315 56.5398C101.673 56.4261 102.049 56.3693 102.444 56.3693C102.705 56.3693 102.982 56.4006 103.275 56.4631C103.57 56.5227 103.846 56.6335 104.102 56.7955C104.36 56.9574 104.572 57.1889 104.737 57.4901C104.901 57.7884 104.984 58.1761 104.984 58.6534V63H103.739V62.1051H103.688C103.606 62.2699 103.482 62.4318 103.317 62.5909C103.153 62.75 102.941 62.8821 102.683 62.9872C102.424 63.0923 102.114 63.1449 101.754 63.1449ZM102.031 62.1222C102.383 62.1222 102.684 62.0526 102.934 61.9134C103.187 61.7741 103.379 61.5923 103.509 61.3679C103.643 61.1406 103.71 60.8977 103.71 60.6392V59.7955C103.664 59.8409 103.576 59.8835 103.445 59.9233C103.317 59.9602 103.171 59.9929 103.006 60.0213C102.842 60.0469 102.681 60.071 102.525 60.0938C102.369 60.1136 102.238 60.1307 102.133 60.1449C101.886 60.1761 101.66 60.2287 101.455 60.3026C101.254 60.3764 101.092 60.483 100.969 60.6222C100.85 60.7585 100.79 60.9403 100.79 61.1676C100.79 61.483 100.907 61.7216 101.14 61.8835C101.373 62.0426 101.67 62.1222 102.031 62.1222Z" fill="#1C1903"/>
<path d="M107.102 86.5653C107.056 86.1619 106.869 85.8494 106.539 85.6278C106.21 85.4034 105.795 85.2912 105.295 85.2912C104.937 85.2912 104.627 85.348 104.366 85.4616C104.104 85.5724 103.901 85.7259 103.756 85.9219C103.614 86.1151 103.543 86.3352 103.543 86.5824C103.543 86.7898 103.592 86.9687 103.688 87.1193C103.788 87.2699 103.917 87.3963 104.076 87.4986C104.238 87.598 104.411 87.6818 104.596 87.75C104.781 87.8153 104.958 87.8693 105.129 87.9119L105.981 88.1335C106.259 88.2017 106.545 88.294 106.837 88.4105C107.13 88.527 107.401 88.6804 107.651 88.8707C107.901 89.0611 108.103 89.2969 108.256 89.5781C108.413 89.8594 108.491 90.196 108.491 90.5881C108.491 91.0824 108.363 91.5213 108.107 91.9048C107.854 92.2884 107.487 92.5909 107.004 92.8125C106.523 93.0341 105.942 93.1449 105.261 93.1449C104.607 93.1449 104.042 93.0412 103.565 92.8338C103.087 92.6264 102.714 92.3324 102.444 91.9517C102.174 91.5682 102.025 91.1136 101.996 90.5881H103.317C103.343 90.9034 103.445 91.1662 103.624 91.3764C103.806 91.5838 104.038 91.7386 104.319 91.8409C104.603 91.9403 104.914 91.9901 105.252 91.9901C105.624 91.9901 105.955 91.9318 106.245 91.8153C106.538 91.696 106.768 91.5312 106.935 91.321C107.103 91.108 107.187 90.8594 107.187 90.5753C107.187 90.3168 107.113 90.1051 106.965 89.9403C106.82 89.7756 106.623 89.6392 106.373 89.5312C106.126 89.4233 105.846 89.3281 105.533 89.2457L104.502 88.9645C103.803 88.7741 103.249 88.4943 102.84 88.125C102.434 87.7557 102.231 87.267 102.231 86.6591C102.231 86.1562 102.367 85.7173 102.64 85.3423C102.913 84.9673 103.282 84.6761 103.748 84.4688C104.214 84.2585 104.739 84.1534 105.325 84.1534C105.915 84.1534 106.437 84.2571 106.888 84.4645C107.343 84.6719 107.701 84.9574 107.962 85.321C108.224 85.6818 108.36 86.0966 108.371 86.5653H107.102ZM109.962 95.4545V86.4545H111.206V87.5156H111.313C111.387 87.3793 111.493 87.2216 111.632 87.0426C111.772 86.8636 111.965 86.7074 112.212 86.5739C112.459 86.4375 112.786 86.3693 113.192 86.3693C113.721 86.3693 114.192 86.5028 114.607 86.7699C115.022 87.0369 115.347 87.4219 115.583 87.9247C115.821 88.4276 115.941 89.0327 115.941 89.7401C115.941 90.4474 115.823 91.054 115.587 91.5597C115.351 92.0625 115.027 92.4503 114.615 92.723C114.203 92.9929 113.733 93.1278 113.205 93.1278C112.807 93.1278 112.482 93.0611 112.229 92.9276C111.979 92.794 111.783 92.6378 111.641 92.4588C111.499 92.2798 111.39 92.1207 111.313 91.9815H111.236V95.4545H109.962ZM111.211 89.7273C111.211 90.1875 111.277 90.5909 111.411 90.9375C111.544 91.2841 111.738 91.5554 111.99 91.7514C112.243 91.9446 112.553 92.0412 112.919 92.0412C113.3 92.0412 113.618 91.9403 113.874 91.7386C114.13 91.5341 114.323 91.2571 114.453 90.9077C114.587 90.5582 114.654 90.1648 114.654 89.7273C114.654 89.2955 114.588 88.9077 114.458 88.5639C114.33 88.2202 114.137 87.9489 113.878 87.75C113.623 87.5511 113.303 87.4517 112.919 87.4517C112.55 87.4517 112.238 87.5469 111.982 87.7372C111.729 87.9276 111.537 88.1932 111.407 88.5341C111.276 88.875 111.211 89.2727 111.211 89.7273ZM120.189 93.1321C119.544 93.1321 118.989 92.9943 118.523 92.7188C118.06 92.4403 117.702 92.0497 117.449 91.5469C117.199 91.0412 117.074 90.4489 117.074 89.7699C117.074 89.0994 117.199 88.5085 117.449 87.9972C117.702 87.4858 118.054 87.0866 118.506 86.7997C118.961 86.5128 119.492 86.3693 120.1 86.3693C120.469 86.3693 120.827 86.4304 121.174 86.5526C121.52 86.6747 121.831 86.8665 122.107 87.1278C122.382 87.3892 122.6 87.7287 122.759 88.1463C122.918 88.5611 122.998 89.0653 122.998 89.6591V90.1108H117.794V89.1562H121.749C121.749 88.821 121.681 88.5241 121.544 88.2656C121.408 88.0043 121.216 87.7983 120.969 87.6477C120.725 87.4972 120.438 87.4219 120.108 87.4219C119.75 87.4219 119.438 87.5099 119.171 87.6861C118.907 87.8594 118.702 88.0866 118.557 88.3679C118.415 88.6463 118.344 88.9489 118.344 89.2756V90.0213C118.344 90.4588 118.421 90.831 118.574 91.1378C118.73 91.4446 118.948 91.679 119.226 91.8409C119.505 92 119.83 92.0795 120.202 92.0795C120.444 92.0795 120.664 92.0455 120.863 91.9773C121.061 91.9062 121.233 91.8011 121.378 91.6619C121.523 91.5227 121.634 91.3509 121.711 91.1463L122.917 91.3636C122.82 91.7187 122.647 92.0298 122.397 92.2969C122.15 92.5611 121.838 92.767 121.463 92.9148C121.091 93.0597 120.667 93.1321 120.189 93.1321ZM127.232 93.1321C126.587 93.1321 126.032 92.9943 125.566 92.7188C125.103 92.4403 124.745 92.0497 124.492 91.5469C124.242 91.0412 124.117 90.4489 124.117 89.7699C124.117 89.0994 124.242 88.5085 124.492 87.9972C124.745 87.4858 125.097 87.0866 125.549 86.7997C126.004 86.5128 126.535 86.3693 127.143 86.3693C127.512 86.3693 127.87 86.4304 128.217 86.5526C128.563 86.6747 128.874 86.8665 129.15 87.1278C129.425 87.3892 129.643 87.7287 129.802 88.1463C129.961 88.5611 130.04 89.0653 130.04 89.6591V90.1108H124.837V89.1562H128.792C128.792 88.821 128.724 88.5241 128.587 88.2656C128.451 88.0043 128.259 87.7983 128.012 87.6477C127.768 87.4972 127.481 87.4219 127.151 87.4219C126.793 87.4219 126.481 87.5099 126.214 87.6861C125.95 87.8594 125.745 88.0866 125.6 88.3679C125.458 88.6463 125.387 88.9489 125.387 89.2756V90.0213C125.387 90.4588 125.464 90.831 125.617 91.1378C125.773 91.4446 125.991 91.679 126.269 91.8409C126.548 92 126.873 92.0795 127.245 92.0795C127.487 92.0795 127.707 92.0455 127.906 91.9773C128.104 91.9062 128.276 91.8011 128.421 91.6619C128.566 91.5227 128.677 91.3509 128.754 91.1463L129.96 91.3636C129.863 91.7187 129.69 92.0298 129.44 92.2969C129.192 92.5611 128.881 92.767 128.506 92.9148C128.134 93.0597 127.71 93.1321 127.232 93.1321ZM134.211 93.1321C133.578 93.1321 133.032 92.9886 132.575 92.7017C132.12 92.4119 131.771 92.0128 131.527 91.5043C131.282 90.9957 131.16 90.4134 131.16 89.7571C131.16 89.0923 131.285 88.5057 131.535 87.9972C131.785 87.4858 132.137 87.0866 132.592 86.7997C133.047 86.5128 133.582 86.3693 134.199 86.3693C134.696 86.3693 135.139 86.4616 135.528 86.6463C135.917 86.8281 136.231 87.0838 136.47 87.4134C136.711 87.7429 136.855 88.1278 136.9 88.5682H135.66C135.592 88.2614 135.436 87.9972 135.191 87.7756C134.95 87.554 134.626 87.4432 134.22 87.4432C133.865 87.4432 133.554 87.5369 133.287 87.7244C133.022 87.9091 132.816 88.1733 132.669 88.517C132.521 88.858 132.447 89.2614 132.447 89.7273C132.447 90.2045 132.52 90.6165 132.664 90.9631C132.809 91.3097 133.014 91.5781 133.278 91.7685C133.545 91.9588 133.859 92.054 134.22 92.054C134.461 92.054 134.68 92.0099 134.876 91.9219C135.075 91.831 135.241 91.7017 135.375 91.5341C135.511 91.3665 135.606 91.1648 135.66 90.929H136.9C136.855 91.3523 136.717 91.7301 136.487 92.0625C136.257 92.3949 135.949 92.6562 135.562 92.8466C135.179 93.0369 134.728 93.1321 134.211 93.1321ZM139.537 89.1136V93H138.263V84.2727H139.52V87.5199H139.601C139.754 87.1676 139.989 86.8878 140.304 86.6804C140.619 86.473 141.031 86.3693 141.54 86.3693C141.989 86.3693 142.381 86.4616 142.716 86.6463C143.054 86.831 143.315 87.1065 143.5 87.473C143.688 87.8366 143.781 88.2912 143.781 88.8366V93H142.507V88.9901C142.507 88.5099 142.384 88.1378 142.136 87.8736C141.889 87.6065 141.545 87.473 141.105 87.473C140.804 87.473 140.534 87.5369 140.295 87.6648C140.06 87.7926 139.874 87.9801 139.737 88.2273C139.604 88.4716 139.537 88.767 139.537 89.1136ZM151.197 93.1236C150.612 93.1236 150.108 93.017 149.684 92.804C149.264 92.5909 148.94 92.3011 148.713 91.9347C148.485 91.5653 148.372 91.1477 148.372 90.6818C148.372 90.3267 148.446 90.0114 148.593 89.7358C148.741 89.4574 148.947 89.2003 149.211 88.9645C149.475 88.7287 149.781 88.4915 150.127 88.2528L151.534 87.2599C151.772 87.1037 151.958 86.9389 152.092 86.7656C152.225 86.5895 152.292 86.3722 152.292 86.1136C152.292 85.9091 152.204 85.7131 152.028 85.5256C151.852 85.3381 151.616 85.2443 151.321 85.2443C151.116 85.2443 150.936 85.294 150.779 85.3935C150.626 85.4929 150.505 85.6207 150.417 85.777C150.332 85.9304 150.289 86.0923 150.289 86.2628C150.289 86.4616 150.343 86.6619 150.451 86.8636C150.562 87.0653 150.704 87.2741 150.877 87.4901C151.051 87.7031 151.233 87.9247 151.423 88.1548L155.475 93H154.035L150.681 89.0582C150.4 88.7259 150.139 88.4134 149.897 88.1207C149.656 87.8253 149.46 87.527 149.309 87.2259C149.162 86.9219 149.088 86.5938 149.088 86.2415C149.088 85.8409 149.179 85.4858 149.36 85.1761C149.545 84.8636 149.802 84.6193 150.132 84.4432C150.461 84.267 150.848 84.179 151.291 84.179C151.74 84.179 152.125 84.267 152.446 84.4432C152.77 84.6165 153.018 84.848 153.191 85.1378C153.368 85.4247 153.456 85.7386 153.456 86.0795C153.456 86.4943 153.352 86.8608 153.145 87.179C152.94 87.4943 152.657 87.7841 152.297 88.0483L150.545 89.3395C150.204 89.5895 149.967 89.8366 149.833 90.081C149.703 90.3224 149.637 90.5114 149.637 90.6477C149.637 90.8977 149.701 91.1293 149.829 91.3423C149.96 91.5554 150.142 91.7259 150.375 91.8537C150.61 91.9815 150.886 92.0455 151.201 92.0455C151.525 92.0455 151.841 91.9759 152.147 91.8366C152.457 91.6946 152.737 91.4915 152.987 91.2273C153.24 90.9631 153.44 90.6463 153.588 90.277C153.735 89.9077 153.809 89.4943 153.809 89.0369H154.96C154.96 89.5994 154.896 90.0753 154.768 90.4645C154.64 90.8509 154.485 91.1662 154.304 91.4105C154.125 91.652 153.956 91.8409 153.797 91.9773C153.745 92.0227 153.697 92.0682 153.652 92.1136C153.606 92.1591 153.558 92.2045 153.507 92.25C153.211 92.5483 152.853 92.7685 152.433 92.9105C152.015 93.0526 151.603 93.1236 151.197 93.1236ZM96.1136 108.132C95.4801 108.132 94.9347 107.989 94.4773 107.702C94.0227 107.412 93.6733 107.013 93.429 106.504C93.1847 105.996 93.0625 105.413 93.0625 104.757C93.0625 104.092 93.1875 103.506 93.4375 102.997C93.6875 102.486 94.0398 102.087 94.4943 101.8C94.9489 101.513 95.4844 101.369 96.1009 101.369C96.598 101.369 97.0412 101.462 97.4304 101.646C97.8196 101.828 98.1335 102.084 98.3722 102.413C98.6136 102.743 98.7571 103.128 98.8026 103.568H97.5625C97.4943 103.261 97.3381 102.997 97.0938 102.776C96.8523 102.554 96.5284 102.443 96.1222 102.443C95.767 102.443 95.456 102.537 95.1889 102.724C94.9247 102.909 94.7188 103.173 94.571 103.517C94.4233 103.858 94.3494 104.261 94.3494 104.727C94.3494 105.205 94.4219 105.616 94.5668 105.963C94.7116 106.31 94.9162 106.578 95.1804 106.768C95.4474 106.959 95.7614 107.054 96.1222 107.054C96.3636 107.054 96.5824 107.01 96.7784 106.922C96.9773 106.831 97.1435 106.702 97.277 106.534C97.4134 106.366 97.5085 106.165 97.5625 105.929H98.8026C98.7571 106.352 98.6193 106.73 98.3892 107.062C98.1591 107.395 97.8509 107.656 97.4645 107.847C97.081 108.037 96.6307 108.132 96.1136 108.132ZM102.922 108.132C102.309 108.132 101.773 107.991 101.316 107.71C100.858 107.429 100.503 107.036 100.25 106.53C99.9975 106.024 99.8711 105.433 99.8711 104.757C99.8711 104.078 99.9975 103.484 100.25 102.976C100.503 102.467 100.858 102.072 101.316 101.791C101.773 101.51 102.309 101.369 102.922 101.369C103.536 101.369 104.071 101.51 104.529 101.791C104.986 102.072 105.341 102.467 105.594 102.976C105.847 103.484 105.973 104.078 105.973 104.757C105.973 105.433 105.847 106.024 105.594 106.53C105.341 107.036 104.986 107.429 104.529 107.71C104.071 107.991 103.536 108.132 102.922 108.132ZM102.926 107.062C103.324 107.062 103.654 106.957 103.915 106.747C104.176 106.537 104.37 106.257 104.495 105.908C104.623 105.558 104.686 105.173 104.686 104.753C104.686 104.335 104.623 103.952 104.495 103.602C104.37 103.25 104.176 102.967 103.915 102.754C103.654 102.541 103.324 102.435 102.926 102.435C102.526 102.435 102.194 102.541 101.929 102.754C101.668 102.967 101.473 103.25 101.346 103.602C101.221 103.952 101.158 104.335 101.158 104.753C101.158 105.173 101.221 105.558 101.346 105.908C101.473 106.257 101.668 106.537 101.929 106.747C102.194 106.957 102.526 107.062 102.926 107.062ZM110.153 108.132C109.539 108.132 109.004 107.991 108.546 107.71C108.089 107.429 107.734 107.036 107.481 106.53C107.228 106.024 107.102 105.433 107.102 104.757C107.102 104.078 107.228 103.484 107.481 102.976C107.734 102.467 108.089 102.072 108.546 101.791C109.004 101.51 109.539 101.369 110.153 101.369C110.766 101.369 111.302 101.51 111.759 101.791C112.217 102.072 112.572 102.467 112.825 102.976C113.077 103.484 113.204 104.078 113.204 104.757C113.204 105.433 113.077 106.024 112.825 106.53C112.572 107.036 112.217 107.429 111.759 107.71C111.302 107.991 110.766 108.132 110.153 108.132ZM110.157 107.062C110.555 107.062 110.884 106.957 111.146 106.747C111.407 106.537 111.6 106.257 111.725 105.908C111.853 105.558 111.917 105.173 111.917 104.753C111.917 104.335 111.853 103.952 111.725 103.602C111.6 103.25 111.407 102.967 111.146 102.754C110.884 102.541 110.555 102.435 110.157 102.435C109.756 102.435 109.424 102.541 109.16 102.754C108.898 102.967 108.704 103.25 108.576 103.602C108.451 103.952 108.388 104.335 108.388 104.753C108.388 105.173 108.451 105.558 108.576 105.908C108.704 106.257 108.898 106.537 109.16 106.747C109.424 106.957 109.756 107.062 110.157 107.062ZM114.626 108V101.455H115.858V102.494H115.926C116.045 102.142 116.255 101.865 116.556 101.663C116.86 101.459 117.204 101.357 117.588 101.357C117.667 101.357 117.761 101.359 117.869 101.365C117.98 101.371 118.066 101.378 118.129 101.386V102.605C118.078 102.591 117.987 102.575 117.856 102.558C117.725 102.538 117.595 102.528 117.464 102.528C117.163 102.528 116.895 102.592 116.659 102.72C116.426 102.845 116.241 103.02 116.105 103.244C115.968 103.466 115.9 103.719 115.9 104.003V108H114.626ZM121.447 108.128C120.919 108.128 120.447 107.993 120.033 107.723C119.621 107.45 119.297 107.062 119.061 106.56C118.828 106.054 118.712 105.447 118.712 104.74C118.712 104.033 118.83 103.428 119.065 102.925C119.304 102.422 119.631 102.037 120.045 101.77C120.46 101.503 120.93 101.369 121.456 101.369C121.862 101.369 122.189 101.438 122.436 101.574C122.686 101.707 122.879 101.864 123.016 102.043C123.155 102.222 123.263 102.379 123.339 102.516H123.416V99.2727H124.69V108H123.446V106.982H123.339C123.263 107.121 123.152 107.28 123.007 107.459C122.865 107.638 122.669 107.794 122.419 107.928C122.169 108.061 121.845 108.128 121.447 108.128ZM121.729 107.041C122.095 107.041 122.405 106.945 122.658 106.751C122.913 106.555 123.107 106.284 123.237 105.938C123.371 105.591 123.438 105.187 123.438 104.727C123.438 104.273 123.372 103.875 123.241 103.534C123.111 103.193 122.919 102.928 122.666 102.737C122.413 102.547 122.101 102.452 121.729 102.452C121.345 102.452 121.026 102.551 120.77 102.75C120.514 102.949 120.321 103.22 120.19 103.564C120.063 103.908 119.999 104.295 119.999 104.727C119.999 105.165 120.064 105.558 120.195 105.908C120.325 106.257 120.518 106.534 120.774 106.739C121.033 106.94 121.351 107.041 121.729 107.041ZM126.509 108V101.455H127.783V108H126.509ZM127.152 100.445C126.931 100.445 126.74 100.371 126.581 100.223C126.425 100.072 126.347 99.8935 126.347 99.6861C126.347 99.4759 126.425 99.2969 126.581 99.1491C126.74 98.9986 126.931 98.9233 127.152 98.9233C127.374 98.9233 127.563 98.9986 127.719 99.1491C127.878 99.2969 127.958 99.4759 127.958 99.6861C127.958 99.8935 127.878 100.072 127.719 100.223C127.563 100.371 127.374 100.445 127.152 100.445ZM130.771 104.114V108H129.497V101.455H130.72V102.52H130.801C130.952 102.173 131.188 101.895 131.509 101.685C131.832 101.474 132.24 101.369 132.732 101.369C133.178 101.369 133.568 101.463 133.903 101.651C134.239 101.835 134.499 102.111 134.683 102.477C134.868 102.844 134.96 103.297 134.96 103.837V108H133.686V103.99C133.686 103.516 133.563 103.145 133.315 102.878C133.068 102.608 132.729 102.473 132.297 102.473C132.001 102.473 131.739 102.537 131.509 102.665C131.281 102.793 131.101 102.98 130.967 103.227C130.837 103.472 130.771 103.767 130.771 104.114ZM138.574 108.145C138.159 108.145 137.784 108.068 137.449 107.915C137.114 107.759 136.848 107.533 136.652 107.237C136.459 106.942 136.362 106.58 136.362 106.151C136.362 105.781 136.433 105.477 136.575 105.239C136.717 105 136.909 104.811 137.151 104.672C137.392 104.533 137.662 104.428 137.96 104.357C138.259 104.286 138.563 104.232 138.872 104.195C139.264 104.149 139.582 104.112 139.827 104.084C140.071 104.053 140.249 104.003 140.359 103.935C140.47 103.866 140.526 103.756 140.526 103.602V103.572C140.526 103.2 140.42 102.912 140.21 102.707C140.003 102.503 139.693 102.401 139.281 102.401C138.852 102.401 138.514 102.496 138.267 102.686C138.023 102.874 137.854 103.082 137.76 103.312L136.562 103.04C136.705 102.642 136.912 102.321 137.185 102.077C137.46 101.83 137.777 101.651 138.135 101.54C138.493 101.426 138.869 101.369 139.264 101.369C139.526 101.369 139.803 101.401 140.095 101.463C140.391 101.523 140.666 101.634 140.922 101.795C141.18 101.957 141.392 102.189 141.557 102.49C141.722 102.788 141.804 103.176 141.804 103.653V108H140.56V107.105H140.509C140.426 107.27 140.303 107.432 140.138 107.591C139.973 107.75 139.761 107.882 139.503 107.987C139.244 108.092 138.935 108.145 138.574 108.145ZM138.851 107.122C139.203 107.122 139.504 107.053 139.754 106.913C140.007 106.774 140.199 106.592 140.33 106.368C140.463 106.141 140.53 105.898 140.53 105.639V104.795C140.484 104.841 140.396 104.884 140.266 104.923C140.138 104.96 139.991 104.993 139.827 105.021C139.662 105.047 139.501 105.071 139.345 105.094C139.189 105.114 139.058 105.131 138.953 105.145C138.706 105.176 138.48 105.229 138.276 105.303C138.074 105.376 137.912 105.483 137.79 105.622C137.67 105.759 137.611 105.94 137.611 106.168C137.611 106.483 137.727 106.722 137.96 106.884C138.193 107.043 138.49 107.122 138.851 107.122ZM146.556 101.455V102.477H142.981V101.455H146.556ZM143.94 99.8864H145.214V106.078C145.214 106.325 145.251 106.511 145.325 106.636C145.399 106.759 145.494 106.842 145.61 106.888C145.73 106.93 145.859 106.952 145.998 106.952C146.1 106.952 146.19 106.945 146.267 106.93C146.343 106.916 146.403 106.905 146.446 106.896L146.676 107.949C146.602 107.977 146.497 108.006 146.36 108.034C146.224 108.065 146.054 108.082 145.849 108.085C145.514 108.091 145.201 108.031 144.912 107.906C144.622 107.781 144.387 107.588 144.208 107.327C144.029 107.065 143.94 106.737 143.94 106.342V99.8864ZM147.966 108V101.455H149.24V108H147.966ZM148.609 100.445C148.388 100.445 148.197 100.371 148.038 100.223C147.882 100.072 147.804 99.8935 147.804 99.6861C147.804 99.4759 147.882 99.2969 148.038 99.1491C148.197 98.9986 148.388 98.9233 148.609 98.9233C148.831 98.9233 149.02 98.9986 149.176 99.1491C149.335 99.2969 149.415 99.4759 149.415 99.6861C149.415 99.8935 149.335 100.072 149.176 100.223C149.02 100.371 148.831 100.445 148.609 100.445ZM153.711 108.132C153.098 108.132 152.562 107.991 152.105 107.71C151.647 107.429 151.292 107.036 151.039 106.53C150.787 106.024 150.66 105.433 150.66 104.757C150.66 104.078 150.787 103.484 151.039 102.976C151.292 102.467 151.647 102.072 152.105 101.791C152.562 101.51 153.098 101.369 153.711 101.369C154.325 101.369 154.86 101.51 155.318 101.791C155.775 102.072 156.13 102.467 156.383 102.976C156.636 103.484 156.762 104.078 156.762 104.757C156.762 105.433 156.636 106.024 156.383 106.53C156.13 107.036 155.775 107.429 155.318 107.71C154.86 107.991 154.325 108.132 153.711 108.132ZM153.716 107.062C154.113 107.062 154.443 106.957 154.704 106.747C154.966 106.537 155.159 106.257 155.284 105.908C155.412 105.558 155.475 105.173 155.475 104.753C155.475 104.335 155.412 103.952 155.284 103.602C155.159 103.25 154.966 102.967 154.704 102.754C154.443 102.541 154.113 102.435 153.716 102.435C153.315 102.435 152.983 102.541 152.718 102.754C152.457 102.967 152.262 103.25 152.135 103.602C152.01 103.952 151.947 104.335 151.947 104.753C151.947 105.173 152.01 105.558 152.135 105.908C152.262 106.257 152.457 106.537 152.718 106.747C152.983 106.957 153.315 107.062 153.716 107.062ZM159.459 104.114V108H158.185V101.455H159.408V102.52H159.489C159.639 102.173 159.875 101.895 160.196 101.685C160.52 101.474 160.928 101.369 161.419 101.369C161.865 101.369 162.256 101.463 162.591 101.651C162.926 101.835 163.186 102.111 163.371 102.477C163.555 102.844 163.648 103.297 163.648 103.837V108H162.374V103.99C162.374 103.516 162.25 103.145 162.003 102.878C161.756 102.608 161.416 102.473 160.984 102.473C160.689 102.473 160.426 102.537 160.196 102.665C159.969 102.793 159.788 102.98 159.655 103.227C159.524 103.472 159.459 103.767 159.459 104.114Z" fill="#1C1903"/>
<path d="M67.0341 121H64.2088V112.273H67.1236C67.9787 112.273 68.7131 112.447 69.3267 112.797C69.9403 113.143 70.4105 113.642 70.7372 114.293C71.0668 114.94 71.2315 115.717 71.2315 116.624C71.2315 117.533 71.0653 118.314 70.733 118.967C70.4034 119.621 69.9261 120.124 69.3011 120.476C68.6761 120.825 67.9205 121 67.0341 121ZM65.5256 119.849H66.9616C67.6264 119.849 68.179 119.724 68.6193 119.474C69.0597 119.222 69.3892 118.857 69.608 118.379C69.8267 117.899 69.9361 117.314 69.9361 116.624C69.9361 115.939 69.8267 115.358 69.608 114.881C69.392 114.403 69.0696 114.041 68.6406 113.794C68.2116 113.547 67.679 113.423 67.0426 113.423H65.5256V119.849ZM75.5877 121.132C74.9428 121.132 74.3874 120.994 73.9215 120.719C73.4585 120.44 73.1005 120.05 72.8477 119.547C72.5977 119.041 72.4727 118.449 72.4727 117.77C72.4727 117.099 72.5977 116.509 72.8477 115.997C73.1005 115.486 73.4528 115.087 73.9045 114.8C74.359 114.513 74.8903 114.369 75.4982 114.369C75.8675 114.369 76.2255 114.43 76.5721 114.553C76.9187 114.675 77.2298 114.866 77.5053 115.128C77.7809 115.389 77.9982 115.729 78.1573 116.146C78.3164 116.561 78.396 117.065 78.396 117.659V118.111H73.1928V117.156H77.1474C77.1474 116.821 77.0792 116.524 76.9428 116.266C76.8065 116.004 76.6147 115.798 76.3675 115.648C76.1232 115.497 75.8363 115.422 75.5067 115.422C75.1488 115.422 74.8363 115.51 74.5692 115.686C74.305 115.859 74.1005 116.087 73.9556 116.368C73.8136 116.646 73.7425 116.949 73.7425 117.276V118.021C73.7425 118.459 73.8192 118.831 73.9727 119.138C74.1289 119.445 74.3462 119.679 74.6246 119.841C74.9031 120 75.2283 120.08 75.6005 120.08C75.842 120.08 76.0621 120.045 76.261 119.977C76.4599 119.906 76.6317 119.801 76.7766 119.662C76.9215 119.523 77.0323 119.351 77.109 119.146L78.315 119.364C78.2184 119.719 78.0451 120.03 77.7951 120.297C77.5479 120.561 77.2369 120.767 76.8619 120.915C76.4897 121.06 76.065 121.132 75.5877 121.132ZM82.5668 121.132C81.9332 121.132 81.3878 120.989 80.9304 120.702C80.4759 120.412 80.1264 120.013 79.8821 119.504C79.6378 118.996 79.5156 118.413 79.5156 117.757C79.5156 117.092 79.6406 116.506 79.8906 115.997C80.1406 115.486 80.4929 115.087 80.9474 114.8C81.402 114.513 81.9375 114.369 82.554 114.369C83.0511 114.369 83.4943 114.462 83.8835 114.646C84.2727 114.828 84.5866 115.084 84.8253 115.413C85.0668 115.743 85.2102 116.128 85.2557 116.568H84.0156C83.9474 116.261 83.7912 115.997 83.5469 115.776C83.3054 115.554 82.9815 115.443 82.5753 115.443C82.2202 115.443 81.9091 115.537 81.642 115.724C81.3778 115.909 81.1719 116.173 81.0241 116.517C80.8764 116.858 80.8026 117.261 80.8026 117.727C80.8026 118.205 80.875 118.616 81.0199 118.963C81.1648 119.31 81.3693 119.578 81.6335 119.768C81.9006 119.959 82.2145 120.054 82.5753 120.054C82.8168 120.054 83.0355 120.01 83.2315 119.922C83.4304 119.831 83.5966 119.702 83.7301 119.534C83.8665 119.366 83.9616 119.165 84.0156 118.929H85.2557C85.2102 119.352 85.0724 119.73 84.8423 120.062C84.6122 120.395 84.304 120.656 83.9176 120.847C83.5341 121.037 83.0838 121.132 82.5668 121.132ZM86.6183 121V114.455H87.8924V121H86.6183ZM87.2617 113.445C87.0401 113.445 86.8498 113.371 86.6907 113.223C86.5344 113.072 86.4563 112.893 86.4563 112.686C86.4563 112.476 86.5344 112.297 86.6907 112.149C86.8498 111.999 87.0401 111.923 87.2617 111.923C87.4833 111.923 87.6722 111.999 87.8285 112.149C87.9876 112.297 88.0671 112.476 88.0671 112.686C88.0671 112.893 87.9876 113.072 87.8285 113.223C87.6722 113.371 87.4833 113.445 87.2617 113.445ZM94.5114 116.053L93.3565 116.257C93.3082 116.109 93.2315 115.969 93.1264 115.835C93.0241 115.702 92.8849 115.592 92.7088 115.507C92.5327 115.422 92.3125 115.379 92.0483 115.379C91.6875 115.379 91.3864 115.46 91.1449 115.622C90.9034 115.781 90.7827 115.987 90.7827 116.24C90.7827 116.459 90.8636 116.635 91.0256 116.768C91.1875 116.902 91.4489 117.011 91.8097 117.097L92.8494 117.335C93.4517 117.474 93.9006 117.689 94.196 117.979C94.4915 118.268 94.6392 118.645 94.6392 119.108C94.6392 119.5 94.5256 119.849 94.2983 120.156C94.0739 120.46 93.7599 120.699 93.3565 120.872C92.956 121.045 92.4915 121.132 91.9631 121.132C91.2301 121.132 90.6321 120.976 90.169 120.663C89.706 120.348 89.4219 119.901 89.3168 119.321L90.5483 119.134C90.625 119.455 90.7827 119.697 91.0213 119.862C91.2599 120.024 91.571 120.105 91.9545 120.105C92.3722 120.105 92.706 120.018 92.956 119.845C93.206 119.669 93.331 119.455 93.331 119.202C93.331 118.997 93.2543 118.825 93.1009 118.686C92.9503 118.547 92.7188 118.442 92.4062 118.371L91.2983 118.128C90.6875 117.989 90.2358 117.767 89.9432 117.463C89.6534 117.159 89.5085 116.774 89.5085 116.308C89.5085 115.922 89.6165 115.584 89.8324 115.294C90.0483 115.004 90.3466 114.778 90.7273 114.616C91.108 114.452 91.544 114.369 92.0355 114.369C92.7429 114.369 93.2997 114.523 93.706 114.83C94.1122 115.134 94.3807 115.541 94.5114 116.053ZM96.0401 121V114.455H97.3143V121H96.0401ZM96.6836 113.445C96.462 113.445 96.2717 113.371 96.1126 113.223C95.9563 113.072 95.8782 112.893 95.8782 112.686C95.8782 112.476 95.9563 112.297 96.1126 112.149C96.2717 111.999 96.462 111.923 96.6836 111.923C96.9052 111.923 97.0941 111.999 97.2504 112.149C97.4094 112.297 97.489 112.476 97.489 112.686C97.489 112.893 97.4094 113.072 97.2504 113.223C97.0941 113.371 96.9052 113.445 96.6836 113.445ZM101.786 121.132C101.172 121.132 100.636 120.991 100.179 120.71C99.7216 120.429 99.3665 120.036 99.1136 119.53C98.8608 119.024 98.7344 118.433 98.7344 117.757C98.7344 117.078 98.8608 116.484 99.1136 115.976C99.3665 115.467 99.7216 115.072 100.179 114.791C100.636 114.51 101.172 114.369 101.786 114.369C102.399 114.369 102.935 114.51 103.392 114.791C103.849 115.072 104.205 115.467 104.457 115.976C104.71 116.484 104.837 117.078 104.837 117.757C104.837 118.433 104.71 119.024 104.457 119.53C104.205 120.036 103.849 120.429 103.392 120.71C102.935 120.991 102.399 121.132 101.786 121.132ZM101.79 120.062C102.188 120.062 102.517 119.957 102.778 119.747C103.04 119.537 103.233 119.257 103.358 118.908C103.486 118.558 103.55 118.173 103.55 117.753C103.55 117.335 103.486 116.952 103.358 116.602C103.233 116.25 103.04 115.967 102.778 115.754C102.517 115.541 102.188 115.435 101.79 115.435C101.389 115.435 101.057 115.541 100.793 115.754C100.531 115.967 100.337 116.25 100.209 116.602C100.084 116.952 100.021 117.335 100.021 117.753C100.021 118.173 100.084 118.558 100.209 118.908C100.337 119.257 100.531 119.537 100.793 119.747C101.057 119.957 101.389 120.062 101.79 120.062ZM107.533 117.114V121H106.259V114.455H107.482V115.52H107.563C107.713 115.173 107.949 114.895 108.27 114.685C108.594 114.474 109.002 114.369 109.493 114.369C109.939 114.369 110.33 114.463 110.665 114.651C111 114.835 111.26 115.111 111.445 115.477C111.63 115.844 111.722 116.297 111.722 116.837V121H110.448V116.99C110.448 116.516 110.324 116.145 110.077 115.878C109.83 115.608 109.49 115.473 109.059 115.473C108.763 115.473 108.5 115.537 108.27 115.665C108.043 115.793 107.863 115.98 107.729 116.227C107.598 116.472 107.533 116.767 107.533 117.114ZM69.5147 136V129.455H70.7377V130.52H70.8187C70.9551 130.159 71.1781 129.878 71.4877 129.676C71.7974 129.472 72.1681 129.369 72.6 129.369C73.0375 129.369 73.4039 129.472 73.6994 129.676C73.9977 129.881 74.2179 130.162 74.3599 130.52H74.4281C74.5843 130.17 74.8329 129.892 75.1738 129.685C75.5147 129.474 75.921 129.369 76.3926 129.369C76.9863 129.369 77.4707 129.555 77.8457 129.928C78.2235 130.3 78.4125 130.861 78.4125 131.611V136H77.1383V131.73C77.1383 131.287 77.0176 130.966 76.7761 130.767C76.5346 130.568 76.2463 130.469 75.911 130.469C75.4963 130.469 75.1738 130.597 74.9437 130.852C74.7136 131.105 74.5985 131.43 74.5985 131.828V136H73.3287V131.649C73.3287 131.294 73.2179 131.009 72.9963 130.793C72.7747 130.577 72.4863 130.469 72.1312 130.469C71.8897 130.469 71.6667 130.533 71.4622 130.661C71.2605 130.786 71.0971 130.96 70.9721 131.185C70.85 131.409 70.7889 131.669 70.7889 131.964V136H69.5147ZM82.025 136.145C81.6103 136.145 81.2353 136.068 80.9 135.915C80.5648 135.759 80.2992 135.533 80.1032 135.237C79.91 134.942 79.8134 134.58 79.8134 134.151C79.8134 133.781 79.8844 133.477 80.0265 133.239C80.1685 133 80.3603 132.811 80.6017 132.672C80.8432 132.533 81.1131 132.428 81.4114 132.357C81.7097 132.286 82.0137 132.232 82.3233 132.195C82.7154 132.149 83.0336 132.112 83.2779 132.084C83.5222 132.053 83.6998 132.003 83.8105 131.935C83.9213 131.866 83.9767 131.756 83.9767 131.602V131.572C83.9767 131.2 83.8716 130.912 83.6614 130.707C83.454 130.503 83.1444 130.401 82.7324 130.401C82.3034 130.401 81.9654 130.496 81.7182 130.686C81.4739 130.874 81.3049 131.082 81.2111 131.312L80.0137 131.04C80.1557 130.642 80.3631 130.321 80.6358 130.077C80.9114 129.83 81.2282 129.651 81.5861 129.54C81.9441 129.426 82.3205 129.369 82.7154 129.369C82.9767 129.369 83.2537 129.401 83.5463 129.463C83.8418 129.523 84.1174 129.634 84.373 129.795C84.6316 129.957 84.8432 130.189 85.008 130.49C85.1728 130.788 85.2551 131.176 85.2551 131.653V136H84.0108V135.105H83.9597C83.8773 135.27 83.7537 135.432 83.589 135.591C83.4242 135.75 83.2125 135.882 82.954 135.987C82.6955 136.092 82.3858 136.145 82.025 136.145ZM82.302 135.122C82.6543 135.122 82.9554 135.053 83.2054 134.913C83.4583 134.774 83.65 134.592 83.7807 134.368C83.9142 134.141 83.981 133.898 83.981 133.639V132.795C83.9355 132.841 83.8475 132.884 83.7168 132.923C83.589 132.96 83.4426 132.993 83.2779 133.021C83.1131 133.047 82.9526 133.071 82.7963 133.094C82.6401 133.114 82.5094 133.131 82.4043 133.145C82.1571 133.176 81.9313 133.229 81.7267 133.303C81.525 133.376 81.3631 133.483 81.2409 133.622C81.1216 133.759 81.062 133.94 81.062 134.168C81.062 134.483 81.1784 134.722 81.4114 134.884C81.6444 135.043 81.9412 135.122 82.302 135.122ZM88.1241 133.78L88.1156 132.224H88.3372L90.9451 129.455H92.4707L89.4963 132.608H89.296L88.1241 133.78ZM86.9522 136V127.273H88.2264V136H86.9522ZM91.0858 136L88.742 132.889L89.6199 131.999L92.6497 136H91.0858ZM93.6319 136V129.455H94.9061V136H93.6319ZM94.2754 128.445C94.0538 128.445 93.8635 128.371 93.7044 128.223C93.5481 128.072 93.47 127.893 93.47 127.686C93.47 127.476 93.5481 127.297 93.7044 127.149C93.8635 126.999 94.0538 126.923 94.2754 126.923C94.497 126.923 94.6859 126.999 94.8422 127.149C95.0012 127.297 95.0808 127.476 95.0808 127.686C95.0808 127.893 95.0012 128.072 94.8422 128.223C94.6859 128.371 94.497 128.445 94.2754 128.445ZM97.8944 132.114V136H96.6202V129.455H97.8432V130.52H97.9242C98.0748 130.173 98.3105 129.895 98.6316 129.685C98.9554 129.474 99.3631 129.369 99.8546 129.369C100.301 129.369 100.691 129.463 101.026 129.651C101.362 129.835 101.622 130.111 101.806 130.477C101.991 130.844 102.083 131.297 102.083 131.837V136H100.809V131.99C100.809 131.516 100.686 131.145 100.438 130.878C100.191 130.608 99.8517 130.473 99.4199 130.473C99.1245 130.473 98.8617 130.537 98.6316 130.665C98.4043 130.793 98.2239 130.98 98.0904 131.227C97.9597 131.472 97.8944 131.767 97.8944 132.114ZM106.536 138.591C106.017 138.591 105.569 138.523 105.194 138.386C104.822 138.25 104.518 138.07 104.282 137.845C104.046 137.621 103.87 137.375 103.754 137.108L104.849 136.656C104.926 136.781 105.028 136.913 105.156 137.053C105.286 137.195 105.463 137.315 105.684 137.415C105.909 137.514 106.197 137.564 106.549 137.564C107.032 137.564 107.431 137.446 107.747 137.21C108.062 136.977 108.22 136.605 108.22 136.094V134.807H108.139C108.062 134.946 107.951 135.101 107.806 135.271C107.664 135.442 107.468 135.589 107.218 135.714C106.968 135.839 106.643 135.902 106.242 135.902C105.725 135.902 105.259 135.781 104.845 135.54C104.433 135.295 104.106 134.936 103.865 134.462C103.626 133.984 103.507 133.398 103.507 132.702C103.507 132.006 103.624 131.409 103.86 130.912C104.099 130.415 104.426 130.034 104.84 129.77C105.255 129.503 105.725 129.369 106.251 129.369C106.657 129.369 106.985 129.438 107.235 129.574C107.485 129.707 107.68 129.864 107.819 130.043C107.961 130.222 108.07 130.379 108.147 130.516H108.241V129.455H109.49V136.145C109.49 136.707 109.359 137.169 109.097 137.53C108.836 137.891 108.482 138.158 108.036 138.331C107.593 138.504 107.093 138.591 106.536 138.591ZM106.524 134.845C106.89 134.845 107.2 134.76 107.453 134.589C107.708 134.416 107.901 134.169 108.032 133.848C108.166 133.524 108.232 133.136 108.232 132.685C108.232 132.244 108.167 131.857 108.036 131.521C107.906 131.186 107.714 130.925 107.461 130.737C107.208 130.547 106.896 130.452 106.524 130.452C106.14 130.452 105.82 130.551 105.565 130.75C105.309 130.946 105.116 131.213 104.985 131.551C104.857 131.889 104.794 132.267 104.794 132.685C104.794 133.114 104.859 133.49 104.99 133.814C105.12 134.138 105.313 134.391 105.569 134.572C105.828 134.754 106.146 134.845 106.524 134.845Z" fill="#1C1903"/>
<path d="M1 94C0.447715 94 0 94.4477 0 95C0 95.5523 0.447715 96 1 96V94ZM39.4005 95V96H39.5456L39.6846 95.9588L39.4005 95ZM81.292 82.5862L70.0637 79.8918L73.3445 90.9629L81.292 82.5862ZM1 96H39.4005V94H1V96ZM39.6846 95.9588L72.947 86.102L72.3788 84.1845L39.1164 94.0412L39.6846 95.9588Z" fill="#D4AA01"/>
<path d="M1 96.5C0.447715 96.5 0 96.9477 0 97.5C0 98.0523 0.447715 98.5 1 98.5V96.5ZM39 97.5L39.2666 96.5362L39.1357 96.5H39V97.5ZM62.5 104L54.401 95.7696L51.3228 106.899L62.5 104ZM1 98.5H2.35714V96.5H1V98.5ZM7.78571 98.5H18.6429V96.5H7.78571V98.5ZM21.3571 98.5H26.7857V96.5H21.3571V98.5ZM37.6429 98.5H39V96.5H37.6429V98.5ZM38.7334 98.4638L39.5727 98.696L40.1059 96.7683L39.2666 96.5362L38.7334 98.4638ZM42.9298 99.6245L49.6441 101.482L50.1773 99.554L43.463 97.6969L42.9298 99.6245ZM51.3227 101.946L54.6798 102.875L55.213 100.947L51.8559 100.018L51.3227 101.946Z" fill="black"/>
</svg>
