<svg width="64" height="64" viewBox="0 0 64 64" fill="none" xmlns="http://www.w3.org/2000/svg">
<circle cx="32" cy="32" r="32" fill="black"/>
<path d="M14.499 39.4443C15.0147 39.9598 15.7141 40.2494 16.4433 40.2494C17.1725 40.2494 17.8718 39.9598 18.3875 39.4443L32 25.8318L45.6125 39.4443C46.1312 39.9452 46.8258 40.2224 47.5469 40.2161C48.2679 40.2098 48.9576 39.9206 49.4675 39.4108C49.9774 38.9009 50.2666 38.2112 50.2729 37.4901C50.2791 36.7691 50.0019 36.0744 49.501 35.5558L33.9443 19.999C33.4286 19.4835 32.7292 19.1938 32 19.1938C31.2708 19.1938 30.5715 19.4835 30.0558 19.999L14.499 35.5558C13.9835 36.0715 13.6938 36.7708 13.6938 37.5C13.6938 38.2292 13.9835 38.9286 14.499 39.4443Z" fill="white"/>
</svg>
