<svg width="12" height="20" viewBox="0 0 12 20" fill="none" xmlns="http://www.w3.org/2000/svg">
<path d="M0.734036 0.440231C0.452157 0.722196 0.293806 1.10457 0.293806 1.50327C0.293806 1.90197 0.452157 2.28434 0.734036 2.56631L8.17681 10.0091L0.734036 17.4518C0.460146 17.7354 0.308592 18.1152 0.312017 18.5095C0.315443 18.9037 0.473575 19.2808 0.752353 19.5596C1.03113 19.8384 1.40825 19.9965 1.80249 19.9999C2.19672 20.0034 2.57653 19.8518 2.86011 19.5779L11.3659 11.0721C11.6478 10.7902 11.8062 10.4078 11.8062 10.0091C11.8062 9.61038 11.6478 9.22801 11.3659 8.94604L2.86011 0.440231C2.57815 0.158351 2.19577 0 1.79708 0C1.39838 0 1.016 0.158351 0.734036 0.440231Z" fill="#1C1903"/>
</svg>
