<svg width="46" height="44" viewBox="0 0 46 44" fill="none" xmlns="http://www.w3.org/2000/svg">
<path d="M27.5786 25.5591C27.8469 25.8274 27.9976 26.1913 27.9976 26.5707C27.9976 26.9501 27.8469 27.3139 27.5786 27.5822C27.3104 27.8505 26.9465 28.0012 26.5671 28.0012C26.1877 28.0012 25.8238 27.8505 25.5556 27.5822L18 20.0243L10.4421 27.5798C10.1738 27.8481 9.80992 27.9988 9.43052 27.9988C9.05113 27.9988 8.68727 27.8481 8.41899 27.5798C8.15072 27.3115 8 26.9477 8 26.5683C8 26.1889 8.15072 25.825 8.41899 25.5568L15.9769 18.0012L8.42137 10.4432C8.1531 10.175 8.00238 9.81111 8.00238 9.43171C8.00238 9.05232 8.1531 8.68846 8.42137 8.42018C8.68965 8.15191 9.05351 8.00119 9.4329 8.00119C9.8123 8.00119 10.1762 8.15191 10.4444 8.42018L18 15.9781L25.5579 8.41899C25.8262 8.15072 26.1901 8 26.5695 8C26.9489 8 27.3127 8.15072 27.581 8.41899C27.8493 8.68727 28 9.05113 28 9.43052C28 9.80992 27.8493 10.1738 27.581 10.4421L20.0231 18.0012L27.5786 25.5591Z" fill="#1C1903"/>
</svg>
