<svg width="100" height="125" viewBox="0 0 100 125" fill="none" xmlns="http://www.w3.org/2000/svg">
<path d="M12.5 125C9.06251 125 6.11876 123.833 3.66876 121.5C1.21876 119.167 -0.00415605 116.365 1.06112e-05 113.095V53.5714C1.06112e-05 50.2976 1.22501 47.494 3.67501 45.1607C6.12501 42.8274 9.06668 41.6627 12.5 41.6667H18.75V29.7619C18.75 21.5278 21.7979 14.5079 27.8938 8.70238C33.9896 2.89683 41.3583 -0.00396419 50 4.06583e-06C58.6458 4.06583e-06 66.0167 2.90278 72.1125 8.70834C78.2083 14.5139 81.2542 21.5317 81.25 29.7619V41.6667H87.5C90.9375 41.6667 93.8812 42.8333 96.3312 45.1667C98.7812 47.5 100.004 50.3016 100 53.5714V113.095C100 116.369 98.775 119.173 96.325 121.506C93.875 123.839 90.9333 125.004 87.5 125H12.5ZM50 95.2381C53.4375 95.2381 56.3812 94.0714 58.8312 91.7381C61.2812 89.4048 62.5042 86.6032 62.5 83.3333C62.5 80.0595 61.275 77.256 58.825 74.9226C56.375 72.5893 53.4333 71.4246 50 71.4286C46.5625 71.4286 43.6188 72.5952 41.1688 74.9286C38.7188 77.2619 37.4958 80.0635 37.5 83.3333C37.5 86.6071 38.725 89.4107 41.175 91.744C43.625 94.0774 46.5667 95.2421 50 95.2381ZM31.25 41.6667H68.75V29.7619C68.75 24.8016 66.9271 20.5853 63.2812 17.1131C59.6354 13.6409 55.2083 11.9048 50 11.9048C44.7917 11.9048 40.3646 13.6409 36.7188 17.1131C33.0729 20.5853 31.25 24.8016 31.25 29.7619V41.6667Z" fill="#B99500"/>
</svg>
