<svg width="125" height="125" viewBox="0 0 125 125" fill="none" xmlns="http://www.w3.org/2000/svg">
<path d="M94.125 72.3742C82.5 72.3742 72.75 81.1232 70.25 92.7667C64.3125 90.0696 58.875 90.7932 54.75 92.7009C52.1875 80.9916 42.4375 72.3742 30.875 72.3742C17.3125 72.3742 6.25 84.1492 6.25 98.6871C6.25 113.225 17.3125 125 30.875 125C43.75 125 54.25 114.343 55.25 100.792C57.375 99.2133 62.9375 96.2531 69.75 100.924C70.875 114.409 81.25 125 94.125 125C107.687 125 118.75 113.225 118.75 98.6871C118.75 84.1492 107.687 72.3742 94.125 72.3742ZM30.875 117.501C21.125 117.501 13.3125 109.081 13.3125 98.6871C13.3125 88.2935 21.1875 79.8733 30.875 79.8733C40.625 79.8733 48.4375 88.2935 48.4375 98.6871C48.4375 109.081 40.625 117.501 30.875 117.501ZM94.125 117.501C84.375 117.501 76.5625 109.081 76.5625 98.6871C76.5625 88.2935 84.375 79.8733 94.125 79.8733C103.875 79.8733 111.75 88.2935 111.75 98.6871C111.75 109.081 103.812 117.501 94.125 117.501ZM125 55.9286H0V65.7959H125V55.9286ZM84.5625 4.1579C83.1875 0.934566 79.6875 -0.775775 76.375 0.342524L62.5 5.21041L48.5625 0.342524L48.25 0.276742C44.9375 -0.709993 41.4375 1.13191 40.1875 4.48681L25 46.0612H100L84.75 4.48681L84.5625 4.1579Z" fill="#B99500"/>
</svg>
