<svg width="42" height="48" viewBox="0 0 42 48" fill="none" xmlns="http://www.w3.org/2000/svg">
<path d="M33.1451 7.52C31.3238 5.43899 30.3201 2.76649 30.3209 0H22.0879V33.0667C22.0244 34.8561 21.2696 36.551 19.9824 37.7945C18.6952 39.038 16.9761 39.7331 15.1871 39.7333C11.4036 39.7333 8.25964 36.64 8.25964 32.8C8.25964 28.2133 12.6825 24.7733 17.2387 26.1867V17.76C8.04649 16.5333 0 23.68 0 32.8C0 41.68 7.35374 48 15.1604 48C23.5266 48 30.3209 41.2 30.3209 32.8V16.0267C33.6594 18.4263 37.6676 19.7137 41.7778 19.7067V11.4667C41.7778 11.4667 36.7687 11.7067 33.1451 7.52Z" fill="black"/>
</svg>
