<svg width="34" height="44" viewBox="0 0 34 44" fill="none" xmlns="http://www.w3.org/2000/svg">
<path d="M4.19048 44C3.0381 44 2.05124 43.5893 1.22991 42.768C0.408575 41.9467 -0.00139327 40.9605 3.55728e-06 39.8095V18.8571C3.55728e-06 17.7048 0.41067 16.7179 1.232 15.8966C2.05334 15.0752 3.0395 14.6653 4.19048 14.6667H6.28572V10.4762C6.28572 7.57778 7.3075 5.10679 9.35105 3.06324C11.3946 1.01968 13.8649 -0.00139539 16.7619 1.43117e-06C19.6603 1.43117e-06 22.1313 1.02178 24.1749 3.06533C26.2184 5.10889 27.2395 7.57917 27.2381 10.4762V14.6667H29.3333C30.4857 14.6667 31.4726 15.0773 32.2939 15.8987C33.1152 16.72 33.5252 17.7062 33.5238 18.8571V39.8095C33.5238 40.9619 33.1131 41.9488 32.2918 42.7701C31.4705 43.5914 30.4843 44.0014 29.3333 44H4.19048ZM16.7619 33.5238C17.9143 33.5238 18.9011 33.1131 19.7225 32.2918C20.5438 31.4705 20.9538 30.4843 20.9524 29.3333C20.9524 28.181 20.5417 27.1941 19.7204 26.3728C18.899 25.5514 17.9129 25.1415 16.7619 25.1429C15.6095 25.1429 14.6227 25.5535 13.8013 26.3749C12.98 27.1962 12.57 28.1824 12.5714 29.3333C12.5714 30.4857 12.9821 31.4726 13.8034 32.2939C14.6248 33.1152 15.6109 33.5252 16.7619 33.5238ZM10.4762 14.6667H23.0476V10.4762C23.0476 8.73016 22.4365 7.24603 21.2143 6.02381C19.9921 4.80159 18.5079 4.19048 16.7619 4.19048C15.0159 4.19048 13.5317 4.80159 12.3095 6.02381C11.0873 7.24603 10.4762 8.73016 10.4762 10.4762V14.6667Z" fill="white"/>
</svg>
