<svg width="44" height="44" viewBox="0 0 44 44" fill="none" xmlns="http://www.w3.org/2000/svg">
<path d="M33.132 25.4757C29.04 25.4757 25.608 28.5554 24.728 32.6539C22.638 31.7045 20.724 31.9592 19.272 32.6307C18.37 28.5091 14.938 25.4757 10.868 25.4757C6.094 25.4757 2.2 29.6205 2.2 34.7379C2.2 39.8552 6.094 44 10.868 44C15.4 44 19.096 40.2488 19.448 35.4788C20.196 34.9231 22.154 33.8811 24.552 35.5251C24.948 40.272 28.6 44 33.132 44C37.906 44 41.8 39.8552 41.8 34.7379C41.8 29.6205 37.906 25.4757 33.132 25.4757ZM10.868 41.3603C7.436 41.3603 4.686 38.3964 4.686 34.7379C4.686 31.0793 7.458 28.1154 10.868 28.1154C14.3 28.1154 17.05 31.0793 17.05 34.7379C17.05 38.3964 14.3 41.3603 10.868 41.3603ZM33.132 41.3603C29.7 41.3603 26.95 38.3964 26.95 34.7379C26.95 31.0793 29.7 28.1154 33.132 28.1154C36.564 28.1154 39.336 31.0793 39.336 34.7379C39.336 38.3964 36.542 41.3603 33.132 41.3603ZM44 19.6869H0V23.1602H44V19.6869ZM29.766 1.46358C29.282 0.328967 28.05 -0.273073 26.884 0.120568L22 1.83407L17.094 0.120568L16.984 0.0974131C15.818 -0.249918 14.586 0.398433 14.146 1.57936L8.8 16.2136H35.2L29.832 1.57936L29.766 1.46358Z" fill="white"/>
</svg>
